<mxfile host="app.diagrams.net" modified="2021-07-31T12:04:20.387Z" agent="5.0 (Windows NT 10.0; Win64; x64) AppleWebKit/537.36 (KHTML, like Gecko) Chrome/91.0.4472.164 Safari/537.36 OPR/77.0.4054.277" etag="S7H0VfCQTEvVCPJNaGRM" version="14.9.3" type="github" pages="2">
  <diagram id="Vcthu4iQtOqKne5wx-fZ" name="Activity">
    <mxGraphModel dx="998" dy="540" grid="1" gridSize="10" guides="1" tooltips="1" connect="1" arrows="1" fold="1" page="1" pageScale="1" pageWidth="827" pageHeight="1169" math="0" shadow="0">
      <root>
        <mxCell id="0" />
        <mxCell id="1" parent="0" />
      </root>
    </mxGraphModel>
  </diagram>
  <diagram id="cFvjQC9_deJRwxix5CjA" name="Database">
    <mxGraphModel dx="998" dy="540" grid="1" gridSize="10" guides="1" tooltips="1" connect="1" arrows="1" fold="1" page="1" pageScale="1" pageWidth="827" pageHeight="1169" math="0" shadow="0">
      <root>
        <mxCell id="kv3tFO3fJcUVmhCT7JTZ-0" />
        <mxCell id="kv3tFO3fJcUVmhCT7JTZ-1" parent="kv3tFO3fJcUVmhCT7JTZ-0" />
        <mxCell id="risJodU2ac5edyZJKfSZ-4" value="" style="shape=image;verticalLabelPosition=bottom;labelBackgroundColor=#ffffff;verticalAlign=top;aspect=fixed;imageAspect=0;image=data:image/png,iVBORw0KGgoAAAANSUhEUgAAAhsAAAH5CAYAAAAoQ/ypAAAgAElEQVR4Aex9B3Rdx3kmXLKWvY7j7B6vs5s4m7UTO7JEMY6dE3sd22okneIay+bah7FVSEVyjRUVS1QhbRVTIimBKiQFQmwiCZFiEysIsYC9gSBIgGABKAAEiA6CRC/v3/PNw/cwb3BfucB7EB7x33Mu5k77/3++O3f+783MvUgTPRQBRUARUAQUAUVAEUgiAmlJlK2iFQFFQBFQBBQBRUARECUb2gkUAUVAEVAEFAFFIKkIKNlIKrwqXBFQBBQBRUARUASUbGgfUAQUAUVAEVAEFIGkIqBkI6nwqnBFQBFQBBQBRUARULKhfUARUAQUAUVAEVAEkoqAko2kwqvCFQFFQBFQBBQBRUDJhvYBRUARUAQUAUVAEUgqAko2kgqvClcEFAFFQBFQBBQBJRvaBxQBRUARUAQUAUUgqQgo2UgqvCpcEVAEFAFFQBFQBJRsaB9QBBQBRUARUAQUgaQioGQjqfCqcEVAEVAEFAFFQBFQsqF9QBFQBBQBRUARUASSioCSjaTCq8IVAUVAEVAEFAFFQMmG9gFFQBFQBBQBRUARSCoCSjaSCq8KVwQUAUVAEVAEFAElG9oHFAFFQBFQBBQBRSCpCCjZSCq8KlwRUAQUAUVAEVAElGxoH1AEFAFFQBFQBBSBpCKgZCOp8KpwRUARUAQUAUVAEVCyoX1AEVAEFAFFQBFQBJKKgJKNpMKrwhUBRUARUAQUAUVAyYb2AUVAEVAEFAFFQBFIKgJKNpIKrwpXBBQBRUARUAQUAd9k44033hA9FQPtA6ndB3ToUwQUAUVgOBEYFNmAgTOyRRbki7x+xv+5papL9FQMtA+8O30ARFEPRUARUASGE4EhkY3nd4k8dUDk4aP+TnUy746TUdwVd/QBJRvDOcSqLkVAEQACQyIbj20U+f66XvnC+l75wlaJ+zx4uUf0VAy0D7w7fUDJhg7+ioAiMNwIDJpsPLlF5GerRT6X2SNp87olbanEfZ4VET0VA+0D704fULIx3MOs6lMEFIFBk42pm0R+kiXy2bk9kjarS9JmB+I+/TqZ9OPdgtNvvZFefk9pqSxZs8ZXu7Lz82X2nDmS39Rk6q3KyZFXMjOlsL3dpCEPZdh25NtxpscKYdtzM2fKM888EzqpJ1Zdr3y0EzK98rzS0D67LdHajfqDwdLVe7i+Xr4yYYKkpaXJij17wmyNlufKGelxJRs68CsCisBwIzBosvHMVpFfrRf5/BKQjXZJm9oiaVM7JW1qV8yzuFck3vPR/ZfkWyvrzInreOuN9HIFre0yPzNTlmdl+WrT/vx8mTNnjpxubDL1Nm/LkQWZmXKurV2qAiK9InIpEMQ3t6RUZs6cKajjB4+tx/INwcjPzw/rjyuysuT5OXPkaENQd7wyIQ92HC8tjdsOtA/tpO1uu1sDIt0iUh4QGSyWrv2FdfUyvo9sbNm9J8zWaHmunJEeV7IR1q01oggoAsOAwKDJBt5G+fUGkS8s7SMbD12WtJ+1SNq9sc/89oBEOtdW9Mhzee3y6P5mc/7dukb5i5UN5sQ101EGZSPJGenpRc1thiSAbPixde+xINkorG009Ug2IM+Vk3c2SDZQx82LFl+6IkuysrKkoUfC6lX3EYA12dvC0qPJQh70g2zAnlhlmY/2gWzQdrfdLIdwsFjaMsz1xboQ2diUuyfc1mh5UfrzAB0joKySjWEYWVWFIqAIhCEwZLLxakFAOntELncEZFJmi6Td1WjOnCL87hS50NQrNz93OZSO/GgbA5853CY3LW+Sz7xea86PrmyVD67qMCeumY4yKBtNVjLz5i9bEVpewFLD0k3ZYbbsqWuRFzMWhJVBHdi0s6JeZqfPCeXNSk83acxDnMsXkAFZbMueo/mSPmeOHK9uMGmbsrcZ0nK8odXIQN21B46ZkzIQUjflRAqhK6NvxsUtU9LeKz0BkeaeQMgelHGxsG0GLrYdNk52vWdnzpTNhedCctE+tBPthQ633ZADPTkllRGxhDzIpf5YGBytrA2RjQ07d4dsgf5IeW8cLZS/GnODWXrB8guukeZiNy1jcagMys3Pzg2VyX6nRr54y3iTP+WRJ0Ll7DKuvKHElWyEjYEaUQQUgWFAYMhkY2NpQAJ9hu483SVpd9XKzc81SUd3MBUh4kjnmdvQLZHOB3Y1yadfr5WPbG6VD7/VLh99vVf+eJGYE9dIQx7KoGwkOclMn7t0hWQsyJT29nbT8tK+/Q0r9+YZe7ZXXZGXMxaYJRLeQ5TBr/tFG7KluKVHWtraJTMz08wgwIEjLft8ncxOTxcsV/DAzAfSkGfadOSYccJHK+tNfGMf2Tha1yJIg4POPXJMLnb0CnViOaS1JxAXVgWXe2TrthzjoGe+YOmNcM9cLJqamowNC5atMPqaugIC/Wg77EEc7UC99PQ5gvI4UAakgBjabYnW7nNNrZ5Yrj9+1uw52ZaTY+TjXuGezXl1geD+ePWPA+U1IbKxfkduWBmvvKUHC+XaMWND5AAkAifSkEcdd/6mn0CwDMJH5y4yZWzZzB87dqzsKSgKyaCsRIRKNvh0aagIKALDhcCQycY9Ob3S0RM0t6k1YAjF4v3tIQJysrI7RDJINjZXdkmk81dvN8mnl9YaUvGeuQH51yMBufds8MQ10kA4UAZlI8lJVvqG0svGaS1fkSWH6ruN/nOXe6U3IFLR2mviW46flfT0dCk6Wxqyr6iu1ZCLpcuzTNreyitGzrIVwTjsXbEh2zjqC3WNoXq4BoFAHsrsOBQkG/vfqTfxDVu3GTmQhzSURRmU3VtYYpw84/FiUt8RkJycIOHgrADCjLVBGyhnXXGtIQyHj+WHsDje2GPIEhw7sKLNIBuwB/E3Dp8NLqvk5wvKIw3YYelmXkawntuWaO32wvK1ZVkG78pLbUY+7tXpc0HCt3ZvnkljOxjuOtdPNlbn5IaV8crLys415OLuu++WtrY2c+IahGFmxhJT/9XckzLmhrEyYcIEqa+vNw9KcXGxgEzcPG6CZJ28KLZsykJ/Qr+ibYkMlWwM1/CqehQBRYAIDJlsYM9GKXYkihiHO2nBZSmtC7IPDJiIk2QwXF/eKV7nvVsb5G9WN8gfrWw1MxrfPRKQ9JJuWVLWZU5cIw0zHCiDsqjjJStZaftqu2VL9jbzK/y559NlVVHNAP2nm3sEEzsIlx08IzOe65/KB7mAbbkV/WQD8TXnmmV+RqZx1HkN3SGZuMZMB0gKym3vIxt7zteZ+FtbgmQD8pAGsoEyKLv75Dnj1BlHWrxnXTu2moqZvcEMDEkH2oI2QQ5sQzvLWnoNDsCD5UA2YBPKQT/IBuxBfOWmbLMfo7Ay/N4dwBJR+hx5u6RuQFuitdvFEvcEcnCfcL/Y5hO1LYaArNm8LZTGPIQ7zlaHZjbezMkNK8M8kIQdx4pMHkLEORvx7R9PlsYrrQY34AeZz70avnzCsghvGDtWVh8sDNO7PXd3mM22fYm6VrJhbpH+UQQUgWFEICFkY3FRT2gmY39Jd2gJhTMdJBkMV5Z0iHs+uL1dbl1aI3/+RoPZn4Glk38/E5AFJZ2hsrhGGvKwjwNlUQd1XXnJjNe09Yam/elcZ81dIFmnLhk7ECLOPPxixzQ+nPbry7NMmbfPB2dI3DjruCHL5RwIzmzsOldn5KzvIxuQhzSQDZRB+3cVBMkG44PBZFdVl7T1LYlxWSZz6QojH/LSFy4PtRNvxaCdaC/IBmxCGegH2YA9iMNmt32Mw360w21LtHa7WLIuZboh9Hthsa24WsaPD776ujI7N6wM80AuNh4qNHlFjT2yZMnSENmwicRv39hhyrycucQzn2WXbs4Vykaaq9fLzqGmKdkYxhFWVSkCioBBICFk4+aVndIR3A8qbZ0BCfRt4uAeDpIMhotPtYt73retTW5eXCN/ntVPNqacDsjLxR2hsrhGWohsZDWYOqjrykt2/GxT39qRtd/g5UXLjR3Lth81zhXOGceljoBsOttsHDBIA2yLFIej9jogA/Wy9wfJRs7pWhNftzk4swF5SIOzRhmUfTs/uFzB+FAxOV7XbYjEqwsyZeHxJnl112mzL4KvyLZ2ByS7rNMQKpAN2ESbQTZgD+KwGW+acL+G3d6uXpE9VV0D2hKt3S6WxAFLQV7HxZZeY4eLx9ulzTJ5SnAZZMWW3LAyy3afNDMRIBvr9heG8iCLx549e0LEYuLtUyTjWKO8tCBINrg8wrIM0Y82Fl4MkRxXr2tjIuJKNoi+hoqAIjBcCCSEbOA7Gyer+50vjI+0hALC8WpBm+f5b+vq5fqVDfJHb7TKH73eK986FJDpBZ3y/MkOc+IaachDGZRFnUjyhiu9uLHH7HGAE55/tFFWbsg2sxgHy6+EbMvad9oQEJAN2LW++FKIfCC+sbRDsMRCGbQd8p59OUOeX7HF1Nu6L0g2NhfVmPjaPrIBeUgD2UAZ1N+WFyQbjFNmtPDl7cXy+2dnyosbDxsZblnYDzth71u78wxpOPpO/z2Ye+CivJA+x7QNNqE+9INswB7Edx0MxtcePBOmA21EW9Fmty3R2u1iue1cs3lDZ/GyINZsA2ybMTs9YtvQpqmPTzOE4R9uHi+zcy+E7LvnweAmT3yHY0dxtUm/6+lMU/Zrt90pLx9uEPQDEo5bx0+QFUerJDevf6nl2ZU7TL0HF71t6l33f281OtYdrwqRjWWbc0M6aXeiQyUbwzW8qh5FQBEgAgkjG5Oy2gzBoOBISyjRyAYG1dvfqpdPLenfIApyMbk4eOKaG0RRBmUTPRDHkkfnP3PB8pBuOLHn0+fI5uxtxgnDmWLqfknOEVMGdV6aH1xWIZlwHST0ltU0mr0GLy3sl53x5laTVnyhwciK5nRdBz0YspFXE5y9ePa5mQLiYeOB+Avp6XLidKlJz+1bplm4Zmuo3CuLgssq2DOxpiBIiFyyAaeMGZxZL6QLsIMOyMYXSw8dzTcYum2J1m4XS5AGbM6FPJI06IBtWOopuNgSstduH64PFZwK24fB5Q6Gi5YslR3lnab+ybJas/GTeXb4+LTpphzwnDZtemjGwy5DWUo2OGpoqAgoAlcrAgkjG2kPNgsIBo9ISyjxkg2++opZjI8uEnPimq++vltkA46s/nKbmYGw9wJgE2fllV7jhDjTYeeDiMDB0glDDhwrymAmAc4WTqy2ocnMDLAuSAzS6OCiOV3XQZM4QBZnDFzn6hVv6gjIsb5XUWkHQhCmy63tArmoh9Ath5kPLF9gJoMzF3Du3GRKkgYdwMyWD1nADrLdtkRrtxeWsK3E+eQ6iB7uHcp7tZttqq2r9yQRmLXgPUZZ3JOLtQPLLl26VNA+6sD19OnhhANlKEvJBkcNDRUBReBqRSChZCNjT/C7E5fbA55voXDPBgdhr/DnW67IlxY3mtkNEAosl/CjXrhGGk6UQVkvGclOg7Nq6eonVugctnOBfjgS+0AcZbAngcQBjhUHlpzowJGHMjzs8pCLOnYa5MIW2MS6dNgoD504WCZebGgb7Ygkwy0HfbDJbpONl40TbaMO2263LciL1G7iAjm2XmCKOI94MaBu1mNo20ccvcqi/cxn6LbVLmPL8NJBGYkKdRmFd1RDRUARGC4EEko20qbUDXjNlQTDDqMNmk/tazMkAkskOLEv4xNZwRPXTAfRQNlosjRP8dE+MLAPKNkYruFV9SgCigARGHFkw3UO2AB606Iac46EzaCufakSxzINlmvsZQv3mss5qdImtXMgkYgHEyUbHP40VAQUgeFCYMSTDQyev9wSPOMZSLWMtwNylxS8Opi9BKE4euN4NeCiZMOr92uaIqAIJBOBlCAbV8MAr224ep13qt1bJRvJHFJVtiKgCHghMGiy4SVM0xQBRWDkI6BkY+TfI7VQEbjaEFCycbXdUW2PIhADASUbMQDSbEVAEUg4Ako2Eg6pClQERjYCSjZG9v1R6xSBqxEBJRtX413VNikCURBQshEFHM1SBBSBpCAQN9lo6W2R3Mu5kuyBCl9pnDBhgtTX10dsML7GGOkfW0Ws5GS0tbUZGfiSo5+juLhYZs2aNaAK0idOnOhpN9oUzV60x7UD7Yc8yNVDEUgkAniGdzbvNCeeaTzbeigCioAikEwE0q70XJF4zkNXDsk1h65JOtmIp7GJIBvx6HHLkKBAv30wHaTCPUAW8J9CI5ENkAz8vwyXbEBOLJLi6tK4IhAPAiAbaQfSzPmBgx+QvJY86Qx0Rjy7Al3xiNUyioAioAhERCDthuM3yNjjY2Oen8n/jLznwHviIhuXL1+Sbds2yerVq2TZsmWyZcsWgUPu7bW+wx3RpNgZI41sgCh4kQkSCZAJN58Ehf+Yy4tssIwXiYmNkpZQBLwRsMnG+w++Xx4uf1herH5R5lTPkTkXB56rGlZJQKzvvnuL1VRFQBFQBCIikPb+A++Xaw5eE/PELyD8Goq1jFJfXyt5edmyc+dPZdWqB2Xhwt/IwoW/lVWrVsmFCxeks7MzojHIgGN1l1FALuiU4bTvv//+Ac7bFYo67gyEXYaOnE6eeteuXRvSBZ109FjWgF20gza6cqiDRAP1XXLEOpBx+vRpI5d2sD5DpLtEhXkaKgKDQcAmG+87+D65p/Qeebzicc/zF+d/IfeW3iurG1dLc0/zYNRpHUVAEVAEJO2+svvkgbIHYp53lNwh+BUUi2zk5x+VJUsekcuXx8vx4z+VgoL/lE2b7pJ//ud/lu3bt0tjY2PUGQ46fe7ZgKOmY8f9ohMfqgOmw6eTh14QCVuuq5t1bBKDZZLx48dH3Vvhkg2735HE0A47D9fxyHfraFwRiIaATTb+4OAfyNyaubKlaYvn+cLFF2Ry6WSZVjFNarpqoonVPEVAEVAEIiIQ9wbR0o5SGXdqXEyycfDgAXn++UeluPgReeaZn8m6dd+Uffu+KDfffLOsXr1azp8/L62trRENsskG9zsgjQcdvk0KmOcnpBw6eejA3gro5OHqZx2bbKC+TYZY1w6HQjZIRmwMbNl6rQj4RQBk42tFXzPnraduFTzbkY5DLYdk+oXpZtajuqs6UjFNVwQUAUUgKgJxkw1KiTWzAaf49NP3S1HRY7J792/kzJnbZNu2z8rHP/5xWbx4sZSUlMRNNiDLy5FHc960M1ZI4mCTDVdXPGQjHluilSGZoB2u3a6dbr7GFQG/CMR6hm15h1sOy28v/FYerXhUlGzYyOi1IqAI+EEg4WQDZOKNNxZJevoU2bfvQdm48Tb57W+/LFOmTJENGzZIaWlp3GQj0qwB0pMxszGSyQYIix6KQCIQ8EM2jrQckd9d+J08UvGIko1EgK8yFIFRikDCyUZXV5cUFBSYPRrr1/9C5s6dJPfeO9Hstdi9e7dUVFRIR0dHRLjt2Qz72q4QbabALhft2p0x8NKlMxvRENS8VEXAD9k42nJUnqp8Sh4qf0gudl1M1Sar3YqAIvAuI5BwsoH2nDlzRm655RZZs+ZnUlQ0VVav/rl85zvfkU2bNkldXV3UJttO33X2qEiSMFJmNiLNvtiNjEaOYi2jMB+46KEIJAIBP2QD3+B4uvJps4FcyUYi0FcZisDoRCApZAMk4ctf/rK8+ea98vTT35bbbvu62Ryal5cnFy9elPb29oho22QDheCo7eUNOHf3rZGIwqJkkLRAHg5XL9JcssM69pIGyujbKFGA1qwRh4AfsnGs9Zg8U/mM/GfZf0pVV9WIa4sapAgoAqmBQFLIRmFhoVx33XWSlTVZ1qyZItOm/Ugef/xxyc3NlZqaGunu7o6IjpfTh3Pn9y0wo5HM72xgJoGHSzaQDvtgC99cIQEhaWFdOxzKzAbkDnUWx7ZFrxUBP2QjvzVffl/5e/l12a+VbGjXUQQUgUEjkBSyUVZWJvfcc4/89rc/kFdf/bHMm/dzeeCBB2Tnzp2GbPT09Aza4JFYMVmEgEQGBEcPRSBRCPghG8dbj8uMqhnyq3d+pWQjUTdA5SgCoxCBpJANkInm5ma56aab5FOf+pQhHnv37pWTJ09KVVVV1LdRUvEeJIsUgGTorEYq9oiRbbMfslHQWiDPVT0n+JJoZWflyG6YWqcIKAIjFoGkkI0R29okGoYll0j/9XUwarGco//1dTDIaZ1YCPghGyfaTsjMqpny0/M/VbIRC1jNVwQUgYgIKNmICI1mKAJXJwJ+yMbJtpMyq2qW+f8pFzovXJ2AaKsUAUUg6Qgo2Ug6xKpAERhZCPghG4VthTK7arb8+/l/FyUbI+s+qjWKQCohMHiyUVUloqdioH0g5fqAH7JR1FYkz1983vwzNiUbqTS0q62KwMhCQMmGOsuUc5ZKcodG9P2QjVNtpyT9YrrcWXKnVHRWjKzRS61RBBSBlEFAyYaSDSUbo6wP+CEbxe3FMqd6jtxecruSjZQZ1tVQRWDkIaBkY5Q5Gp0VGNqswNWAnx+ycbr9tLxY/aL8uOTHSjZG3vitFikCKYNASpKN4t27ZexnPyvT77/f81c50u+eNEnaSks9868Gh5HMNgA34Lf0xReTjh/ula0HcX4tlqF7L+sLC2XCjTeGyrn9YM+6dXr/o5Bov2TjpeqXZNK5SVLeWZ4yA5saqggoAiMLgYSSje7ycuksK5Ou8vKkOqnivDzzuXA4IzgW1/FOf+IJuXvKFGm7cGFAnltW4wN/6QM34Lf0tdeSip8hBZMnS1tTk9FjSM7kyeY/BIc9JvjiLD4jX1UlhmjccossXbLEFDH/qG78+DDCIq2tgj6wdO7cpNqfqn3HD9k4035GXq55WX509kdKNsI6pUYUAUXADwJJIRt1RUWyPitL1ixfHjoRrzp+XDrOn5eeIZIAm2xMuPVW44DsgV/JxkACYeMT63o4yIYhDbfeKntyc/uJxJkzMmH8eNmzY0dEkrB0/vzgP+bjL/emJtmze7dMGDcurB8UFxbKxO9/PywtVrtHS74fsnG2/ay8Uv2KTDw7Uco6y/yMLVpWEVAEFIEQAgknGxfy82VvdrZs3bpVtmzZEjq3btkiOzZulNLDh6X9/HnpjUA48GsXU+RwRhz8uWzCWQySjXnz5pkZDjgglkXoRTYog1Pz7qwIpvIxXT9vxozQ9DyWalAPeaznTulDnyvbnda3beM19UVa6oEML11It+UDE9qGkDbbeu6/914jC/l2XVzbdYkvyca8l14K1UO5SPbYMtwyaKeX/j1btgRJQ0VF6N4VHzoU/AqrlcZ2MJz+2GMyfdo0kb7ZEKTXV1QYWZDJcm21tcHZGadvMH80h37Ixrn2czKvZp784OwPlGyEhk29UAQUAb8IJJRsNJw6ZYjGypUrpbKyUqqrq83Z2NgoXV1dkpGRITvWr5em4mLpKisLOQZ74N+TkxN0QiUloXySC+ShbCi+Y4eZTh97ww3G4VOOSzYMGRgzxvwCJkD452ljx4wJ1cOSgXHGjz9uipjp+QkTgmmPPdafNn68TH/ooX7bsH9kzJjQtL75PymTJ3s6Ztpnwo4OEWt5ICyvqkr27Nolpl0HDoR0mdkA/PLftcukgRyYNhQXs1nGEduzPWzX0sWLg2W6u81eFpCCu7GE0dZm0s1/uAVG69aZ5ScsowAPM/MgIib/hhvCliZAVmwZXNKw8fHSj7ZOf/TRAaRhaUZGGPlxCU5omWXRohAmkFVfUmL6zNLMzP70+npBm+++6y7du8NZoL7QD9ko6SiR+TXz5baztynZCD1leqEIKAJ+EUgo2cBSCWY0QDRmzZolM2bMMGdWVlaIbGxdtUqq8vOl5dy5fsdgDYa+yEZOjtRXVRlHc/cdd4Sciks24MTMPzTrW/eHgyouKDCzInu2bTN2wCmafxvPGZWmpqDjnjBB6qurg7b2pRkH27f5dPrUqUHZ/KVdXy+YwgdR2LNxo2cbXWLhFeevddjOfHc2IOSwr1zpLwOSMnasYJYA9dCuCWiDhXHxgQMyftw4Yyf3QghkBAKC/Q6c2Zg+fbqJG/1Xrhg86LxDxMdaBsFsA2YdbHy89LPuUoc0YNbC2N5HngxxmzJF7v7xj829pV2QSUwQhsiGk47lGCzL1J85E1berjsar/2QjdKOUnm15lX57pnvyjsd7/gdX7S8IqAIKAIGgYSSDezRwNJJZ2ennD9/XkpLS8158eLFENnY9MYbUn7kiDSfPu3pAPySDTg4rNnjVzA3BLpkQ6xZBHtJxPxy75stCTlFa8YFztCQlIsXQ7baskNOE7MGFpExU/h33y1hv7QtZx+Xg6Pj7vtlbn7V33ln+GxAd7cITswUWEsixmHn5Zl0tMttAwiMISBWW22bQk7dJQP2xluQqz5yYnCw3g6xN+d66QcRgo0D9magLZBJ8uQQt5BdDqmIRDaK8/Nl/PjxIeJlt3E0X/shG+c7zktGbYZ8+/S3lWyo01AEFIFBI5AUsnHlyhXBv0fPzc01Z0FBQT/ZyMqSssOH5RJ+vXo4YN9kAzLw9sH06cFlh927B+zZcPdUwDazLACH55INa/nGOErnrZYwstE3fQ/S4nWivlcb402zl1IwG2FmS/qWUCDD3q9hllyKiw3uA8iG0wYvAmDbFMmp221HeZvgGELT1mbuwwCy4egPLYP1YW/rdq/ry8pCSySR7IpINvreWuLslSt7tMb9kA3MZiyoXSDfPP1NJRuDHma1oiKgCCSFbGCPBpZOli1bZs7t27cnl2xgKr262jglLGsMcIpc6ujbnwBy4jo8OGDza38QZAP7PzwPzKh4EKp40+yllNBsRN/mydBMB5Y6cPTNCIA8xUM2oi0vRHLqNq6GwGGpaM+eoP6+/Sd2GbTTi7C52EfDI4xI1Nebe4vlFrsOy7gzJdBjZjby88PK23VH47UfsoE3UF6re03+pfhfBLMceigCioAiMBgEkkI2AoGAIRfYFIqzp6fHF9kwzrJvzwGcAX6Z2ksens7KWk5BWf66Dm0qdJY64LxtmUpgh0oAACAASURBVIMhG20XL5oligHOr++jU3y7Y9AOrW8pBa9w4rTfwsA+BPOaqDXTAT3YxxGLbMApuxjbNsZDNnBPDDmz3hzhshKxh0wvsmHPVlCvuU+TJoW9LYM8LLkYwlBQYAgDlrYMUeLeGvQPjzdbUDdkY4TlIuoebaEfsoEPeS2sWyj/VPxPSjYGM8JqHUVAETAIJIVs4K2EhQsXmrdP8AbK5s2b4yYbWGeHI+TGSOPAbr01jBh4kg1rOcUmG9hLgV/b9ncY+Ksc5bivYjBkA7K5GRR7Qei0pj/8cHCfhLWPg3l+QyylwE5DjCxiQaJz9513hjbG2ssqXDrwcvZt9fXGPntTLfddoB3xkI3QfbJeLUW7Yac9a+KlnxtJw0hafb1588W0s+9Dbbz3hmT17ePghmDoApYsYz7yxU26fbNJuLfufhW/+F+N5f2QDfzztUW1i+Trp74u2CyqRzgCwFJPxSBV+kB47x3eWFLIRmtrq+Tl5cmRI0fMuW/fPrNxdMMbb8jhrVul4uhRaY70hgD2e/Rt+ITjGXv99cGPNk2YENpfEZFs4Jcw3gQZOzY0swFn0Xb5snE6kGdk9r0Gi1/mdHiDIhtwaleuSPGpU2Y/BeWbtzHgHKOQDTh195sUXo6NSynuLAJk19fUGMdOvXjlFcsahqz1vQbq6exhV0+PIWGsi9A47I6OuMgG2m3fJ9QHqTOvFDtvw9gzHWwjSJQ7Q4HlLdhv22SIRt8mWFO3qUnq6+rC2m3KOEtWZqbkrrvM66/R7gPtGU2hH7KBfyu/uHaxjCsap2TDY2wGllPX9srMPb3y4hH/55aqLtFTMUh2H0DX9fPce3T1IScllGzs37pVcjZvlsLCwrBz/969suTVVw3RKNm/X2oKCiK++moG/dbW/ob1vfHANx9MvvWa5gAnwTz7GxZ9zjUk1JZJRwZnhXT717H1FktID8rbsvsIh6lLBW5+3y/tkAzEvWR7leNbH65tKMs86rXbRecbTQ/aYh+sQ7wYp11u2+37BDnIRx3Y0TcTEamdJFH2h7gMPl4yqZ+h227oZV5fiA21E3/wg7BXft0yozXuZ9Cp7KyUJXVL5JaiW5Rs2M9K3zWwnJEt8vwukacOiDx81N+ZbCej8pXIoA/g8PPce3T1IScllGzg2xm5GzbIk08+GXbOf+klObljhxTt2hWc1Th92vwPldE62Gu7g0QJMyP2MlAiccFGYa+llUTqSFVZfgadqq4qeb3+dbmp6CbBB770CEeAZOOxjSLfX9crX1jfK1/YKnGfBy/3iJ6KQbL7AHqtn+c+vJcnJpZQspGqg6/aPbT/pTJo/JL0D9Owd8UsZdmzVM7Mx6Btvgrk+Bl0LnZdlGX1y+RrRV9TsuEx5gLLJ7eI/Gy1yOcyeyRtXrekLZW4z7MioqdikOw+oGTjKhi4R7PTSkjbufSSyL6ApZh4lrISqTOFZPklG8vrl8tXCr+iZCMC2Zi6SeQnWSKfndsjabO6JG12IO4z2U5muOXnNzXJa1lZUtjeHjeJQp3Zc+ZIdn6+qYMQcaRDziuZmbIqJyckb09pqSxZsyYUj7eNlPXMM88Iz+dmzhTIi1eGXQ420WY7PdI19bMt0doNGYPBMpJuJRspNEAnxLFqewfsrVBch39WyQ/ZqO6qlhX1K+TLhV8W/FM2PcIRAJbPbBX51XqRzy8B2WiXtKktkja1U9KmdsU8i3tFrqZzcVaWLMjMlHNt7XG363Rjk8yZM0f25+ebOggRR3p5QAQ7y1oDQZwKWttlfmamLM/Kils+8D3a0CTPz5kjK7Kywm5gfn6+IR5bjwV1x3svcktKZebMmSGb46kHTIDN5m05xna33ZcCIr0iUtXX1sFgGckONNrPcx8GUoIig19GSZABKkYRUASGFwE/g05NV41k1WfJF09+UcmGx20Cltgg+usNIl9Y2kc2HrosaT9rkbR7Y5/57QG5mk6QADjUoua2uNtVWNtoyMXeY/mmDkKQDaS72EAu5EOPmxctvv1oUGZ1Y1NYvYYeMR+gfHVBphxuit/mvLNBskGbo+lmHm0H2UCa226WYzgYLFnXDdF1/Tz3Hl19yElKNoYMoQpQBFILAT+DTl1XnaysXyl/f+Lv5Ww7Jmn1sBFwyUbGiR6TfaGpV25+7rKk3dVozsLKYDpCpiFM9sZAP/LXHjgWWl7AMsOLGQtkT11LmI3zl63wLINyKM/liWdnzpTNhedCde16bt7x6gZJnzNH9hzNN+URIo50yl26KVt2VtTL7PQ5IR2z0tNNWjxtfCt7W0imW76tV6QzIHKqtTdkr4uFbbObh7ZRJuwkBghRlnnHG1oNUdqUvc2kue1GWbQpp6QyIpbAAGWow+seUZ8dolP6ee7tPp6oayUbiUJS5SgCKYKAn0GnrrtOVjWskr878XdKNjzur0s2dlZgIlwkICKL97dL2l21MmnBZelFgog0tQZMGtJx5jZ0j4hz5d48wf4F/PNMHO3twSn/BctWhOybu3SFZCzINHmmLU1NxoGjTMHlHunsDc4SZGZmSlt7u5S19Zq6qJeePkeasGEbexH6li6gE+0/Wllv5OQeORbUdeSYiSP9aF2LcdAbs7dJcUuPtLS1C+Tj32H0YLmhpSdkXzQsT/TNRMBJU2+k8i4WsBn6nk+fI9nn6+RiR6/BCcsoaEtrT8DYsGhDdhiGwBKYIt2002pLtHYXVTd4Ygnds9PTw5aCMPuBNORFag/Scfh57k2FBP9RspFgQFWcIjDSEfAz6NR318ubDW/K3xb8rZINjxvrko1Jm7tCxKK0DrMYtbLzdPA7B6i+6URnGNnYXNklI+Fcu3mbWbrIr2gw9hyq75b2noBc6Q6Y+LriWkMYDh/LF+TB5uONPcbxgYBsKL1s0patyDKEZG/lFRN/4/BZs7chLz/flEe9itZe47znZQTr7X8nSDZ2HDpm6iDEzAbSIcfI37rN5DEOPX5wO3e5V0pKg0sfnBVA+MK8BSHbKW/RsixjH+ow7WBevmnH2wXngnYUlpg4bQY+L6TPkW3bcoT1ECKOdOTT9g19bYnWbuh1sVyxIdvgcqGuMWQXroEV8mirV4i+5+e59+jqQ05KSbLB/9hqf2mS1+ZLm/golR5REcAn5YFV6B+pRS09+EzomThxovkvu5AS6d65drhfEnXzISueMmwn+wf+O7B7xCoDPfyvtm7dVIz7GXQauhtkdcNq+ZuCv5Ez7WdSsblJtdklG9gg2tQWnMbo6A7Izc81mdkMGME4ZzUQri/vHBFn/umg84QDXrzj6ACb8hq6pTsgUtbSK6uKauS55/un8kEGciuumDp0kIyv3JQd3H9R2RAm8wCWStLnyNsldbLnfJ1xmNsPHTNlEJplFfxarwiSjbe2bDN5jEOPX+xON/eEiGBOTk5oKQJtnr9ma0je5a6A4IT8FxctD5XDTMbuk+dMOkLEafNbe/NMHDjadiGenp4u246fHdCWaO2GDBvLNeeaZX5GpiF3uBfUgWtsel26PDoe6H9+nvtkPDQJJRvd3d3S2dlp/g9KMoylTDosLwcEZ6KEg0hFDulgvTCMXMt/Du6H/V9xoS/W/UEZ84/iiouNQjeORDfNjaMM20j9bjzeMijntgNpqXr4GXQauxtlTeMauaHgBiUbHjfci2zsLAnuzwDl2FTQGXJwnOmwycbKkg4ZCWdRY4809L0Vwl/+M56bKYv2nQ7Zl76w3/FikyaWWrC8ALLx9vnLptzry8Pj67dsCzlrymUIQrHrXJ05cZ1z4JiRgZB5kAv5kAOcGIeeoeBWg40afctFWJbB7MOy4zVG5oKcIyGbQSiwHILlElzvKjhnyiBE3LaZ7XJD1qPtbAvaHqndaJuNJeu6shmPhQfa6ue59+jqQ05KCtmoq6uT9evXy5o1a0In4lVVVdLR0WH+C+xQLI9GNuhQ4Hz0iIzAcOCEe+ASCzj+aLMEbW1tJt+dgUCcafGUQcuhy9Xv2hRPGchCn8MMDXBL9cPPoNPU0yTrGtfJ9QXXK9nwuPFeZGNSVluIYFxuD85y4O/i/R1hSyggHYtPtY+Yc09Vl3QFfbDZX4E3Qma/kC6ZR6rl1V2nzf4DOF0crd0ByS7rDDnETWebTTvoIBlf17c8w/0aNoTQBZ05p2uN083ef8zIQGic8OlagRyQDcgBVoxDTyKwQxsO9S2RbDhyVhYeb5JXXl1gSBRsxV6b43XdAptAGt7OP2v0IkTcthlx7nmx20kZtJ1tidZutM3GknVB7ryOSx2BqHigjp/n3kvHUNMSTjYuXLgge/fula1bt5p/vrZlyxYTIr5jxw5zM8CIe3v7erXTAtcZINslF27cFkEnyl+zdn1OpSN0yQjidr7rEGPl2zbgmna4elguksNkum0/nGwk21h+3rx5ZjbAbhttYF3b8TJv7dq1xiGzDB26ayfzEdploulHObssZCJut416GNIuFzfEaX88ZajL1e/W9bLRLQNZbGc029mGkR76GXQu9VyS9U3r5bPHPyun20+P9KYNu31eZCPtwWapvRIkGTTIawkFZOPVgjbf5y+3tAnOwdSNt86O8k45W1JqlgDWHjwjb+3OM8shR9+pD+mde+CimREwMw/Fl0w6HeT6vviug0EnDRm27udXbJFnX86Q+UcbZXNRjSEXW/cdM2UQgmwgHXIgH3tKUJ9x6LHlRbuGDuiauWC5Zx3oA7Hac65O1hTUmOWd/Ufyw8pmLl1hyMW2vLMmHSHIBW3O7ZvpAE62LS9uPCwzZqcLsKLtbEu0dkOGjeXG0g6zrIJXdNEe6mDbgCfTvEL0Qz/PPfttIsOEko2GhgZDNFauXCmVlZVSXV1tzsbGxtC/mAfhAMvt6urfNGU3yHYqTHfJhRtnOYRunhtHGTiMaNP0dCx0VLDJLu/m2/r9XMMOOlDWg73jx4837UAabLCJDx0hbaMttn2ox3bbztHWRzl2PbQTZAIhDsqmLi+5LGPLQTnKpyw7zSYutj7Kt9uPNBz2PXAx6isSVoZ22e1HOdqF9HjKUDZC1LHvhZ2XStd+Bp3mnmZDNv46/6+VbHjc5EhkY/H+DvNGCqt4LaEMhmz827p6uWlRjTlx7eVYBpMGZ0WnGKq/ZIV5E+Rg+RWhM124ZmtI5yt9+xmw9wJOGvVsB4l4cWOPmSWY9ULQ4SLt5e3FZpbk0NF8gRON5nRdB824H7IBHdCFJQfXKcNZYyYje1uOgGBtO9ds2ow0OnUQBi5XkEy4ZCOvpttsBn32uZmmfWgnCAZmhiibtg+GbEBeWU2jIUIvLewnTRlvbjVpxRcaQvcFZd0T/dDPc89+m8gwoWQDSyWYwQDRmDVrlsyYMcOcmPoBucjIyDD5WE5paWnxbAecipcDhjOj46IjZZyC6Dzs+l4Owq2PMnYdymMYK5/l/IauHahv20vH6LbTJiBss00IXDledlE29PFwZXk5dbeMG6cs2OwSELbXthXlbMLhpRMybXnxlKFddvsgx253PGXYHtoQrZ/YZUfytZ9B53LPZdnQuEE+nf9pKW4P7qEZyW0bbtsikY2bZ10yG0JhT6QllHjIxlP72uTnW67I7W/Vm/P6lQ3yiazgiWumowzKuk4m3njllV7jFOlUEWIfQ2VtoyEEcKbH+l5ZZRk4fGy0xC98zlycON3/xgecNPQ3dQTMJkbWQwhZICLI90M2bOLw+2f7HXusdkIXfuTi9VXbDuxLKTpbKmg/ZEA+2gwCxXIgDNyzsXJDtikHPODXUIYzNJCBt09YDyGIBmX7JRsuliBDtQ1N5r5QB9qDNORFwwD90M9zn4znKKFkA3s0sGyCTaLnz583SyZYw7p48WKIbGzatEnKy8ulubnZsz1wKu6ATieFPByMu7+QEY/2yxOOx67jJY9ptnG2Pq98u6yfazo7Ol/bEbpymEf72U7KsJ0q0yjXlYU45dntiVbPxgA2UDbr2PohH3H3PnrZgTTIYnugZ6TObESyLVK7Rmq6n0HnSs8V2di0Uf4y/y+VbHjc0EhkI21KneQUdZoawQ98NQ3YrxEP2QCJ+NLiRvnUklpz/tEbrfLBVR3mxDXTUQZlozmcWHlwivaBPRW2E4PDtg+QCNTBngQ4X8hHyG+KkEwgHWXtw86DDuhiGkLqhvNv6Qrqof3Ix2HrZV60kHpsO7xkuOVoG8qSONhtgn2wE2kuhnZ5ty3U49VuyPLCknXYBuIUrd3Iw+Hnuaf8RIZJIRtXrlwxv0Rzc3MFZ0FBQRjZKCsrk0uXLnm2A87PdVJ0dHSMbtxTUF8iy9JJQwbTKA9F6XxZzv1VHis/mg3R8mynDHtcvXDEtIkO2XbOXs7eK821ge2xMWA9l0hQP9IjlRkK2bAxwL0ZyWTDnmFzMU2VuJ9Bp6W3RTY3bZZP5n9SyYbHDY5GNkAmYp2xnARmLkAoPrK5VT78Vrv80eu98tFFYk5cIw15KIOyseRp/uBnf1IZO3RdP8+9R1cfclJSyAb2aGCKadmyZebcvn37u0Y2bMdMtLzIBvMQ0hG7pIdlYuWzXDyhbYtrq51ny7LL0fnbzp5pKBfpYBuikQ0v8uPKZtzWD502gYhkA9Ptsl52oRxs4f2IpwzqoP0uBm7deMrQzkhEiPmpEvoZdFp7W2XLpS3yF8f+Qk61n0qVJg6bncNFNkAq3jM3IN86FJDJxcET10hD3mgkG9wcySWFSKG7TyOVScNgbccD4ee5T8YDlBSyEQgEDLnAPg2cPT09vsiG++sejga/rukYIzlhF6BojtCW59ZDPJZjiZXvJdMrjTZi1gLO1HbatoNlXTpLznKwvl0PZeFEWYZ17ZByiCnyKIsOGjJdGcSeZVjH1Q+5XvfRTaOtrjzGaTPiTKNOxr3KIA02kaCwjItpPGUi1WV6qoV+Bp223jZDNj5x7BNyqk3Jhnuvk0k2sAEU+zKwXIJZDJCL6QWd8vzJDnPiGmnIQxmUTeSm0cE6tuGqx2UJ9564cXspY7hsG2l6gImf597FMBHxpJANOLKFCxeaDaHYFLp58+a4yQadGZ0XnaJNDljGdpSRwIBDsh0O60IedXg5HNSjo42VH0l3vOmQD3tcR0xbaSfkwS6UZZvoeO0yKOdV1yYAxNXGkLLoxJFn4858pBEbprn6o8lnXdiJem67Xb223cQ0njK0ge1h3LaVadHKUCfq2bYzPdVCP4NOe2+7ZF/Klj/N+1MlGx43OllkA6+24q0TbAbFHg0snWBGA0SDjgzXSEMeyqAs6iT7tVjq1zB1lmTQdf089x5dfchJSSEbra2tkpeXJ0eOHDHnvn37zMbRDRs2yOHDh6WioiLiBlG0iI6EDhhxOFeEOOhIGY+GAp0hZLny6GBQH46EZRDSmVN2rHyWY0gnFo+NbI+XI0N92y7YDFvooNk+pLkHbWB91kE55tn2UVY0XKAH+cSHdbz0o5wtC3pZ3ssm23633badLBdPGbaT+lx7bCyilaHdXu2kPakS+hl0OgIdsq15m/zPvP8pRW1FqdLEYbMzRDbWiXxhcd+/mH+wWbBBNNZ+jWgbRJVspI4jTwXShQfCz3OfjAcooWRj//795lWowsJCsU+kL1myxBCNkpISqampifjqazIaqTLfHQRABkhK3h0LEqcVhHA0fkG0M9Apbze/LR8/+nElGx7dCQP4uBU98qWlPfK/XuqUtCeuSNrPGyVtcuzNodHIBhyYLqMo4UgUkUHXvarIBr6dgbdPnnzyybBz/vz5cvLkSSkqKgrNauD1WD2ufgQwk3A1zAZcLe3wO+h0Bbpke/N2+diRj0lhW+HV32F9thADeNornZL2QoekPX5F0n7WKGm318Z9xnImfBtlJG0Qfflwg3zttjvDZlw5K8jwE58ZI79dH/4VzlhtTZX8b/30UXlw0duh5SzE0W6EI7UNfp97n49BXMUTOrMRl0YtNKoQwDKG/V9fU7HxmKHxWuJKxbbAZj+/cAzZuLRd/vuR/65kw+OGG7LxfLukPXpF0v69UdJ+WOvrjOWcSDZG0quva4qa5M7Jd0clG1iyXb23cMQ631i4e+XbJGvZ5txQ2x5+bJrBAqFXvZGQ5ve59+jqQ05SsjFkCFWAIpBaCPghG92BbtnZvFM+evijSjY8brMhGz+sl7SJdZJ2W62kfc/fGcsRDedHvWLZwnz3LRDMXOKXvU3IvT6WxfqpGtokyyYb/GAZwpHaNnRdP8+9R1cfcpKSjSFDqAIUgdRCwM+g0xPokV2Xd8lHDn9ETradTK2GDoO1wPInr3bKL1Z2yn3r/J+xnNNwfa48lh3R8udkLDFkA7MdcMgoiyUULKXgnPCT/zD59tIKliG45ILQzkN9e2nirqczQ2Wv+7+3yuzcC2FOnWUpz2s5g/awDEJ7KQQ67ZkL1ybo/NuvjgvZgXzaQv2uXreNWHqCDmJJm9B2lIU82oc2s1wiQjwKfp77ZDw6gyYb+By5noqB9oHU6wN+Bp1e6ZXcy7nyh4f/UMmGxwgMLGdki8zZKzL7qMhT+f5Ov44Em0aT8Y/Y/Nphl/ciG1hCwVIKnSfC8RMmyI7iauNY7XRef+mm8SEiwaUJ5tnhN340OeS06ejtfFzbjh9O/dPX3RBmC8r89fU3hPaVeJEJlEE91F93vErGj58QJgNxpNNWexnFJki2bSAsJEteGNllXTJkY+73WsmGEhYlbNoHhr0P+CEbAQnI7su75UOHPqRkIwrZ+O1mkbs2B+QfswPyjzsk7tOv00B5vBY7kr6lEYts8HVz/h+PX/zmCeO0+To7X/2/YexYWbzjhPlFTwduv67P5ZoxN4yVeTkFhnDcfldw7whlIYTDvmXchJBT/93Li0waN6rbr8NnvrXL6HvkhYWmjP32HOyGrHsefML8j5jmljazVIQ06GF7aCvJBsjJZ8cEiRZ18tV51L39vseNTptsECPbNuA0mP7hVUfJhjqaYXc0OhORejMRib5nfsgGBqk9l/fINYeukRNtJzzc7ehOApbPbBX51RqRzy/skbSMbknLkrhPL8eQamnRyAbIwqGCU2FOk3sc8quuhL3VYm8qpQOfNm166J+85eYVmdkSlsPekamPBzdnwonjxF4KHCQCwJL/HA2hOxPCvRf3Tw3KWbRkaeifz9FO7sWItGeDtpJskNxgD0tJbYtpO2zN2bnb2EgiRLJhY4R/tPb4tCDJobxE9Adg4ve5T/STrcsoSniU8IyyPuB30Nl7Za+Z2ShoLRDMdOjRjwCwnLpJ5CdZIp+d2yNps7sl7SWJ++yXlLpXnHGwN4hytgKOFNf2wfIkCAztspxV4C9+1PeSac8EUA5C2xbOdtj5vEaePevAmQjbXl7b5VCPh2sr22fbjrK0n7MnjNvtRjlXHvUMNfT73A9Vn1s/JcnG22+/Lddee61hiew0drhy5UrfDhR1vvrVr5ovnyb6l6Qt79SpU/LDH/5QZs+e7ctGtHnq1KkD6iD9G9/4hqfdaBN0QadtA6+98vHlV8iDXJbT8OqaDfE76IBsfPjwhyW/JV96A+H/htwdUEZbHFg+uUXkZ2tFPoeZjVkdkjatTdKmdUnatO6Y59WAF52r7eAjOVKbHNAZe5X1crhe5Wz8bDIAf+ASCdpn20DSQH2JJBvURxuhC3Yp2SAiMUIOVO+mAzp06JCZTmNHsU1GZxkzZoxvZ7lt2zbzr81Pnz6dVCd78eJF84/p2tvb49YDsnD77bfL448/HlaH6fiQWl1dXVgeyAJwmDJlSlg671ukfMiBPOiLRFIoQ8PUJCF8hu3nJtr1viv7zNsox1qOCd5O0aMfAWCJDaK/3iDyhaV9nyt/6LKk/apV0n4R++yXlLpXfsiGF2FgffsXPp0/CQnQcet6kQabcECuVxk6fRISyKYNJAJ2GkmDK5t3zLWVdkI+5OKw67JNLGe3G2VdedQz1NDvcz9UfW79lJzZINkAQXAdHv69PTrHww8/PCDPLWvHh4ts2Dr9XIM0uGTjpZdeMmSitrY2rK2YNUFHx+lFNmLlQx7qrV+/PkyuH3u17MglIn4HHZCNjx75qBxtPSo9omTDHkQ9ycaDlyVtyiVJuyv2actK1Ws6ajpltCOSI7WdP8cohrbT9XK4XjKpmzIYUpbt5Jlnh/zBGs0ulnFlUYeXrUyzdeHaJjNe7QF2rIswkYff5z6RuiErKWTj6NFyefLJetmzp0zwv1AQIn748DsmXlpaGtGJeS1n4Fc4lk2QBycWjWxg5uCJJ56QyZMnh/0yx/IAlkl4890lEy+yQb2s8+tf/zqi3XSuKBOtHGYL7GUU2oVPutv2UQbyb7zxxgF2Q85dd90lixcvFrSZ+kkk8ICgs7pkI1Y+5EAe5N5xxx1hGFKHhiOXSMRzb/wOOvuv7Jf/dvS/yZGWI4KPfOnRj4A32Yj/H7H1S0rdKzr8eMgGWkkni3HVddicCfByuKzHOkSM+jlO2w4dZVwigbGRdWyH7pIJyCPRoC7a4GW7LQvlUZc2IbTxQT5lue3xajv1DyX0+9wPRZdX3aSQjQ0bKuWDHwzIggXlBtDMzAq55ppeWb36vJw5c0bOnTsXco7u4Ojl9F1y4cZtGXDCIBogHHTCIA3XXXedTJs2LYQBrm+66abQXgdXL+pcf/315h/IoRI6IuRG2wMBO7q6usxp2+RegwC89tprBgMs24wfP94seeB/x+BgJwW5wrIG/ucMOio6YW9vr0lDmXHjxsnx48fDsMTyDI4rV66YmRCXbMTKp62QC/nQwzQNU5tk8P75HXRANj529GNyqOWQ4PPlevQjoGSjHwu9GtkI+H3uE92apJKNV145Z5zh/PmlhmwsX14sJ06ckGj7IlynjwHSJRdunIMoQiwt3HDDDeYfvzEdSypw1s3NzSHHCSICJ//KK6+YNFcv62BZBnJQHv/JFrKHurzgRTbwX3GbmpqMLixjwF57Qyjq2Mso1pxajgAAIABJREFUmAmB/Zg5YjvdEOVdsmGXiZYPuZC/ZcuWiPJtWXqdOkTE76Bz4MoB+R9H/4ccvHJQ8F9g9ehHQMlGPxZ6NbIR8PvcJ7o1CScb8+fXyOc+1yHvfa/Itde2yhe/eFmuvbZN3vvegIwZ0yLPP19qnHYkJ+k6fTgxl1wwbk9R8RpkALMbdNxeMx2QiRkDzG5gKQJlbL1YuoCjdZcoQDhAAjIyMobkgL3Ixvbt28NkuuTCjT/22GOGSFRUVITVs51+NDKBctHyIRc6h9pW2x69HhmExO+gA7LxJ0f/RDDD0RHoSPQYlNLylGyk9O0bVcb7fe4TDU7Cycbq1RfkBz9okve/PyDjx1fL7be/IxMm1Jj4N79ZJa+9VmhmO86ePevpJG2nT+dEcoE8pDGOKX4eXHqwZwhYH05z0aJFA/TZztbWy6UNEhg35BII5fsNYQ9lUBfbRlkuuXDjtu2s44axysTKh06QGleuxkcGaRjsffA76GBG43/l/S/BRtGOXiUbHHMQKtmw0dDrkYyA3+c+0W1JONnAfow1a94xyyYzZxaY1yhnzz5h4hkZR2X//v2Sn58fcSnFdvocTEku6JDdOMphjwI3/XAjKetHcppwttzbYeslAeBmJRd0P6+t0gY7hD2pQja8SJrdFr1OPeLhd9AB2fhE3idk7+W90t4b3BPkPhOjNa5kY7Te+dRrt9/nPtEtTDjZOH26RLKyyuSaawLy+98Xyttv75dnnz0lH/hAr8yde1z27TskBQUFZqOol6OC08fuXJAS5mPfAGYXopENlOVrr7feemto4yeWPiK9nYKlEjpTm2xwCcH9Vc83R1wyQzvjDRNBNmA37Mem0kh6Y81cRMuHXMh3l3ci6dL01CEdfgcdbAz938f+t/kfKW29bYkeg1Janl8sU7qxanxKI/Bu99WEk4309Br55Cc7zZ6NP/3Tdvn0p1vkz/6sXd7zHpE///M2efrpUrNJNNIbKXDoIBvYAAkHhjjIQzxkg5s4Uf+hhx4KOeGTJ0+ajZ0PPPBAKA35cKaVlZUmzSYblIP9H3hVlI4UdUAU3O9aMD/eMBFkg2+L2KTM1R+NTKBstHzIxdsowN+Vq/HUIRZe98rvoAOy8X+O/R/zr+Zbe1tTesBNtPF+sUy0fpWnCMSLwLvdVxNONjZtqpDJkxvkD/4gIN/5TqX86ldn5bvfrTR7Nn74w3J5/fUCs2cDr8B6DYTY2Ll7d/Af1oBg4JVVfNES707HmtmAPNTHvg3UJVFAGjaEglwgHSdeY8UrpUhHPZtsUA42joJw2HWwXAMy4mU70mJ9ZwNl/JIN6AMGsAPfG8FruUiDHJIyL3uikQmUj5YPuZAfra1eOjVt5BMRv4PO4ZbD8sljn5Sdl3dKS29LvGPbqCjnF8tRAYo2ckQi8G731YSTjf49GwGZNeuE+U7D888Xmj0bmZl5cvDgwahkA84KDp1HIBAwcXxfAunIB3lgupdz47ck7L0VIBWQwaOnpyfMkUI2v2FBmdQTqQ7L2WGs72zAeUM3baNdbBtksQxkUTYxQbthF8rgbRm+TcNydoj6bjvjyQfJglwQHCUbI5882Pc0nmu/gw7Ixl/l/5XsaN6hZIODQV/oF0unukYVgWFD4N3uqwknG3ildd26cvNRrxdeKDLk4sUXTxuysWhRgRw5csR8AyPSMko8g6WWCTpA7FHB7MNQv/vh4gl5kDvU5SJXrsZHBnHxO+jgy6Gfyf+MvN38tlzp6f8hMGyj5AhW5BdLv03BJnW8bo+PCnod/Oql+/VKr7LR0viVTfsNv2jlmQf7vOogPZJNSI+0+Z7tcWUiHg0H2qNhZASS3Vcjaw7mJJxsqEMZPoeCWQd8aOx73/tewvZWYI8G5EGuzmoM370czufG76ADsnHt8Wsl51KOXO65HGtMGVX5frFMNDh0zpEce6L12fL4uW2XGCB94sSJ5jPhdnlcg2RgOTgS2UA7kO/KRN1oJMXVo/GBCLzbfVXJxvnUdihYUsFSCfeeDNVpQQ7kQe5QZWn9kdm3/A46R1uOynXHr5PsS9nS3NM8cBQbxSl+sUw0VCONbNAel0wwnfvf3HzOrDDfi2xEIzGJxvVqlPdu91UlGylONtShj0yHPpLvi99BB2RjTMEY2Xppq1zquXQ1jsODblM8WDY1Ncq6dStl8eKFMnfuXHnzzTfN5nR7D1kkA+CU7eUD12nff//9Jj/azAYduZcDp163DPXOmzcvtEHe/odhkEVigJD6QQiwER8hD9qMTf74hhFCm2xQN9p57Ngx8zail62UY9elDg1jIxBPX40tZfAlBk02Bq9SayoCisC7iYDfQSevJU/GFoyVLZe2KNlwblwsLC9cKJfdu1dIfv4k2bbtP2Xt2kfk9dcfkxdeeMF8a4ib2R2xoSidPhwtna1NPrjsQGcfqujzgg6fTh56bRLhpRuEAgSEdaDSttfLBOqJRBi8ZNpyYsm3y+p1OAKx+mp46cTHlGwkHlOVqAiMaAT8Djp5rXnyuROfk02XNklTT9OIbttwGxcLy7y8w7JgwSNSW/t9ycn5qRw4cI9s2/YD+frXvy5bt241m7C7u7sjmm07Vzh1e3YBlei8k0E23H/V7up3iQEJSTRbaO9gyQZscO2KCJ5mhCEQq6+GFU5CRMlGEkBVkYrASEbA76BzrPWYfOHEF2Rj00Zp7G4cyU0bdttiYYmP4z333MNSVPSYzJ//K9m+/Vuye/fn5POf/7z5vyqlpaXS2hr5Q2k22bCv2dB4HDzLRgtJAjhL4aUrFtmgjEhEAvpjlXEJjGsz8t1lGreMxr0RiNVXvWslLlXJRuKwVEmKQEog4HfQAdn4uxN/J281viUN3Q0p0cbhMjIWliAbM2Y8LIcP/0ZOnXpUysomyurV18rHP/5x850cfCogXrKBGQN7CYVtRHq02QSWixaSBKQC2XCXbqK1S/P6EYjVV/tLJucqJckG2a+9QYnXXqx6MFNvLrOHzlmzZvm6C65exGGnl42J+oXiy8CrrLCLd7Kah75gv9oXqT/CHvvAfWc/dafDef/dOnb9RF37HXTyW/Pl70/8vaxvXC/13fWJMuOqkBMLS3yl+ODBA/L//t93ZdOmX8kzz3xXJk78F9m4caPs3btX3nnnnbjJhjsmAUD2m9FENnRmY3CPTqy+Ojip8ddKKNnA2mNnZ6fgy5XJPDi4uwMz2flQHzzX9sE+0K7zQxzOxnU00DdYHa6toznu4p0MLHif7L4Xj144Cnut2Y3DVpfEJMN+yPQ76IBsfOnkl2Rd4zqp665LllkpKTcWlnjjBF/khYNcu/bnsnv3fTJ//t1y7733SnZ2tlRXV4d92dgFwSYY6Gfu2JGoMY9y2K9tvbTJ1e+Ow3w2oo2/1AP5Xocr0y0Tz7Pm1tF4EIFYfTXZOCWFbOBbDfgK5Zo1a0In4lVVVdLR0WG+4zCUhkXrkNHyBqsznofIS7b7YCDOX7budOhgdXjpHa1pLt7JwMFrEPZKs3V7DbC83+6gi4HaTbNlJeLa76BzvPW4/EPhP8iaxjVKNpwbEA+WGJO+8pWvyOrV90pm5iT55S//VdLT081/tgbZwA+0SIfdt9hn7LED/QVjSjQHH0m2nc4+imcIh62X5ZBnkx2vsdarHusjpJ5IfdxLpl0/lny7rF6HIxBPXw2vkdhYwsnGhQsXzPQgdlrjX8PzRHzHjh2CDVF43SvSO+ZeDsPtgG7chQQPnv1AesnkQ4oHFWX5vjoeaBzs1GgPfpGSJNi/TmkH8xDyYYUMVy/ieFj57rpdlgOJO2jYdtJW2sgHd+3atWE2og7zaJuti3jZsu1BhPluSJleslCWeLj5SLenPtlW2obQbjfzgRPsQj5lUgfret1n4MF8uy7bQ/l2GVs/2ollEt4nYsN67kCJum4adREXu/3MYx+DXB5op93HmJ7I0O+gA7Lx1aKvypsNb0ptV20iTUl5WfFgWVRUZPrxG29MGRLZAFjsg+y7HLfs/uuCGuu5RXm3TKS+yWeBOqAXtvA5dJ91lmNIPZGeFz7ffN5ZDyHbHqmuXVavByIQT18dWCtxKQklGw0NDYZorFy50vzrdrB2nPgfHlhaycjIMIQDX6eMtNTiNdi6HdCNu3CgM9oDtisTDwgfDtR1Hxik2Q8bO7n9QHvZgDr2w+jqRZz5kGXb6KXDtZMPKu1gnDJpNx5+N82Os822ftiGeggHe3i1gTYRb68yxJKDCMu4NnvZaGPEfOryaidlE0OUcfUTVxsflnNJA8ty8Gdo44hrVxZxcdMpz66Psok8/A46Ba0FcmPRjbKqYZXUdNUk0pSUlxUPltgEetttt8lzz/1QVq26WxYu/IVZRsF/b8b/H4r0wysVweHzxWc5kW3Ac2rvlUqk7NEgK56+mkwcEko2sFSCGYzKykqzmXLGjBmCMysrK0Q2kI/lFGyc8jq8BmY6Aw7AbtyV48qw46gbyWHYTioW2bDzqd+1y9aLMojTgbIsnR4fUsYjOR3bubIM60AH5doPO9Og3y7DuEnsI102Bkz3E0Kv7UDZLtoDW1z8WYbtcOPUj3yWYZod2vgy3avtsfQTV9pMWW7bkE75tl2wwyZuiNuYRJPHtru6WScRod9BB2TjpqKb5I2GN6S6qzoRJlw1MuLBEp//b25ulptuukk+9alPyT333GN+lJ08edKMhdHeRklFoPBMJIMU4BlL5nORilj7sTmevupHnt+yCSUb2KOBZROsQeJzzVgywYl/6MWZjU2bNkl5ebl5+LyM9RqYOaAjD4cbd+W4Muy4l8NAfXRk29GiHON0ALZDsXWiLH/RRnMysINkA/VZD+nRdND5UQftYjrk8GAaZPJw8UJ5L+dn48S6fkNXl9tmWx7Lsl3El1h4tctOs2Xh2st+6rDxYD3mufq9MEQdt49Qjldol/WyC3Ui3QfUJRZesoea5nfQOdF6Qm4tulWyGrLkYtfFoaq/qur7xfKqanyUxqBvJ7IP4xniuBdFrWZFQeDd7qtJIRtXrlwxA39ubq7gLCgoCCMbZWVlcumS9/9Y8BqY6RToMNy4i687iNsy3TzWtZ0D0lCOnZvOz354aAMdFXQwjXbaeiETcZtsUC4cf0VFhdFn68A15dMW2046RdjKg2m0AemuXShPuW7oRUIoO56QbWI7bHtRn/nUi3ymsQ7jsdrl2uPijXy37ZQdTb8XhpDltsXVb8dhO7H0sgtl7TJ2XT967HrxXvsddE60nZDxp8bLivoVUtVVFa+aUVHOL5ajAhRt5IhE4N3uq0khG9ijgaWTZcuWmXP79u3DSjYwWNNx4a7bg328AzzK0cHTQdkyvRyC69hsvbTDJhtIYx1sRoQ+6mA6ZNiHrZdOEbbyYJpdz5UVCQPKGGpI+V7/dAl2uRi4+DLu1S47zbXTxRv5btvj0e+FIWTZ2Lu63TgxgCzY4C7doDzKsI/Z9aGH/cBOT9S130HnZNtJ+Xrx12VZ/TKp6lSyYd8Hv1jadfVaERhOBN7tvpoUshEIBAy5wNIJTqxZ2ssosWY2XGcEB4FfoghxuA7EvmFeebYT8hr46Vzsgd92BHR+dACMu44PcdtOWy9sRNxtG9JZD3Wpw62Lcq6djNt2MA31ebiYRLPDxoD1/YbUh7a47YWtrg67PHR54cs04uNlkxdmlE084tHvhSH0oS5nK6g/Epawk7ZSnn2f2B47LVLbqStRod9BB2Tjn4r/SV6ve10qOysTZcZVIQdYjuT/8Ku26X+FRh/A4fe5T/QDmhSygcF14cKF5u0TvIGyefPmuMkGnQMHYQ7UthNnGToQgsKyHOSZ7joh5NsOD3Hb0aMe9LMMHYMtF9e246FNkEPbXb2RHBPl2zZQHmXBJtpJvWyvXYZpNjaUZadFst8uQ/z8hnZ7iCFlQL59L73KMs1uF+q7dZGGMsQD+bymPrftrgzqgk201QtDyIMsd4aC9VmXNnmRLDvNtpu2Ioyk2y4z1Gu/g05hW6H8S/G/yJK6JXKh88JQ1V9V9ZVsqDNPBUKHhw59tfHYMWkuKpL2i8O/9yopZAO7q/Py8uTIkSPm3Ldvn9k4umHDBjl8+LDZn4Dd2ZEOOgQ4AAzQdCIIcdCBIN89XQeF8qyPgZwHHTfq45on8yHHdiC0iQ6DTob6bTshC4erF3HWpx6GlM+6rE/5tBN2UQYdk91mpkEeD+JlpyEPumz5bj7rM/SSzTw3hE2QbdvGMsyjbsRhC4kCsfWqy7awLutANuy340hjebttsfRHamcku5hOm3h/2F6Gtt5IZbzawPqJCgdDNr55+puyuG6xVHRWJMqMq0KOkg0lG6lENo7+8pdy/JFHpHThQrly7pz0RvmPw4l+QBNKNvBPh3JycqSwsDDsRPqSJUsM0cA75zU1NRFffU10A+ORR2fh5dziqa9lRg8C6CM2CU10y0G6kt0P/ZKNorYi+faZb8ui2kVS3lme6CantDwlG0o2UolsLE9LE5xr/uRP5MDtt5sZjkBv77A8gwklG/h2Bt4+efLJJ8PO+fPnC94px5f08NYFZjWifaI3mS3HL0f8ArV/6eI60i/NZNqislMPARJTu/8kqhWYhUnG9wlc+/ySjVNtp+S7Z74rr9W9JmWdZa64UR1PRbIxe/Zs+eEPf2j+ZwtmoL/61a8KPsTox2lCht86rvxE68ZH0r7xjW+YWXVX169//WuBzW464175aB9xYrlUDfGQoq+SbKx4//tl9cc+Jrnf/KY0HDo0LM9wQsnGsFicACX2dDaIhxKNBIA6ikQkgxQkk8S4t2YwZON7Z74nC2oXSFmHkg0bz1QkG6+99ppMmTLFOF68MYZ9SNu2bYvoiF0HC6d+ww03+KrjykAc/0MLX0/FpxK88r3SIunGP7u7/fbbzY9dyLXrgmRgnEe77XReR8qHXU888YS89NJLnvVYPxVC9Fn01Tc+9KF+wvHe98qbf/zHcuall4ZlD8eoJBv2YKHXisBoQ2AwZOP7Z74vGbUZ8k7HO6MNrqjtHY1k49ChQ+YHmh+CkiiHHEk3CAEIFD7/Tl0gIJiZ4F4ql2zEyocczMjjU/OYhaHcVAzRidFXN113XYhscJZj/6RJ8s7y5VJ/4MCAs7m4OGr/95OpZMMPWlpWEbgKEPBLNorbi2Xi2Ynyau2rcr4j+BrdVQBDQpqQTLKBX9xY4rAdnZtGh4l0OkEsCdDBInSXAmLNbHB5gzLs+lhaYDpC6KJeN0RetHzq4XIMQrQXy+62DjvfTqdsYHDXXXfJ4sWLzdeqYQfSJk2aZGZt+L0fm2zEymdb8PVrkJhXXnklYjtZdiSH6Ozoq7nf/vYAsrHlb/9WDt55pxQ8/njYmf/QQ3L6hRekrbJSAj09Q35eBk02RjKwaptu2tI+ELkP+CUbp9tPy4/O/Ujm1cyT0o7SIQ86V5OAeMjGvn0VcscdzZKdXS7nzp0zIeJ79rwj2DCPf+ng1V+PHz8u48aNM/+KHvl0qlj2xaZ7pGEfHJZB8OFExOGAJ0+ebL5VA5zxZhXyH3jggZCOaGQDBAD/w2XatGmh24SlhBtvvNGQHiwt2G944ftJXrYjjd9ZipTvLuFgpgRk4s477wzZjw3Tt956a1Td2D8FnIAXdYEk4PtOWKYBxsDAJhux8m05IDEgM8Cf6akW4mYasvHNbw4gG5vHjDGbRU9Mny72CQKy+1//VYpmzJCuKG+PhjpKjAslG+cjD8qp1qHUXr2X8fSBwZCNSecmydyauVLSURJjSBld2fGQjQ0bKuWDHwxIRsY7hhwsWFAu11zTK6tWlRjHffbsWU8nRieJX/q4r3SqcJz4H1RI27hxo3Gk+FAiiALysEkfzhT52L8A4gACQmcZjWzgFzxksD5k4Bpp/HUfaSkDZf2cXmQDRApvM1I/ljGQhnZCtpdu4AP7gJeXfuqxyYZdLlY+iBzkg9jZ9VLpGk8l+urGz3xmANnAbEf5m29Ke3V12Fmxdq0ce/BBJRupdKPVVn+DkOKVXLwGQzb+7dy/ycvVL0tJu5INm07FIhv795fL00/Xywc+EJD/+I8LkpFxTu67r0r+y38JyKOPlktOzilDArxmN0gUHnvsMePkQDBAHHBOnTrVpCFEHGVxcsMllyi47MANoXi2IpENzpxQHp9D1w4vh8+yfkI6ee79QIjv5NikwdXlxqEP+KB9eNPRSz/1DJZsAEt7hslLx0hPI9lY+V//a4hsrHjf+2Tdn/2ZnJ07V9qqBv4bgpqdO82yis5s+GTRI70zqH3JdbCKbz++fsnGmfYz8pOSn8hL1S/JufZztq8d9dexyMYzz9TJRz7SI+95j8iHP9wtH/1olwkR/8M/7JbHHiuTEydOmOUVrz66c+dO86saDg/EAnGcmKlAGkLEWRfLKDbBwFtOWIqIh2xABsqxvhs+/vjjRo+Xw6d+PyFJgE02MIOAdMpxdblxlINddvtYlyH1DJZsUCdnkyg3lUKSDW4KXfmhD8mmMWPkxGOPyeUzZzyfYyUbDsnghiV7E1MyOgE2YHGjUjLkx5IJ/cluYzQbMNDhtbNoZQaTlyy5g7FltNTxSzbOtp+VO0vulBerXxRc69GPQCyyUVhYIgsXYtkkINOmFcq6dftk+vQi+cAHemX27OOyc+dByc/PD3Owdj/kr+odO3bIfffdZwgG07CXAL+4EUcdvhbKb8BgzwKWI1xnHGlmAzLgtEFOvA7uz6DzJUmw7fVzTRJAOQhHKtmAXcTZTxtHSlncT/TV9X/xF/LWX/6lvH3jjVL49NPSFeG/r6P8iCYb2Px05swZibQGmQzg4azuv/9+8973+vXrE+4MYTMfYj4UyWhHLJn2ABGrbKLzQbLwXj0GmUTKTpbcRNp4NcoaDNmYXDJZ0qvTBbMcevQjEItsYExcs+YdQzZmzTph9l08/3yh2bORmZknBw8eNBsbMW569TWQBRCAX/7yl4ZsIM69HN/73vdMHvc34Jc3liGwf4Oy4CDhKO1f/vZYYjt8yMFmUHt/B+RgeQU/dPjGy0gjG4sWLYq6p4JtHOzMBnAFhvbyDvFNlRA9Fn31dHq6nF+8WOoPHuzvxBGuUoJsgKnj38vj41k8Ecf/RcGNT9RNIwnAP3rDJ6RBPJJx8xP1cA3FNnuAGIqcwdQFycImrUSTjWTJHUwbR1Mdv2QDSyd3l94tL1x8QfBmih79CMQiG8uXV8k//uNlef/7A/IP/9Ag3/3uRfnKVxrlfe8LyM0318n8+cVmGSXSDzQQAMxgYEkDRABx7qFAmv26J4gFnlNu5ESffuihh0xdOEtucLTHEjpi/pCCfJS1317BNyyQVllZacbXRI2Hrm7YAD1I5/Po6nLjKOe+tcO6DKlnsGQD/0wUZC3SnhDqGckheiz6akddnXQ2NkpPa2t/J45wNeLJBgjFpk2bzG5pMEL7xMzD3r17zQ5srw1RuFn4teu+Ww5Sce211w5YxsAuZDD58vJy89Cho9pTXZCFeqhvdwRXB+Xba5QoQ3vsdL7bjTx7fRRl3GUO/BJAJ0U68u26tj3Q/5WvfGWAnXYZe4BgOuTbtvGXB/L5a+Spp54K6feyEWXRVsoBXqhD3KLpcPOIGWQyz06jHuQxn3oRZ7s07N9fkQwsBkM27im9R2ZfnC345oYe/Qj4IRtf/nK9fOc7lYIQZOOmm2pl7txTUlBQEHU2GG9D4Dmx92bg1zyIhf26Z1NTk+zevTv0LKMOllDwgw9l+bqsPZbQEZNsgMjgw1gYS/lsYqkGachDf4QebCJFvjvm2f0V412kMQ/lXN3xkA0v3SBIGGf51o5tg61nMGSDm2ZtUufKT4U4eqzf535Ekw10fBANOBWw4OrqanM2NjaG/sX86tWro04bxtPhcHPZCbhzGrrxQPEVKZTBdCLIiNsJMQPCenD0119/vXlIOYTg4RwzZoxx/pHeK8dDhOlGbMDCEel9djyQ6Kg4uObpdk48QNhFjtDNY9weIJAG/VjawDvvOBAibjttPIDQj1fh7DL253dxr9BWyuFgBSzxK6K9vd1M/SKOMohDP/S4+iGH+lEOa7933HGHuVcggXhfHmnIiySX7dUweYTD76CDmY2fnv+pzKqaJcVtSjbMw9T3JxbZCF9GKTDjzOzZJ80yyoIFeXLgwIGo4yGeA4xBOBDyucDzEwgEBowZLEsbMea4ZRHnfg4QCL7BQtlMowzkk2iwDOTioBym2yHKRBrzUI562C6Eri6MiWgny6Ceq5uzP5G+hUE9aLdtH6+j5WP/yw9+8IPQrA7rpFqIe+X3uR/RZANLJZjJANGYNWuWzJgxw5xZWVkhsoFrrFNySs+9afGSDXQCODuyfXQ4LKXQuUEuOhFIhd0JuYbJeiAiqGd/5pbEBW2BHHfqjjLieZ8dZIfTj25b/cRtsgGChLaDGJCgIMR/1rU3jIFswLnzQUUZGw8QNuCFepSDsqhDsgEbcU/sONoPPXY9L/2ckgW5wXQufi0hje125TJdw+QRDWDrd9DBtzV+fv7nMrNqpuCfsunRj0AssoEl43Xrys13Nl54ociMfS++eNqQjUWLCuTIkSPmk9ggJdrvB9/v8YMW412i9+09/PDD5scifEkq35+rjmxgRgAOGv/RFTcGSyU44WDARrH2tXz5ctm3b59Zp/S6efGSDXQCmyRAB5w/nDCICGWDVNhp/GgNN1HZLB+/yjl1iBC2QI5LNsiE4ZjheLHsw3ro8NRNgpCItT7KgmxgDOcP3dSFkCSJszuwBdOtdhl7ZzoJG78+yHLAzCYXLimAfORDH+tQP0gIp2uBEwgJscH9sR9aV64tS68HP/DGws4v2cBXQ3/5zi/l2apnBf9uXo9+BGKRjVj3QvMT088x/uNjYNg0646Lg8UYs76YvQaRGayMkVLvqiUbcMJwZHAuOLEmSbKB2Q/s20Ca142Ih2ygM9lrinR0GgPfAAAgAElEQVRmDO1lE3spxV16gX53vwbsxnIBnGkksoF6WMagPjj1WO+ze7XVT5pNNmAXZkzcjbYuKYJdqGfrscmGW57lXBLgFWfb3dAmKZCHWR3YahPDSHqYrmFiBuBIOA6GbPxH2X/I7yt/L4Vthf2eVq/MLFEknDU9uf3YxRezq1jWsX/QuGX8xOHHoi0T+ZH1bpe9askGmCCWS0AscOKXcyLJBn9Zc5+BPeZhCcBeNkHH49JBTk5O2NILOgBnSLj3Ah3MdcJunMsYICY42CFtRw7ZNkEYamezZdH5cwaBsmGnvUk2mWQDpMILf3cdmbvhQUrsvSKwme2A3WyDhskfoP2SDfzztfvK7pNnKp+Rk20n7cdt1F/rzEby+6uOCUPHGA+q3+d+RO/Z4DIKHA7IBU84Yz9kA47MdqRYNoCzgnNCx8MGT/xSttf/2SGxBICy9todl1Lwrjp+ZXMJBTMdmCZzdxpjZsTW55IN2GPLgW7OtsDB0xabIDBtsKEtC7qAEeyw5cFukA3OeMQiG8APOGJ5y5YDfO0ZCpcURNKPaUf7TSLEgSNIGfoGlrNA1KjLlct0DYc+uETD0O+gA7Jxf9n98lTlU0o2HHplsMSnnvVUDEZyH7hayQbezFi4cKFxYnBk+A5GvGSDjoxLIYjjLQY6f84quASBgyuXTexvbjANMvgWCsrD2eLddXtTJeWjLJ2wSzZoo5/32WnfYEObbHCjJ9+YgUzajT0SnEaMh2xwnwtJAAmCvUzjkgJuBrX18z5RPzefcoMqZrtAbG6//XbzdgpsduUOFhut54+c+CUb73S8Iw+WPShPVj4pJ9pOOO52dEeVbCjRSgmiebWSjdbWVvNLHzutcWJDKH6FY3Pohg0bzKwF/h+Al5OAI+Prl3D41113ndn3AecH5wQSgl/d7uZEyuKyib2cwDTIwywHyyJsbm42u5iRh5OvwUIf/wESnTvy8V45SIptI9Jjvc9u63Sv4ej9fmcD5M3efAkbYJP9elcssgE7sGxktwXEbu3atWaGhB/XwZs6IArQwffmocfVjzj146NAmMnAf22EHmCGDVxI4weDvOS62GjcH5GIB6/BkI3flP9Gfnfhd1LQWjC62YXTeiUbSjaUbDgPRYRoQv/FPPZS4DsbcCr2iWn0efPmGaKxa9cuQ0AivfqKwRIOkAffsea74HBm7r4Ad4CFI3bf10YaDsi2y8MJYpmHh60PdViW9bk/w7YRdZHv2oY4y1OOVwgyA3sReuUjzUsW0uzDbhvbhTK2TNjp2mS3BXZkZmYaAsa3aCiL7aQ8V7+tC3rc+4T2IQ15kBFJLuVrmHiiAUz9ko2yzjKZWjFVpl+YLsdbj9tdbtRfK9lQsqFkI75hIKFkAwQDv4qffPLJsHPOnDmydetWwQZN7MXAmyiR/heAOpjkOBgvXLH0gT0WnK1AGaRhWSnSMpWXHE0bvnuWCKwHQzYerXhUnqh4QvJb8+MbWUZJqeEgG7OeeEKKd+82eyLqCwtlwo03yp5160J7JJa++GIo3lZaKndPmiRISwknOMh9Dmg/cAAeyWwncJx+//2eOpAeCWekYyYY59jPfjZ0/2xb4ymDdlIOQvu+817babb8sOurbRklEQOhyhg+x4XlJcwwYWnD7tD2cojej+G7H8OFtV+yUd5ZLo9XPG5OJRvhLCrZZAOOZCy+FJyXF3R4TU0igYAI/rdFVZVxYsjfk5Nj4m0XLsjdU6bI0tde83SQYQ5okI5+JMhAe7HUXV9SkrR2guBN/P73pb66eoAOEgUvnJE3Ydw481Vp9JalS5bIhFtvDSNG8ZQx9976ujNWCMYi3kc8pb5eigsLZeJtt4XJ9rw/SjauvoF8uBxGovRwacMeQu3lkETpUTkjp68PhmxgCeWxisfkWOsxu6uM+utoZKO7vFw6y8qkq7x8gLPydAgezh9OFXvUQmTDKYN05CvZSOxyjpk1uOMOQxQEBK8Pd84m8MeZSzbMzNO4cWH12pqazJ63pfPnGznxlDF67rxTpk+bhrX/oP7WVhOfPnVqyB7koQxl084BoZKNkTMAqzPUezFa+oBfslHRWSG/q/ydYCklrzVv1BMMG4B4yEbNyZOyfOFCWbJgQehEvCIvT9rPn5eeiop+52GRCf56Djm2F180v2C5jIJfvsxDiGl9r5kNLr2wLJZZ4MwGOCRLN349j//a1/p/RVt5qId8LA+4U/huPZajboR2Hdg28VvfknkzZgxYcnDr2nZzZmPt66+HYWDLtu30q7/4wAEZP26cFBcUhHAyBODHP5YJff+ZFjMrLtko7vvWkV0PMxBLFy+Wu++6y+AeT5n6M2eMnj27doX0oz2IQz9w4/0zaZhJsdKYFwpTmWzYD5xeKwKKQOogMBiygW9sPFLxiBxtOZo6DR0GS2ORjZJDhyR7/XrBf8Pm23kIzX/HXr1aivbskdaSEum9cCHkPEIOoqMj7J8gSkeHWTaAkzMzGa2toa8dmw8MdncPIBuGaNxyS/AXch8e0594QibcfHN054Rf01iu4a9qh2y09b2hNv3RR8PsXpqRYX7FI9+QhTFjZA+m/fsOfG/HXgrAMgicZ2jZoU8niZRdF3bf/eMfG4eN9oNAGAfe988w8Zq9vVwxFP12O0L3o74eX3A0uNT3/ZNPl2zs6fu6M/JD9aqqDCkxJOHMGYmnTIiQ5OeHyUG7zUzXoUOh9PqKCrOktGfLllCardtcK9lgF9RQEVAEhgsBv2TjQucF8/XQhyselv/P3ptA2VFd58LkeYid2HnOtPKy1p+XLGe950dAwsaxQxxDwExxYpZnG5MoGKHBduzYxgbLmEkYYSyDhCUEQmgWkhAymtCEJDTP89Sa57GlbqnVarW61dP+13e6v6vdW6furbp979Xt7lNr3XuqzrCnM+yvzjlVtf7C+kKJ2S74pAMbe9eskaUtG+M12MDmeDyRhff4vDttmnP6tYcOeR1Fyrm07NlwzplgAzMMGZZRML3u9jaofQfYg+Duylum9a9wTAZYeNNb7tb1Xba78+/Rw93Fu7t5Ag846RaauON3yz7z57s46oN9DXq5AiAG4IF7U1z5+vpmZ19e7sCWc7q4m2+hj/0LjnaL000BhoT8qQfADWlTfoYpuc3eGNSXs7fZSwJQwvg4eVCveH2DXT6z7QHyXGx5OePrI0em7Ew5U2EAG+1iPAlCBgt0KAtkAzb6H+8vfY70CWDDtIR0YGPqxInu/UJnzpxx7xjCxmv88FQewcbcyZPl2MaNUrV3r9dRWOdCJ4d4OJJ0YCPlNLHur/Yd4Bzr/E8/8YSXZ8pBZQAdKeDQ4tyX4wON2MzKpYfa2hQ4sEtClD+lz6JFKVncbMxdd8nrY8ak4qxMKO+ct5pBsLbATJCbiQAwUk+HuKWcFvt5+bcsYaTjz3JXzGxQrgKCDQAiAKO09RnAhum54TJYIFgg7xZICjaOXzouz594Xn525Gey7sK6vMvXnhjEARt4dw1edMhfbW1tCmzMnjRJDq9bJ+d27fI61jaBjZYnU/R+BX3u7twzAArr5PW1XUrBbARe/od45LN7LrDUw49cXgE2Wpw/ytGRL1cARPPFeQpsKKduwUZb+VsgoWWgjDaPTy6Uy+fMBui7JaaePaP34gSw0bZhBdNsuvM4xNrycTRNGeuEbk1TRxbxOT4Kh04LuZMceE08bMKPyrEs4u+9917vh9PQ+ZGGPL4DdnMDSMu6KPJQvvZkU59unTUuG7Ax4OQA932UtVVrO6vZvHrHARt4Uy7eNTRw4ED3e+uttwoKNtxyhE96LEu0AWy4pZKxY5s3TC5f7kJshOTSA56aaDV2YI+JWfah0yb4gDyMS7cs4HPqlnab+ZslEm2rlIwmz67Nm5uXP9SeCpQD2HC2OHlS4uThnhDs79B8U3qrGR2ku5mNNMs+qP6k/b5oPsTma7uFiqOza9WQRVKoWTvpFJL2gJBCyVsoPhhUrE3AG/HaJpQHAANTkW460gM2aDsfzUwghTxCWHwWSDronKg7IS+Wvig/PfxTWVO1pvgUuooSxQEbly5dkiNHjsihQ4fc79SpUwUBG5xe723ueN3ySo5e/MWlFDh2t4eiZQnF8ejZM7V/gw4T+yjcTaFdxlAzG9yDkG5ZIOV0I2Y28s0/CmwQJEBP6szlLAKxOHlSNjAbcN1eFrMsltI1zbITukjSfh/ARguocJtnMPVoDjhV7TzpMDvDXbgPbEBvbQ+aC/GcFfKlw45M94EN0IkCMeQRwuK0QNJBB2BjUOkg95n51VWri1OpqyRVHLCB7y/hu074PhR+2CzKPRv5XEaBs3ObQe+6S57u0yfl/F4fOrT58cm2zGq0lOVSCsYKN060LKEQ6LinTFoeyXTLGi0vEOSsBZ22ntlA2eVLlzaDEvOmVL41NBPYaCt/96iqAWkED86ueIrG8+gr9sNgs6vbu9Ly8q0r7B0nj8cGeELH0TWPuKYek02z7ITukbTftwuwgfY2dKjIoUON7psfCHFdWtp8je9jRB0+52gBA/I4FO0BG5qudqjoDHCOPLQzRZq988c1Og++6UKn6+NJ2ZhH8yAvG5K2Xe5gPs7cUCbOQOBV8GjglhfzM17LCXmsTLQL6ONnwQbiQAv5UDYKbCDdlqUOISxeCyQddE7WnZSXSl+SHx/+sQSw0bpeswEb+PDiurVr5a0JE2TFrFlydP16qdy9OwUGtFO7WF7u+h/6I96jcYVzbnmpE9LxHooz+/a1foNoRYWUl5U5cMHxwQGAsrLWm0YN8AAwSPeejZSMLU+lgDbv3Jl28fz5lOxIxyOveJQVYwZnLa7Qh3Lwsd4uXVLjnZY7I9jAUxpt4I8ZG/eejdWrvfVCue2eDad7ba0DHLS3Awg7d7a2d5w81dVuDCYdhO5RYPM4Mh55deNwxPtanEwdFWzgKa0/+AORmTMvuQ+IzZpV565XraoVTCnqD5+17rrijGsdGB06nBsOOl8Ynw7Z0uG1LYt4OFDtkJlH06LDpaOmQ9eO15bz5aEcSULSoTzUV8tMwECbUC8tH8vpPFYO8LD21nnSgY049DWtcF4cFsgGbLx86mX50eEfyaqqVcWhRJFIkQ5sLJk5U+bPmZNaPuEyyob16+W1IUNkzZw5sm/VKindskUu7NvndWq4Q3dPVEBf7LEwryt3jgTxOPAOiMrK5hBPYtBxs0xzrub3Z+inU5hPhxnes5GijTLghUPzRLyWHel8zTpC7hehbC2vX29FlzI0U28tN/KDjtaD+UmrDfw5Y6OXQ1rJRrmtzrQhbUK9DUBwtOLkgS76oG7kg/0ajz/e6o2lreRkvo4ONt56q1LOnj0r06ZdkA9+sEkWLTrnPumO3dhRBxyjdX506tpp0tFp1GfLgYcta68ph3W69hr5wF87fJ8jjqJPPnHCKLBB8AEazEMwhDgrj5XXx9unp85naeo0yqDl0unhvDgtkBRslNaVytBTQ+W/D/23rKxaWZxKXSWp0oENAIilM2e2+iglPlI5bMgQ2b5okexYskSObtjgZjXwWnOvk6CzCGFh7cPvjuDbKGbZopjqCTNQ937zm1KeqX10RLAxbZrITTeJvOc9Il271sutt9bJDTc0yP/4HyKf/GS9jB9f5T7zjsfBfEdcsKHLoowGHdoBW+cf5YBtPjhQPUsAfroswY51tLlwwJYGeYE/D+bRulpgkAlIgFamPJYm+TNEupaB8SEsXgtkAzZeO/WafP/g92XF+RXFq9hVkCwd2CgmpxRkyeLbKVVVbsbg6UcfLSzQyQQcWtLdxtDu3d3+llYzPL7yHRFsrF7dKD16NMj73ifypS+dlx/+8Kx8+ctV8t73Nsm3vlUps2eXyblz59wGKd/YAIdqZygsEPCVYxwcn559sGV99FHW5osLNjTI0ecWhFC+OCGBBGkUO9iwoCyOjiHP1bNAUrBxqu6UDD89XP7r4H/J8vOXAe/V06B4OAewkYUT9znDYo3DLDyXfIpNRi4TeZZWrgCXHRFsYD/G6tWX3B6NMWNOyIEDB2TcuFK3jPL228fk2LFjbmklainFBwYsEEg31Ni89hr0NRghLeTTT7jEBRsEBKSTi7C9gY0ws5GLWi8cjWzAxsjTI+V7B78XwIappgA2OjjYKDaAka08HRFs1NY2yJIldfLBD4qMGHFKdu06IqNGlckHPtAkU6aclKNHT7qZDWwU9R0+MIA4zBogxAHnFnU3bUGDBRv2mjIANOgZlUxgg4DAOlrfLAR5xA1Jm0DGR5N5NH9rF58trQxWb5tuaep0ykA5dVo4L14LJAUbp+tOy+iy0fKdA9+RZecvf1SreDUsnGSwZWf5WnDQs/1+GRs9Imm/L/pHXydObJL/+3+b3B6Nv/7rernuukvyN39T767/9m/rZNiwSrdJtJ47qM24QDBAB0ZHq8EG82hHSzKI0/HMS6CCfEjXsxvMQ57Ig3MLaKzz9pUDbVuOssUNrROnDbQOzKN1tbx95awM0FODLJtuaer0OPR1/nBeHBZIOuicrj8t48rGSe8DvWXp+aXFoUSRSBHARvt1wJ0JPKG7JO33RQ82Nm9ulJ/8pF7e/36Rbt3OyVNPlcl//melvO99TdK7d4W8++5pqaioiNyzAaPAqXL/A0ABruEQfc6W+RjqPByP4DCRrkEAnCzLILTl4oAN0CfgIC3Ng/xt6KOt8xBIIB8On1NnHg02tCzUB+k6j+aDc/DIFmyAR7qylle4Lg4LJB10yurL5PWy16Xn/p6ypHJJcShRJFIEsBHARnsALeguSft90YMN7NlYs6Z5z8bYsSfdM+bjx59yezZmzjwux48fd2AjahmlSMaQDiNGPgEBQAwBUYcxWCdQJOmgA7AxoXyC9DjQQxZXLu4EFoqvYgAbAWwEsBGvv1wTL9vlXJkGKjzSunZtvdsgOmFCmQMXkyaddWBj7txTgo8SVVVVSdQyymVO4SxXFsgHKMAsSroPuOVK9kAn9xbI1Ictx/L6cplUPkkePPCgLKpcZJM79XUhwMZjjz0meOtoe3BqO3fulPvuu899cC6JvNAPetoyiL/nnntk48aNV6RNnjzZ8QJPWw7XDz300BVygA7otRd7+vTKJg6dNGm/L/qZjU498hSp8liGifrqazYicwmHSzXZ0Ahlrp4Fkg46ABuTz0yWB/Y/EMCGqbZ8gw041K5du8ratWu9DjUbx5PPMidPnnRviK6pqYktL8DCAw88IE8++WSrMoxfunSplJWVtUoDWOjSpYv06tWrVTx1wxd2sbQ9atSoVumgA3rgFwVSSKMjhWi2Sft9ABums4fLYIFggWQWSDronKk/I2+deUu+vf/bsrByYTJmHTx3vsEGPuCGfWvtBWxk66ABGizYGDJkiAMTmA3XdAkkACYs2ACAwMwK99BZsAE6oIdyM2bMaEVX8+ho5+iGSft9ABsdfPAK6gUL5NsCSQcdgI0pZ6bIf+77T3m38t18i9eu6OcTbGinCueJaywNwJnqu3IsDdxyyy0unefDhg1zcXS6KGsdqKWPWRSbx16DP342ntd09uQHmpAN8lAWhOQFeW+99dZUGvIiDnR69OghY8eOFcyWkD5lxqwqloc12ECZbt26ufcl7d69221e94EN0APd7t27t7IjeXTEEJ0qab8vGrDRESsk6BQ2e3WGNpB00Dlbf1amn50u3fZ1kwWVC9oVGMi3sHHAxsqVR6V790qZN++I7Nu3z4W4Xr78kOzfv9+9+NDX7rAUAafKx/RxvXjxYresgniWmTVrlsuzZcsWgZPFywnh0LFcgAP7q7AUQwCAcjhHHNKYB8sSOg/p67Curs49Sajj7DkAAJ08ZmYgy4MPPui+5wReAAl33HGHAxVY1rhw4YJ7UhDx2POHOOh35513CnTS9GEDHNj3h5kQDTa4hAMasCvsQDk0DZyDLuhrO9o8HekaNkva7wPYOBgcYkfqBEGXwrfnpIMOwMbbFW/Lf+z7D5l/br4b7MNfswXigA08hYcPUQ4ffkh27NghI0YckQ98oFF+97v9ztnv3bu3lUPVfcIuoxw+fNjdsWOmgPmwsRKP3MPZEmzAccMhIw9eNTBu3DjnXDFrgB8cLeKQ5stD2tmEFmwALJWUlKRmKLZv3+7AEUAS6aOMXkaBfgALAA3MY0MLNnQ67RAFNghG5s6dG0lf02vv5wFsBODQKRp6e++oHU3+pGCjoqFCZlXMkvv23ifzzs0LOENZIBPYWLXqiPzqV+Xy+7/fJD/+8TEZPnyf/OQnJ+T972+Sxx8/IgsW7HRT+fisg6+dWbCBu/6+ffu6JQYsGwA4wClzuYFOFjMgmh7v5FetWiV6JiQqj45Pem7BBt7Fo0ED9p8AgEA30rZg44knnnCzFkePHk3lYV6GbQEboAuew4cPj6RPPh0hDGAjgI1O0dA7QmftSDpkAzbmnJsj9+69N4ANBTQ4gKdrG889VyZ/9EcN8nu/J/KhD9XLRz5S50Jcf/jD9fLEE4dl27ZtbnnFR8eCDeTBzACXACxwINjQjhxl4OBRBiHS9P4JfZ6LzagWbAAMQS7qFwdspAMSpJMuD+0QNbMBGpAToIb0OnLItmqab9rLsIxy8KB7Rvraa6/1dhhuMGLD4QYl3AEwLoTJpu5hO9iVm7ryZT/7TD35cjBEnfuej4dczINQy8kNazouX/K3F7pJwca5hnPyzrl35Jt7v+nCtCNUJ0vMNLNRUrJfRo/GskmT9O1bItOnr5Snn94hv//7jTJw4BZZvHiNbN68uZUz1u3IBzawXAJHiaUGvYSCcnSyFmxguYBAgjS5X0NXWVNTU2ppRcuR5Lw9gY0xY8Z0Cr+AOk7a74sabGDz0549eyTdGmSSRhuVl8gYm3vsgSnG2267zU0vojw6lkXWUXRDvB+ERA1gubQXQAGefecz9QAaqEfUJw+sMV9//fWtAAdABDa2ceBEm8A1QQkGZqwXf+1rX0u1iVzK3R5pJR10ADawV+Mbe78hc8/NZXWEsGUAT9cGMCZOnXrIgY0BA7a5DYkvvlji9myMHLlR1qxZ4zYrYtz00SEwwJjHdLRpLJt8/etfl2984xupJRSks6/aF2RhuYD7OtC3ADzsfgX0JXuzRp5JwlyADYAAjNvY4xLFuy0zG6AL+gsXLoykH8W3Pcajsybt9+0CbACpT5gwwb3KGq+zxg/X69atc51Br99lU3EEGxa9gxY6IhoRNx8FsOEHEEnszgHMZ+8kdNLltc/Uo/5Qj6hPljt79qwbMB999FEXB4CCx9cASLjRDZvicM08KIu0p556Sl555ZUULdLsjGHSQaeyodI98vq1PV8TLKeE47IFYMt0bWjixBPy+c+fl/e+t0k++9kz8pWvnJSbbz4r73lPk3zuc2UybNgut4wSdYPmAxvghz0YeJoEP/3EBvuqnuED8EY+AHn0J24Y1aAcAARPiADQY19IOp0ypeUCbOg9JlH82gI2sHcFy0rQO4p+R4rvkGADgGL27NkONQM56x9eorJixQp3Fxq1IcqHrtFZMIXOqfB0YIOdjRt/CDZwJxA11c5GhefHo/KgUQL1Y+oSIfP5njnns+DMQ7nJx4akHZWPSwGWF+P142pWB/1MPvM/++yzzp6QjzwpA2XWdzi06RtvvJFWd9InDYRaZqZb/oi3z9QDNPAxONoLAyVAAwYZxPHuxG6GwzWAih5IENeZBhfazBdmAzbwmvKv7vmqzK6YfdnThjN3t+izMeM02PinfyqXL3/5uCAE2LjtttMydOhO2bp1a+RsMF5AhRkJ25fQFxDP2QryY18dMGCAAw/si8uWLUs9nYK8eIQUwILpCHGNeNLyhejPuk/78iQFG9AFQAgycKkUcaCjn7qxvNoCNkAX9MHH0u2I1x0ObACNAmjAgeGDa6Wlpe6HO1I8nw0AMGXKlIzThnAU6DSsdAsu7DXzIQRixRQhp8cANtCIo57zRhk6QfDFq71xYDoe5eiM2YlxNwAn58sDWtk8v447CThWPqqm9cE5OgTAknWgkBEOlHc2GAR69uyZep4duqDMI488krIlOhjucqAzDvAEmLvuuuvcYOMiRdw5l6Pi6A56eKEOwAAP3/P9Pv5WD6s/rwEeoA/XWaPuTng3iHSWxSODKMsZL8Z3xjAp2DjfcN597fXLu78cwAYbd0uYaWaj9TLKVoHTHzhwu1tGGTFio6xevTrteIi+j49b4sAYyvZKoM2nUBjPvjp69Gg3plBc39jCd1YwTyagAR6Z3rNBeUnLd9OAmRXsDdEy4RwH94xwzMNNCMYW6qdDyALbIK+OxznHVMqh00EPdDnTo9M66jlsm7TfF/UyCpZKMJMBoAFk3b9/f/ebNGlSCmzgHOuU6Cy+iuVMRDZgA40I6/541ArOBfTpeNI9540ZFzhgyMQpRDR+PKvOt8yxEwP9c8qedx1cH4UzhPPXeThl2da7agAKgCjtLDU6pyPWHQi6YEkBAIQdFs5eLzvARqCDOySAQtYJOilnFuLoTsCAnfKkgUEAdPWO7yj+AAKZltewDAIbEFwBdMKuCMkTIetcx3e2R920Pex50kEHYGPZ+WXypd1fco/A0jmFsHkAt/bV12jT06cfce/Z+O1vd7ix76WXdjuwMWbMVlm/fr17ugSgRJfLdM5lRoy1Oi/7arqnMHT+Yj7HeITxItevFQc90LWvQS9mW7RVtg4HNrA3A2ADn4+HcbBUgh+cDmc2Jk6cKCtXrnTrlD4DJgEbmHmwPzQivJGOoAH0Mj3njRkXmweyYeodIASOlJ2YMyaUHfw4rY8BQDtD5oFzhFPUd9pMixvScVtgwzsbInmAJAAPvdQDGckH55wZQBxRPmYkfHcIyBNHd4AqgBOEXPZi3dA+oGX5Iy7OM/WYYQI9DeSSgA3oBh018AHvzvhLCjaqGqpkRdUK+eLuL8rMipkBYygLZAX0DOUAACAASURBVJrZyHX7Yt/iDCvHOfJhX+0IYAN9NtebuzE2YrO4vvmk7Tpy2GHBBhweHDTusvHDmiTBBmY/sG8Dcb7KTQI2wMMedlotDj10TDhB+wIZlAV4gFNjJ0aclhvl6EyRRgdrQ9LRZZOco+PppRQfsMEyCvlCLnydFbMzOCcvnNuBCHEagDAvwzi6A7ToDyBh9oRfh6V9QM/HH+laRvJlSKABMKunRZOADdACHz3LQ/qdLUwMNhqrZFXVKrln1z3uTaK2z3Xm60KDDYB5LDVwucG2Xd506H5i87Sna+iLMd2Cqmx1AB3QA91sabTHcuijSft9US+jcGYD019YLgGwwA+zAfkAG9bx+xoB8mCKHg6T6XBScP4sD+eLPHZpB+mc8YjjcJEfdPkYph6EowYHyhQn1Esp9vl63PFwFgZ8CbqsI/c5e8Slu+OPozuXoqg76hs6gXZbwEYU0ABtTFGj3jCbpu2n603HQ450Mzg6b0c+TzroXGi8IGsurJEv7PqCzDg7QzfrTn9eaLDRkdtl0C1/M63oqEn7fbsAG3CscDb8wfElARtw2HrJAc4Ed+wEBxYspGukKJMJbAAMWZ6gCYcOZ4kZjzgOF1N0oGOdHxymfrojnbzp0jC7gT0Q2EcCnbiEgjLgqfeqII77OKAD6eJcz2xweSHdHX8c3fVz/OSFmScAoExgI+qZ+nRAAzy4D4NLS+SLa8ys6LshzLxAx3QzOCzf0cOkgw7AxroL6+Rfd/2r+yBbp0cYygBJbamKhtNggYJaIGlbbRdgA09BYDc0HBB+c+bMiQ026LD5yBOu8fx3PsEGN3refvvtqccl6ei44TKOw8XUHPYU5Ov5dS6lwBYANdwoCedIu+l3SfTp08fZTc/aWLCBstjUCVCAd13Q0UJ/PoYWR3cANsjFzVxw7tisizgNZHz8fXtaMFMDO9qlE8qHEPZA/YAH5EUcQuiiN6oinrv37Z4bTa+znCcddKobq2XDhQ3y+V2fD2DDuAfYMvyCDdpLGzDNN+1luwAb1dXVzvlhpzV+2BCKO29sDp05c6abtcD3AHyDOxw2Hg+DA8EPj2TCoeCuPV8zG3BamH3B3TD5wtFhSQD7TyBnHIeLfFgrBeAgHYS4TreGCqCAmQ86TJ9dGMelFPt8vbUb+GJGAc5az9r4nD3KYhYAm1gpN/QHYEBaHN1hJ/BieYSYecGekUxgB/aHXASY0BUv5dK09Ll+dwj3B+l0tB/ITZsh5O59PqWk0zrbeTZgY9OFTXL3rrtl2tlpaQeokBgsECzQMSxQ1GADAzres4GdvvqH6fRXX33VAY0lS5Y4AGL3R+gBHw6EB5ZkcK3fQwFHwnhdznfOsnpKPao8lnp42D0WKK9lAC+CFJTTvAEs9JEOaKCcj7amp88pO/dk6DRtN/CHXOBNXSivTx7KQLlZJko+0tK6+/RGOh+hZRnLH/EAJvqZepSLOqzuVm9ca7vgHEsrAH26Hdg8neU6Kdi42HhRtlZvlbt23iVTz06NqpYQHywQLNCBLFDUYAMAY9q0adKvX79Wv8GDB8s777wjCxYscLMaeBIl6lsAnWXAD3q23gyVr2fqYWcsyeAbEvadBJ21DrIBG9svbpc7dt4hU85M6UDDaVAlWCBYIMoCRQ02OuvgHfRuDRyysQdmNwBWc/3BNO4dwVJcmNVorqekYKOmsUZKLpbI7Ttul7fOvBU1NoX4YIFggQ5kgQA2OumLmLJx4O2tDJaIsESSS1DApRvf0kp7s0+u5M0GbOyq2SWf2/G5ADY6kDMJqgQLpLNAABsBbFyxHyFXTijQafsMTXuwYVKwUdtUK3tq9sitO26V3535XbrxKaQFCwQLdBALFA3Y6CD2DGoEC3Q6C2QDNvbV7pN/3vHPMvnM5E5nr6BwsEBntEAAG52x1oPOwQI5tEBSsHGp6ZLsr90vN5fcLG+eeTOHkgRSwQLBAsVqgQA2irVmglzBAu3EAtmAjUO1h+SfSv5JJpVPaidaBjGDBYIF2mKBADbaYr1QNlggWCDxNxLqmurkSO0R+UzJZwLYCO0nWKCTWCCADRH3Zk+8FVO/NVKf422jeGV6vg+8MRNv8sTXTfmFU8S110Prk08dwAdvFuWBa11/OLd1SPsyH+1OGqjve++91/sRPOYJYbMFks5sAGwcu3RM/nH7P8ob5W8EMwYLBAt0AgsUNdior6+XS5cuuTdX5rMu8BpxgA3fJ+bzyTcdbTrDADbSWakZKAIUaDAI4KHBh6VA2zKPvWZ+tAcLQpgWwssWSAo26pvq5UTdCfmH7f8gE8snXiYUzoIFggU6rAXaBdjAexLwQa6pU6emfrg+ceKE1NbWuncptKWGAthoi/Wiy+Z7ZoMgQQMyX5yVECAC4JKfr0c6zvHNFR1HWsUEQq0uxXCdDdgorSuVT2/7tEwon1AMKgQZggWCBfJsgaIHG8eOHZMVK1a415Pj42v84XXlixYtkgMHDrjvdeB7Gb4DjsJOoVtwYa99dBhHB4pvs3AKno4LaYzz3RFDFqYjZDlLG06Ojk47UuZj6HOQTEPoc6qM1zah/lo27WBxDn0efvhhJ7/WTeuM8lpenCOvz1ZWTs3b2iWKv0//OMsflAs25hFlb19elglhswWSgo2GpgY5XXdaPrXtUwFshEYULNBJLFDUYOPMmTMOaODrpfgORWlpqfvhuxf4sBY+Nw/AgTdFRn1oC45KO1bUK50rHaq9Tlf3cD5wjJyCh3MDfV8c84AeeFkninQtm3ZsUc4vnWw2jbKBrj7Al7L5dEd+LStk1/qRlpXf8rO2ok4arMSxSxR/bS/KxLwavGgbI5/Wn+UoG+3CeB+gYVoImy2QDdgory+XT27/pIwvHx/MGCwQLNAJLFDUYANLJZjBANAYMGCA9O/f3/0mTZqUAhtIx3LKhQsXvNUF52OdjXWwvNYOSp9rB2QdMZhap8s47VR9Ds46Wu086fwQ15YDfLUcBATgjUPzJB/ag3msnMhn6bCsDkHb2t7SimMXWwY8aB+U1wd4ou4oO9KQR8vh4xlFL46emn9nPE8KNhqlUc42nJUbt90or5e1rX13RnsHnYMF2qMFihpsYI8Glk2wSRSvbcaSCX74PgVnNvAJ+iNHjkhlZaXX/nA62tEgk3Wm9tpLqCXS50B9DhsOTTt5TRNpBDN6BkHTofNDXFsO66h98pM+0iiXdtg+G1q6pKFDrQ/j05WLsouPP0FAHPvYvEnARq7qgfp3xDAbsHGu4Zx8fNvHZVzZuI5okqBTsECwgLFAuwAb+OgVHA6+tIkfPimvwcbhw4fl3LlzRrXmS5+jsuDCXnsJtUT6nLXPqVqwATnoyAkwEMdzkNd0cuXktKMlTcjGg7pTNsjEOJzjQGgBmy+ONBlqfRiHclpnXJM34315LH+tF2lHhVbvbMCGtlkUn84anxRsNEmTnG84LzdsvUHGlo3trGYLegcLdCoLtAuwgT0aWDqZMGGC+y1cuLBdgQ3r7NjCrFPVzpllENfWg8Bn06ZNztGDLw+mgR+PuGCD4IDlbKj1YZrWmTpaR67zoByucwk2fHJRFmvvqHjqE0JJ/FIvgI0LDRek69auMqZsTDBhsECwQCewQLsAG01NTQ5cYDYDP3w2PMnMhnWKcF56mcA613T1DmdkHZ/PeWknzrtw8NUH8mjZNJ1cOjk6bzxNomWP4gE5tH18zj6OzbQ+1JuyoHxcu/j4U3YLVLTdydPy0TIwD+Sxj74izZZl/hBetkDSmQ2UrGmskeu3Xh/AxmUzhrNggQ5tgXYBNjDgjx492j19gidQ5syZExts0CnC8eGg89DOlHnghDIdoKMdNvL7nKp2enSMeg8HeHH5gHw1HZah3JnkSpeudfY5Z60PbQHZyBvy6TzkBVo6njKTh9aHZUCLAIv5M9klir+PPuWn7D4eNo7XlJuyIgQ9HwjReTr7ebZgo8vWLjL69GjBTEc4ggWCBTq2BdoF2KiurpaNGzfK+vXr3W/lypVu4+jMmTNl3bp1cvTo0cgNoqg+OCs6djg6Oi+EOOigmMcXMi+cmHawKO9zenBc2olqhw/6oAGakIeOUdOhA2SaE9T8JXGEkAd8qQdJkQ911vah80UZqzPLQz6WRcgySNf6MD91huw44tglin+U/rY+dT1QDqu3Lw/y+nQgjRA2WyBbsHHDthsc2Ghs8r8jJ9g3WCBYoONYoKjBxqpVq2TBggVSUlLS6of4cePGOaCxf/9+OXXqVOSjrx2nqoIm1gIEDOkAmS2T5Jr0LUBLQqMz5M0WbHxi2ydk1OlRgpd8hSNYIFigY1ugqMEG3p2Bp0/69evX6jds2DDZvn277NixIzWrgcdjw9H5LIBZDPttlFxZASAjasYjVzw6Ap1swcaNW2+UkadHCj7MFo5ggWCBjm2BogYbHdv0QbtcWQAzG3r5Jhd0sbwTvvoaz5LZgo2/3/b3MvLUSLnUGG4U4lk65AoWaL8WCGCj/dZdkDxYoCgskC3Y+PT2T8uI0yOktrG2KPQIQgQLBAvkzwIBbOTPtoFysECnsEA2YAMA46btNzmwgcdgwxEsECzQsS1QNGADryMPv2CD0AbaXxvIFmx8puQzMvz0cLnYePmFcpmGW/AKv2CD0AaKow1k6q86PYCNAHICyAttoE1tIFuw8dmSz8prp1+TC43+jyjqgYrn4NV/nsiIzSLj9yT/zT1RJ+EXbBDaQNvbQNJ+H8BGcDRtcjRhJqL9zUTkus6SDjoADlhGuaXkFnnt1GtS1VBFLJExJNh4cYnIs6tFHt2Q7BecTNudTLBhsCHaQNJ+H8BGABsBbIQ20KY2kHTQIdi4dcetMuzUMKls8H+x2Yc8CDaemCXyjemN8vczGuXv35HYvzXnGyT8gg1CG2h7G0ja7wPYOHhQ3n33Xbn22mtbvQmTb8UcOHBgVgMxyt1yyy3uzae5vpP00Zs8ebLTAbr40qPiICfKRqWH+DBzkakNJB10CDY+t+NzDmzgc/NxD/DqN1fk+1NEPjGyQa55tV6ueV1i//aKSPgFG4Q20PY2kLTfB7Bx8KCsXbv2iq+hYvDDuxbuvPNOeeihhxI741GjRrlvauzevTtx2UyDuy99/vz5Tgfo4kv3xQGYdO3aVVDWlx7iAtCI0waSDjoEG7fvuN2BjYqGirhYw03dPjZb5NuTRP5uaINcM6BOrhnYFPuX1MksPNMo355RKwiTli10/nFTp8ryAwdiy1lSUyOvjBwpv1uwwJWZt3mzDBw8WDZXVLhrxCMd+aALaINHNnqNmjRJnnvuuVY/8MuGFuRKWlbrkklvyJTUllaPN1o+kXHz3XfLuvLylJ6Mx83sC6+/nopH+R+1fFLCxlvavEY+0Lm3d2/ZdvGi4wN+iAMf5osbgn+Sckn7fVGDjVHvnJHHXr+Q9jdj2THZs2eP4LXlcQZGXx6CDet0y8rK3FtK4ZCT3v23B7ARpbfPRiEuAI+oNpB00CHYuHPHnfLqqVflbMPZRGDjuXdEfjRD5JPjADZq5JrHLsg1j12Sax6ry/jb1SgS9zdm/0X597fL5bZxp12I67hlC53vnU2b5YUXXpAtBw7ElnHfxRoZMXKkzJm/wJVZtXmzDB48WHafrXDX1U0i9SJypElka3WNDBs5UiZOmhSbPmyAcgAs4FNTc/kR5wMHDsjzL7wgk1t4x7XX0v0HnJ6QNW4Z5IOOkAE6W73PNYng6zwnmprbRja2tLKs27nL3fzhW1PLdu5KyTps3OVvST3Yu7dsvtDcplafLpc7W4DCgmXLU/ktXX09soVWz969ZU/1RSkpK5e7WmjMjUkD9CDDN3v1diAlSbmk/b6owcZ3Xzknf/fjS2l/v554WLZt2yZRMwgACXY5g8smBBDpnG5FRYX07dtXunfvLjt37kwBGnwYDnS53GJ5EGz88pe/jMzjG7wh28033+yWdnzpjIPs5I0loEGDBl0xs0E9mQ8hddblEa9nb2w5nUb+IQzgg20g6aBDsHH3zrtl6Kmhcqb+TCKwgadRHpop8vevt4CNPuflmu9fkGu+l/m3uaZJon5zShtl4KZL8uSqSnl8VaV8ZV6F/M3kM6kfrhGPdORD/ihahY5f0QI2Nu49EFumHZUXU2AD8oIGwEbJ6bNX0GBegI0kuq3Yc8CNTXsPHJB9ly7bvrReZP6CBTJo8GBZWXolvyge0A+gCrJG5fHFE2xAD+qCOF/ebGxp6ewsLXcfr8TYOmPJcsdnzdlq6d7i1BEPYLD+RJlLW7R9ZwqcrCnZ5ZXL8hiuwMb2c9Wy+WRZCmzMXtrM05bxXaMsAAtkSlIuab8varDR7dd75aO9j8knHqm64vfxh8/L//fAAfnF0A1uGQQfa+Pgp0PMVuAT4RqMWHBhr3V5nI8ZM8bRwLdYcA1nfN111zkQwlESgOS2225L7dEA2EDl9ezZU/BBLxw2j+WDa4CbxsZGF/rSEUegwA+EAQRh9gUoGrogD2S8/vrrZdmyZRTRfcG0S5cuLq2qqir1tVvQqaura1UOH7rDAdmhw3333dcKbEXJFuI7HwhJOuigXdU21crnd31eXjn1ipTVl6XaaKYT8NJgo6S8+fP0C3bWyzU9zrpftxEX5HxNc/zwZbWpeKSn2xj4yvYaufuNc3Lt+DL52PjT8peTKuWDv6tN/XCNeKQjH/Knoxc3bU7JPvnNCy+klhgGDBoki4+Wt6I9bMIbqXQsR7w0fIQsL7vg8rw+e16rNFyTty4HHuDFtC1nqh3YmD1vvotbvmGzc/5bSs+k6ILPgv3HZeCgwSkePvlI04ZLNjTPuKzbcyDFl3kqG5qkoUlkf01jKs3aArpOW73JpSPUSzHQjbSsDViG6dARMxvQ2eqNvNTJ0olrS/JhCJ2e6tv8pe2fPdnXyTl78w7pesMNbpyGT4J/eHPh0mbdFi1z1/gW0/5z1S5u2LylLg758Ps/XbrKmxtKUjq/NnaciwdQ2FR+QTYcP50CGzMXL0vlm3folNx0ezM/0Ply916y9FSVS0faZ++4nIZ05EU8dYkKk/b7ogYbr742St58622prm264neu6pI8P/BlGTV6nKxYsUK2bt2aN7CxcOHCVoDl0UcfdR/oqqysTPE8efKky/PKK6+4OIANOH+AIKTBCds82ThmAAvMsuBbIAAMoAGAAnCgwQY+VoeGe/r06ZSMW7ZscXnmzp3r4nwgi7qdPXs2JTN0AJiZMWNGilY2socyHROIJB10CDb+bde/ObBxuu50JoyRSrdgo6LlTee19U3yuecr5Joep2Xx7ssfdsM54vhbeqZeon6/Wndeuow+KR+ZfUE+NPOi/NHkOvnjMZL64RrxSEc+5I+iFTd+xpa9bjlh8+bNKR3fmDRJXhk+QhaeqHL0h77+hgwfcXkZAv0dMwIjJrzh0ivqmgTlcceP5Qlcgz/KDRo02I0PII48cNaTV2x06RvKLjgHPGvefHe9dP0mR3fD8XJ3jXi39FBRLRcu1sjIkSNl0qRJDiDsutDQXCaNPSHDnlNn3GwJ+I6ZOS9tGZ8t8NVvLLcg7WRto9MPekKX6oZmPUEXeaA7Di7RaH7UBTqn0ztbW/rqe2QLGHiwV2+Zf/y8vPVuM3jo+/TTMrZlVmLIqHHOJo880dcBhyf7Pi1bzzfIkNlLWgENAo5/vuMumbm31JUZNqYFbPTqLetOVcnqI6dSYGPGoqUuz+trSuT/del6Ba3P3N5MR5chD8y4IN6nk45L2u+LGmwMHz5cpk+fnuqEP/vZz2Ts2LHuGnfiWDoYPXp03sGGnh2Bs8ed/lNPPZUCEXCi2N+BmYsePXq4GQCADTh7Ag2d54knnsjaaWN2Bah48eLFrWgAEGmwgfXRhoYGxx9PnLAhIeTeFAs2sDQE2rCxlhvn0AX1EQBDxwQMbanXpIMOOjBmNu7ZfY8DG6fqTqX6eKYTCzYWH8VquwjmMcauqnGgogKbDUSkoVGk24jzKaABwDHneF3k76mVlXL9qGaw8d4xDXLjnCb53t7LP1wjHmAD+ZA/Hb04afNXb3IgYe3O/SlaVfVNUtPQJGvL62X6rtMOMKzbtNldg+aWsw0CQAIAMvPAeVdu0dpmOitKmum8uW6vo7tx82aXH+WOVjc6sPDq8OZyK45XNdN4Z36KBkDMqkPl7nrmO/NdOvIx74Q3JqXkjKMfZC07W5ECHJyZeP7FQU43TeOt2fMdoNl/pjrFY8vu5mUT2Al5oR/ABvTFNezz20GDZf78BbLvfKOLQ4hrxCMd+Xy6IA5poKX1zsaWoGN/s1pmK+68626Zv6dUfvp4M6AYPmacrN7avGxyf4/eMmn7Senes3kZY/6SZY4O83L2Gl+3xviOmZHpa0tcnqGjmsFGj169Zdmx87Jk32WwMWXBUpfnR79o5omPVfLAjSr8wLOvjnVt43z1RTe+Iw786psk1WasTvo6ab9vF2ADzu6ZZ56Rj370o87Jw2iFBBtwsnopplevXm5pxQ7QTz75pCAN8QAbPNf5kAc/HZfkfNWqVa7RETCwLIGCXkbRj/OiEbHBsqwFG1hq4vSeBic8h07kF8IAOtgGkg466L8AG1/c/UV5ufRlKa0r5TiYMbRgo9ucOmlsxhZyoKzBgQt9zRkNhjOOXBLf78fvVsg/vFUufzKlSt47qkFuXtQkP9/RIOMO16V+uEY80pEP+VHORy9uXMnxy3f+w6a+cwWtjWfq3eB/+EKj/G7HKYGTpsMG2Fh6tMqVWdgCNpZt3+euJ8+e17z/4viZVjRXY6lk0GB5d3+ZKwsab8+dn6IBp7v8YJm7Rjx5gA/OATbi6sZ81AGVy9kV6vDSmIkpemU1jQ5krTxdL7AF8yCEfqAH/QA2eP32io3uevPu/Sk6yIdr3IzO37LXxft0idI7G1tSVx1uPnLa7dsAQBg5e4ncftfdbuxetWWHrDnYDAy6dm1OAyABmFi0aYeT93xdc6PeXXZB/uXfe6ZuFpFn7voSl+cVBTYWHTkvi/aWpmY23lqwVMZvOeF4cvy2YZ8n+jo6KAvAgnSU0zqkO0/a79sF2Ni7d6984QtfkD/90z+9KmADMxGYtcDsBQZYgAjf7ARABGc8fGCDsyJtARt46ubuu+9OzU5wwMfSiJ7Z4HII94tgycWCC3tNsKFRsB79MVtCfiEMYINtIOmggzYFsPGl3V+SIaVD5MSlE7qZpT23YANPo1RcbB6YsZSyaj+en+BMB/ZrXF5Cwfnk/bVX/H62sEY+P6FMPjqhTD40o0Z+b2iTfGFVk/x6X32rvLhGPNKRD/lRDuV9dOPErT1VL1XVzUsU2rmOWLA+RXPQ6Ikpx8unOrCcAef/7sHzLt+ClhmSJVv3uesZc+enymi6OAegWLKvzJUFDeSFrKDBNFwjnjzAB+fjJ05KyRVHP5vnwPmGVP1CBwCHMSt3O5oI+z9/ee8KgAmWRJAHsoEW9NPXiLf68Rr5tD2sLlF6Z2NLqyeulx0+Lz1bnHivH/7UzUr06t1bNp6oEtQ793T0++0rLg3LFyv3nXJ6/veA5j1/FiBgjJ+1tsTleXlk88zGgz17y7wDlTJ/V6ncdVfzo6+T5y1tdW3p4PqBnr1lfEmFKwsaiEM5ny6+uKT9vl2ADbZOvPMCzhxHkpkNVBBmBDg4wjHDsFF3+MyHEBstsV+ByxaYZYEMWEoBeGBezixgMyniADYwS8BNpYjjEgjzsGyS8OjRow7sPPbYYyneKI/ZF4INghq7HIJ9HOn0Jm0LpPjkDZ9kSSJvyNvxQUnSQQf9F2DjK7u/IkNODpHjl46zi2cMfWBj8f5mBwbIUVV7GXhwD4cGHGN31oj9/WT+Rbl7fJl8dPxlsPFvq5rkmd31rfLiGvEpsIGNouPLBOUtzSTX8w5fkmrMXYu4x0OxN+L551+Q15bsdj/sR4DjxYF8yA+nD+c5e2+l4z1vVfMyyrub97rr6XPmu5kN7O+wR12jyPITda4saCAv5AUNgI0Fu0+naJAH+OAcfJPoli7vtpYlkpnLNzqaw19/wy2j8BHZvRUNAn0AGiAbaNlr6s39GlpXzHBtKWuuQ+hodYnSmzST2NKnJ+ppZMu+Coy7+D3+VF9Xf8g/t2WZhWnYr4F6eXnVcbm1ZdMmljxwcFYaY/z0VSXOFkNGXAYbb+8+J7NKsG+w5T0bc5e2uuZyjLYP2xLKEmy8MXdp7PpN2u87PNiAo0QFwdHC8eH6jjvuSOt06SCR9/bbb3ezGtyMibTt27c7APLII4+kHH6fPn0cuDh+/HgKbKAR3X///SlQYvOQT5IQYGfp0uaNRnT+BEQEGwREAGfQAfSZBzJx74Wd2UA5bgbVb06F3JjN0ZtNk8gc8nZswJF00MGAd6npknxtz9fkpdKX5NilY3oMTHvuAxvdJl10+zN0QSypaJDB89e2XhTfr8esM3Ljm5eXUf5pYZP8cFO9vLi9NvXDNeK5jIL8KOejl23crAO1cvz0WQcU3l62UfDD46gbDpWn+AxdfdLtR4DznLHrnIt/Z2Uz2Ji/ca+7XrKm+Xramj2pcpDpxTfmym9eHi7DNpx1ZUFj2pz5KRoAG3N2nHLXiCcP8ME5wEYS3V4YMTHFz5aDrFjqWLp1n5PntREjZc68+QIbMO+EGc1P2kA/xKEMwAevURbXsBPLIHxp1jrpP3CQwFa49ukSpXc2ttS89fm0+a2fKAHAYPqctSXONxFsDBs1zqWNXbQt9dTK2q07XdwzL49xPgtj/JQVJS5u8PDLYGPqjgqZvuVECmxMmLNUFh25JAAwoP/Nb/eSl9edcb9//vqDLq7Hr0Y6OihLsPGbV8e6OMqYLkza79sV2Jg2bZqsWbPGjSlxZzaA7PH4JysUj6zCWeulCDpd5tEhnvIAL+0wQRNLKnp/A2Y6Lly4kFpqwcwGNlXi6RTSs3k0TZ4DFGR6zwaAD5Aq6eIRWZWTCgAAIABJREFU16FDh6ZmNkALT8oAIOg8sAP05swF9MDyEPLw0VbEYWYEszksC7nBE2CEcoawYwOIJPWbdNBBBwbY+MbebziwcfTSUY0T0p77wMY1P6uUA2XNG0VRGHMEY1dduYQCwJFu8PzhvAq5duTlDaIfn9UkPXdd/uGaG0SRD/nT0YuTBqf469+8IC8v3JWiNXrqO26GAQCDzhRxpPfKmOZlFey9mLq1GRhYB7nrbIPbDDrgt5cdLnhglmTths3OoRNARDldn4NOCjY4ezFk9MSU/NTjtXFvuI2uG0/VO3mwH+TFQYNTAIHyYllk8sx5rrwFGyiLzaC/ef6yDQEwBv52kMybv8A5XPDz6RKldza2TOlkwKwGFBh7V+9rri/kX3X4vGBZheMsgAniF2E5pOXlXExjmARsgBbACsqwPEPIsv1wc3/QYAPpf/WxLvLLGZuvrC+jW9J+X/RgY8SIEW4KEdOI+rdhwwb59a9/7TZqrly5MvLRVwyacJQ8mpqa3DXeZcHZCjhYxPuOqH0KABugwYNPfnCQ5tMgtbUtz+Zhd3zL0yHM4wshS6b3bPh0Ah/ogPJIBzAAPx5abw2ecI5Dy2btodN8Moe4zg08kg46aG8AG9/c+00ZXDpYDl86zGaaMYwCG2NX1TqQAQL6MVjOaDCMcgqI12DDPfr6Zp18ZIykfn/05uVHX3MFNgAKNrU8ksq9BgAEe/cfcI4SztSmw+HjkVDc0XPmYuvJC24JAjQwmwB9KmqbnDMnXYSgBZ5ITwI2MNsAkAIaFhylsynkr75YI5i10HLgfNX6zU5Gli891/ySMeYDgIC8mNkZO6F5RgX0sNcDeThDc7yq+ekTlkMIoIF40k4CNrKxJfnYUAMK7N+Yu6d5Jgr5YNMRLcssGohgRmL7juanT+D8ARawjMKnSDDLgfKZZjaQB/ba0fI2Uw00Tp4uTwExyLGp5aVi5MfZE6uPvk7a74sebGAKP90P+xKwHwNLG8HpdW6nF+r/6tR/0kGHYONbe78lg0oHyaHaQxlBBjNEgY3PDTgnxyqawf+CHZe8SyiZZjb6LKySfx5bIf9n3Gn523Gn5S8mtn6pF64Rj3TkQ349+GZ7DuevD+w1gJMgPZsOEAFHqvPBYVxoeYIB6SyLc30QaCCdZeiUkYb9HHB2SEc8aCIfrimH5ks+6ULy0XLgXMuC8jYf+FAmn05aNsiqD+pEubQu5MM85EG9mQ56Pr7kY+UnLx1qWlpe5qHc2u5IQ/1Dfxy0N+uScrMs6UJ+0MGhZdO0kGZ5RfGjjFFh0n5f1GAjOI+r4zyC3YPdk7SBpIMOBjzMbPz7vn+XQScHycHag26AjPMXBTau6VUWCTA4q5EJbPxmzUX50bwL0n3mGXkA30SZckb+atLlH64Rj3TkQ/6ogTjEB9t09DaQtN8HsHEwOJYkjiXkDe3FtoGkgw7BRrd93eS3J38r+2v3x8EZLk8+wYZ1Do8sPCf/Mv6U3DT8lAtxbfN01mss1ehlC985l3M6q406ut5J+30AGwFshOWn0Aba1AaSDjoEG/fvu9+BjX01+4oSbMBZ/Hr1RfnSxOawozuPJPpxSj9dxekliCS0Q972MSuUtN8XDdhI12hDWrBAsEDxWiDpoANNsIzy7X3flhdPvih7a/bGVg689IfY3Cfmf1YpuVhGCU6ufTi5UE/FUU9J+30AG7GHuZAxWCBYwGeBpIMOaABsdN/fXQaeHCh7avb4yHrjsuHlJRQigwWCBdpkgaR9MYCNNpk7FA4WCBZIOujAYgAbPQ70cGBjd83u2EbMhlds4iFjsECwQGwLJO2LAWzENm3IGCwQLOCzQNJBBzQANnod6OXAxq6aXT6y3rhseHkJhchggWCBNlkgaV8MYEO9d973/vg21UYbCg8YMMC9yAUkysvL3Zs/i0m+NqjWpqL4SBzezMoPzLWJWJrC4MPvEthsiPd9rA4yQTa+PCdKTpRlHr6whzxQ1/fee2+q7hlfzGHSQQe6AGx85+B3ZMDJAbLj4o7Y6mXDKzbxkDFYIFggtgWS9sWiBhv19fVy6dIl97rw2BbIIiM/clMszhxyWCeUhVodskghwAbaAxw+HL89CBQs2CDQIECx16SDcnhbIGnba+RD/UcBFdIppjDpoAPZATa+e/C78sKJF6TkYklsdbLhFZc468zWrS6fq7ECdazbgeaR7lzfhOh8mQBw1NgW1dZhA7ZlzSecBwvQAq4v4s3b+sdET9guwAZeDT5jxgyZOnVq6ofrEydOCF7TrV/L7dExY1SuBpCMjGJmCGAj2lAYBPPpiKMcDuM5I2Edkq/O0K7w/RyEODhDpcuSri8uykFEW+fqpGQDAAA2/uvgfzmwsa16W2zBs+EVm3iMjFdzrPC1MYiM+Kg+AcCANutrS2yPPtDDdukrF8NMIUsnsAD64twbb0z9Ft5+u9SUlkZqXvRg49ixY7JixQp55513BJ+G5w/XixYtEnxaGN8h0d8p0dqis9jOZAcMe63L23N2XjodX2fMlMem64ECToe0EeKag4LmRZmZV9OAzNQbH69jHoSahtUN16CrHaTNg/K+WRfy4x27lc/yRn7I/PDDDzv5tPw+G1AOpCHvq6++mtIrSh6tt80Txd+nPwdetKPdu3e79gQ59EG5kJcHyzGvjzby+sr64ki32MJsAADAxg8O/UCeP/G8bK3eGlulbHjFJh4jI9s12k+hD/C07dg3NkAuxrMPWHlxzTQ7PlIv5NH9kvEhDBaABdAXJ15zTer3u//5P2X/iBFybMaM5t/06XJM/UqefVbW9OghO/r3l7rKyjYb8ZqkFNINHmfOnHFAA59Sx6fbS0tL3e/s2bNuaQWfSgfgwIfD+EExyx8dxnYmO2DYa0sD13QcmhY7LEKdR3dQSxtAQ6dzUEA8D9DTgwrzkA/50olRNk2XeXQceGj5yS9JSFnIm2VBmzpYnZEH+bVOlI9lNB0to+UHOhgkWS5Kd80LtJFf043iD/raZpSLoZWH8aBPmRhH2RgPnloG5gNPGw8bpgN9LFsMYbo+HCVfXVOd/PDQDx3Y2FK9JSrbFfFxeO3fv0fefHO84COOL730kuzbty9yfNAMWF+oDx5sy3TMALloW6jLqCNO3em2QL6gjbZHXrodst0zjTJqOpSHbRTlN23adIW8KAM6oIGfbXuWTjpdmTeEnc8CFmxM/sM/lA0//rFsffJJ72/9D34gG3/yEzk5b5401NS02WA5BRtYKsEMBoAG1ir79+/vfvjqH8AFwAbSsZyCz7v7Dl9n5ADCTmSvo+hYB4Z8cCQcFDINMhwEyJd8NA3EIV3z0uU4MNGBkYbVwdJAPpuHZZOGVl4tH2hhAKNNSNvy9sln6bCsDn2Do6UF+ax9bB57DR5RttX8KSPk0IePp6UHnr6B3acT+aBMsR9xAIDVAWDjR4d+JL858RvZXL3ZJkdeZ+K1Z89OWbVqkKxZ013efvtxmTKlj7z88nPupiVqjCAz1hfrlm2W16wTOOq21otuC+Sr6VrekBFl9LiAOF+7oz4ISSdKXl/b0+Uz0dd5w3nnssAVYOPDH5aS556Tva++Gvk7MXt2zoyUU7CBPRpYNsEmUXyPAUsm+OHz6QQbs2fPliNHjkhlxLSM7tTU0nZAe818OozqlHoAiMqj6fBcD1wYZLRz1jSRn3kRz3MOgKTHAYtONo7eLJs0tPKl0xtp0I8/lMXhk8/S9ckFetpWpGUHYZaFPchb5/Hxj7ItaSGMyuMblOPUCWj67MeySCv2IxMA8MkPsPHQoYek/4n+sql6ky+LNy4Tr/nz58rMmT+S/fv/Q6ZMeUiOHPm2fP/7n5ehQ4cKlmSjZkDBzNocdepra2hPbMdeIWNE6vZHvuy7LG752/4R1RZZHmGmsc3X9nR5X3/T6eG881rAgY3f+z2Z2PKb+hd/IdVHjhTMIHkBG1VVVa5zL126VPDbunVrK7Bx+PBhOXfunFdJ3amZwXZAe818OozqdHoAiMqj6WAAofPjQBZ3UAEvDjA414cdsOLorcsnOacM0NfyBR3ak3pCFsZRbp98vjgrl8/GKGeBBHkz3pfHzjJovSxfXkflQR3ipw9rmyj9oJOVxZbVdIvtPBMA8MkLsPHTwz91YGPDhQ2+LN64TLymT58uY8f+QpYv/7k8/3xvOXfuJvn2t2+QX/3qV64NYiyJOmhz3a5xrg/bjnVaknPdFjRfTSPTuBBHlkx5fG1Py6Dl1PHhPFgAffHshg2pX8WWLdJ46VLBDJMXsIE9Glg6mTBhgvstXLjwqoAN6xBgVd0ZM3XcqI6faVChgwMvnttB0A5YWi7WfhR/picJKbNvTZhpkImH5e2TD3EEByxnQ+hNkMY0XY52gAz60HkQ7+MfZVtNJyqPTy7KwrqCDXz7MOKU1TIU23kmAOCTF2DjkSOPOLCx/sJ6XxZvXCZeABsjRjwqW7b8Qvbu7SMnT94kd931l/Lzn/9cduzYIXHBRlQ9Mx7tpy2Hbn+2nZCu7Ue2Dds+xXI6zJQHbc83rpGG5cn4EAYLZOqL+bZQXsBGU1OTAxeYAsUPj7rqZZRMMxvWgaED6anQTB0SRovqdHpAiMpDoyPddmwOXtqBWjrMg3gOTNaZWh18vGweypVNSBnxNInWifLRwZI2rrXNs5XP55gpC/TTtiJvhLCXbgc+/pTd2lbTIX2rn5aB+SGPBhe+suRp6TEv6Bb7kc2gA7DR50gf+fWJX8u6C+tiq5iJF2Y433hjvDz88L2yYcPP5I47usiQIS/K4sWLZc+ePZF7uyCArgt9roXLVR/S7S+Klx5bIINtY3FkyZQH7U73X60reaZLt/nDdeexQKa+mG9L5AVsYOAdPXq02xCKTaFz5syJDTbY2TiYcxDXjo950g3sHBB0x0N+TYd5NHAgP/AnH8qCysCAAhqWrnaMpEH5yJd0fHyRR9MEL/InnbY0BsoE2a1zxrXmTb7IS5l98tEeuix1Iw+U1/ZFGdCivZhf50E6eONH3aP4++hrO1Fv6sE0y5fXlJv5UI6yIg7XWl/mg800UGF8MYbZDDoAGz8/8nN57vhzsrZqbWy1MvHCI/C/+93vpFevL8qOHY/JtGnfkz59esvYsWMFNyXp3snDOmPdou50O4KQbEtsR7EFNxl1+7N8mdXyRxnddqLaIssjZN+Lkjeq/ZEG0q0NmBbCzm2BTH0x39bJC9iorq6WjRs3yvr1691v5cqVbuPozJkzZd26dXL06NHIDaJQGB2NzgadlR2dHZAdknl0aB0BBgCm646vDavzIC8HLysL0pAX6ZoWBx+mc1ChvKBjZQYdfVBHlOXBMpoO0xgiT1wnRz0tPS0/dNA2p5w++SgD7IFy/LEM0n2DH2hp+9FeLI86ZB7WRRT/TPqTNulQZoRW76hBWuun5da0fHrq9GI6z2bQAdj4xdFfOLCxump1bHXi8MKj8vff/y+yefPP5fvf/5w888wv3HiBjeR4CWDUwfpj3bK/8Jp1j3aF9tOWQ7c/y5d00e51G2Ibhlw8kEf3D8YzpA5R8kI3O8axLMJM9HXecN65LBCnL+bTIjkFG6tWrZIFCxZISUlJqx/ix40b54DG/v375dSpU2mnR/OpcKDdsSwQNfAXUkvKEOUgCilLHF7ZDDoAG48ffVx+dfxXsqpqVRw2Lk8cXuPHj5evfvWzbQYbYEhnTeCaz/dsENTQGBZssF1AFgIMDVpYToeUP6otpQMbBFdRZTWfcN75LBCnL+bTKjkFG3guHk+f9OvXr9Vv2LBhsn37drfhi7MaeDw2HMECubAABuiob6Pkgn4mGhjc9R1tpvxXOz2bQQdg48mjTzqwsbJqZWwV4vCaNWuWPPjgV2T8+G/LzJk/lEcf/a4AgGCsSLeMEluIIsqYT0DQ3tphEVVLpxAlTl/MpyFyCjbyKWigHSyQzgK44+PdY7p8uU6D8+gMX30F2Oh7rK88e/xZWVG1IrYZ4wxwuPHAEuv73/9+ue222xzQ2Lx5s3sfT6YXe8UWpIgy5gMUcBYlzGoUUUUXmShx+mI+RQ5gI5/WDbSDBYrQAtkMOgAbTx97Wvod7yfLzi+LrVU2vGITb8cZAYztMkxb1LlaYLstMoeyhbXA1e6LAWwUtr4Dt2CBq26BbAYdgI1njj/jwMbS80tj65ANr9jEQ8ZggWCB2Ba42n0xa7CB15GHX7BBaAPtrw1kM+gAbGAJ5Zljz8iSyiXtZoCLLWjIGCzQwS2QTb/PpUkC2AigKYDGTtYGshl06pvq3WOvABuLKxfHHoPAKwDS9gdIQ511vDrLpt/H7ugxMgaw0ckcTRhEOt4gkrROsxl0ADbwEbZfHvulLKxcmHFoKasvkz01+HR8ABtJ6yfkD300H20gm36fsaMnyBDARgAb4c6zk7WBbAYdgI3nTzzvwMa7le9GDjFN0iRHLh2RN8+86Z5eCWAjOM58OM5AM3m7yqbfR3b0LBLaPdgYOHBg6s2VeHnOLbfc4t5emovGiLegPvTQQ7Jz585EDvndd9+Vxx57LFUGMt53330pOpYu3qCYS7lzoXuuacCGsAFskWvalh7qjHxga9iWL3liyHSWtflAg2kMM+VBPep6ZrliC7MZdAA2Bpwc4J5IWXBuQeRQg70d+BT9X2/6a7lm9TVhZqOTAdlia+tBnsugJJt+H9nRs0jIKdjYt2+f+3jS3r17rxioc13pHPh79OjhXjtN3fGmUjgUDPxt5dmnTx/p2bNnIjpwqg888IA8+eSTqXI1NTXu5UQnT550cZbu/Pnz3SvHd+/enSrTVtmLsXyvXr1k1KhRedUR9Y46w5eHYQO8vfbOO+90b5ZkG0GIOqGN0Jbwfge0HRx4dwZeAa8BSZw8+ELpU089JUOGDEnRJo9iCrMZdAA2Xjz5oputmHdunjZl6nx3zW751t5vyV9t/Ct5/5r3B7ARATSyvbnADQxuZGxb0uBapxHgR42FUelo9z6wrWmH88tOvL3YIpt+n+rcOTjJC9jAC3nweXk8+80frvFdFDhUvLK8rRUEhw3nhQGeThw04UTwDPsdd9zR5hkOAAbwSCorymiwYctbugFs5KbjAhCg3vEWW7aJuXPnOuCQrs298sorLs/x48ddXZeVlTkaACmgifqLkwf58Kbcr3/966lytu6L4TqbQQdg47cnf+vAxjvn3rli6MEejQnlE+TP1v+ZvGfNexzQ+PC6D4eZDQ/gwJiFD9ChncVtDwAMXbt2lbVr17YqY8G1pvfII4+4Gy+MLzqe51HpAOoA7FEgheVDmJtxq1B2zKbfX9HR2xCRc7ABQDF79mz3ISUM9Po3Y8YMWbFihbvLPHDggLcDoIHbJQWg+WuvvTbV+HGNjqediq4wfJvl9OnTqc4MpI7p7WeffTY1nQ56oIM0Tq1zCpyIn/HXXXed945C88Q5HNOtt96aokc9yH/Tpk1ODkvXBzaoM/PGudNAnnT5kEYdtey2HOqAfBHSViwDfQCoQAvpmifOdVk9YKHMSy+9lCqHfFHyaBo2TxR/vPYaMxL4WihlxVeH+/btm2oLjNfhE088cUUe0AAt0ETeOHmQDyAHegKcaB7FdJ7NoAOwMfjkYPnRoR/J4NLB7jPz+NQ8fusvrJepZ6fK9w5+z4EMLJ98YO0H5O+2/F0AGx6wkU1bwBiBjwBqsOED16CNeL10aMFGpnS0YYyt3bt3Ty39ZiNzKFNcYCSbft8GbHFF0ZyCjS1btjigAQeDu8TS0lL3A1Kuq6tzn5yfMmWKIN+ePXu8g7HP8aKDoaOx0wDA4MuH2qnohl1RUdHKuWDqHs4LDgMHv09g4+BcgPbR2fBNBsyQ4JsX+IotaGoevnPcqeD1yiiDsrx7AX84INjER9fqDKBx/fXXp6b18Spi3GlYp2tlgI3xs/G8Xrx4sQNpeKUx4zDwQG+kIQ5116VLl1bLDnDWt99+e+punfbEZ8BxgCcBGuSEvDjwzRLQIuCADWBzDGRMB2jUyw4AK5oGlzRQL5TZxx9pmGbWwAIyYZlNAxecA6yQFvKA35gxY1JxSMMMHOwCsBInD+mh7cAu4ItyjC+mMJtBp6GpQSaVT5LvHPiOdN/f3X0nBd9Kwe+pY0/Jdw9+Vz6z/TMpsPHnG/5c/nXXv+YVbMC+6BO6PmFntCHdVyxw502ArhObRwNo5EMbBk22YU1f06EjZ5vXaTxHmpYB8oOe72YIZZCu2zD19YFr8MeSIOTEzY0eN0ErUzplJNjGDSLjQlhc4CFpfWTT791AnaO/nIINLJUACMCpDhgwQPr37+9+kyZNSoENnK9Zs8Z9lM1nLOt4kceCDTgAOIK4exzgnNDpMMUNegAFcEoALHAOOg6Oh07CLnf45PXFoaPrZRSCDea1dK3Ojz76qAMs3HcAGTFbA8fcls6PAQQ648N4lMUOWHTYGlwBiMB+2P+ActAHdLjsgDgAGCw7QE7aFDSamprcUhfywC4AYZhGxjXSUQ90zAQ+esaKdaXrxcefZTVo2LFjh2sn+iNpAECwIwdsygWaOOePYIPxkJ3nUXkYv3DhQscX/BlXTGG2gw6eNJlyZkoroEHAARCiwcZfbvhLuWfXPbHAxqRJJ+Xxx8sFe77ww/nEicfdcmvUDCjt6asX3b8I3Jctu/yKdbS5+++/P9XPmYd7dnzgHn0UDh97cnDgpoHtnLIgRHvFTQbbuE7jue3vaFegzZshfucEe78wFmFpGP0LfRDtl/uN2FfBk7TJH/KtX7/+CrCRKV3TgZ3Ag3EhvDw+tEdbZNvvc4Q1JKdgA/szADbwYSVUBgYK/NApObMxceJEWblypWzbts3biG1HBB0LNtA5k4INOEe9bg+nhIEKX5Zkw9GDFOLsNfNlCkEXZZkP8iKO15au1plOE3fHejDDOZwmgBbpJA0x0GjnjoEMU6WI44ClZ0f0kggGOk7hUh9tOwAY1Im2sZUPNtBgAOnaFhwIMVDDDnoqWNvPxx9ACDLC0ZMv6WnHAIADp6L3Y4A2aLIcwraADcgO+gRnmm4xnLdl0Kmor5Djl45f8cNn5x898mhqZuN9a94nn9j2iVhg4+mny+VTn6p2QBVt8tOfrpbHHjvpHG2mzea+utNtCuMR2gXqhLZHG9dtIg64Rx8FHd6wkFY2oe7vKI+2p2980NcBuAGKOQtJ/uyDHCdsf9Ly2HFTp+E8Uzpoa5Bvy4fr9gU+2tLvcwE48gI24CzQSdBh8Nu6dWsKbGD2A/s2EOdrrLYj+joF7xyTzGxYcEKHpWXQgxTi7bXOm+4cAyDKMo/lZelqnenk9LSpPrdOkTzihnopBXWEAY1LKKCBKV7yQxrupHhXxYHO6oNyjNMAxMqUyTEgvwY4yI+7PMyG4Jz0yIvXCDMNnDov2g8cB8GATy7WA+0dJw95UBY4OsYVU5iPQed8w3mZWTFT/vfG/y0AGti38cfr/zgj2Fi06Jg88EClfOxjF+W11/bKiBH75WMfq5H77jstb7+9y82Appvd8NWL7l+czUOb1rNZrA867UzgHn3U3rCQRtJQ93eUZXvWfQd50EbZ5+y1D1xbOdgOUdam4TpTOsfZYp2h8+kU4qIBUD76fRIQkhewgel/LJcAWOCHRsuZjVyADQwQ6IjcvGcbGNdfuW6KztzewAZmiXwHp1CtznGvOfhiJgI/DKCIQ3nOdMC548ASCGYC7EDHwVHzpI3TDUyZHAPqjXdz4M+7T+08wNPHP9PAqWXV+uAuElPjmMLWeQg20Hbj5NFlIQvam76b1ulX+zxfg87RS0fd0yo3brtRPrTuQw5wgFc6fb/znXPyB3/QKO99b5N85CN17ofzD36wQe6/v9TdlGBpJYpGpjaF2S3uoyKIRsixgfWs0/Q52hp4o83YMSRKpkzxlpavPes2Sv4afMRp75nyZEqnDATlmfQK6dGOvhhsk69+7/NTvri8gA04KU7Hc8oyCdjQd52oJNwhYgBA48c11/qjdktjWlQ7UTpCDCysdF8Ht07NXrNsphADIMoyn+Vl6erBB3c3KG+dHxwXlhU4SJJ20hCDL5ZN8HgmfnoJBUABA6qe6QB9rNvqgc7qgzx2tsAnVybHgHrW9QYavPNEWdL08cfyDcrqZSYLOlkeebAkBRCBOEwXW3Bg97LEyUP60AP00i0pMe/VCPM56LiXf50YIJ/b8Tn5m01/k3FmY8uW/fKTn5yW66+vlOnTV8qMGaukS5dK6d37gCxYsNptctT91torU5tCftQzgCsO7ofAxmW0D4KNTOBe91ErQ9JrS8vXnpFH9zl7nQkoQKZMeTKlgyf6VLG246R27+z589nvfeDCxuUFbOAJgtGjR7uBHwP7nDlzYs9scNaCmxhxjXcnaLCBRoMBBAN6t27dUhu9EM+d21i+gWNFHDoz8upBy9fBLQiw13EbKwbAbMEG9OJmUD3ty/eK4JHeuHJE5QOY4N2bBhYEOhrE6WUVLgv4bAe54MC5qQ28CZCoRybHwLrXj41Cb8iK+uOsiY8/QZQGaQSl+p0r1Aftg2ADG11BH7woN8pgbwfbUJw8tDfaPHTV0+JMK4awEIPOxuqNMrZsbEawgT0ZTzxxSj7xiXOCTZxYYv3EJyrloYf2uWUuvLMn6sk12BJ21nWO2TnsM0C8z9ao81OnTjknivbMNq9poBzbLsG9BQg+2nHjLC1fe7bgwl77wLXlnwlMZEov9nZs9Q3X6WdWCtHvLcDQ13kBG3hUFJ0Vu6Hxw4ZQdGxsDp05c6YbRKI2iMJBYNChM8Q7LuAYgLDR4dig4ASw6xtT4MyLEBvzAHb0bnB05mzABjaDYVofdDnokH9UiMEM8qIM309hBxNL1w4+sAEGTfIGLQyg0IkO0scf+x3sI3u+fFxKsbMIHIhhK/DED06XezYw+ICe1QdxKIu7R1sfcNhc+skENmzdgz9AG+469WyXjz+14jkOAAAgAElEQVRkAHCC7Gh71Bszapi9oT4IoY9uH2hLAEtab5Sh3KAVJw/yod7wdI3dA0B5iiEsxKBT3VgtZ+rPZAQbgwaVyqc+dVH+7M8uyVe+ckK++tWT8ud/fkk+/vFKefbZfe4x+ahNomhzaG+6zvEYNeqYYAP9lv2QtucL2tAPQCMOuLd9lLSyCS0tX3tGnnQzG2iPaKMWJGl5MoGJTOmgDfvCRppuOE/v1IvVPoXo9xpc2POcgg1MPeOFXui8+ofB/dVXX3VAY8mSJQ6A8C7VVzFwBDz46GTU42RwJvrguy00XTgNG4847glgXi75sHPB+YE/Du2cmD8qpPzc82B5WbrIb+XTecDfyurjDfnx86XpOAI1yxN5mEabIg/kgy50vlYfTdvWB8vAptCB1yxjbU7bkT/SUYa2RLko/nAecDx2L4+VCTzIn6HVG2WYxjBOHrT1b37zm60eC2b5YgkLOeiAVzq9L4ONWvnSl47Ll798wgGPG244J888s1cwsxEFNkC3srLSAQuCSThIgFOCDdS1vnlBPoB4jD+oT9BAX8sE7i1AiNLJzoj48llaccAGZw4hP28ofOBa88sEJtKlQw/0JT3zqWmH8/YHOArZ7zl+6zCnYAMAY9q0adKvX79Wv8GDB8s777wjCxYscLMaeBIl3dRoaMjtryEXQ53BeWBWSS8DFVou7BfCrAYdWaH5x+FXyEEnE9jgMsrHP37O1R3AGpZUfvzjfW5GNNMyCkEsBzWCUw3OLYDVwJX2ygTuQcMHzlmeIQGpD9Ayj6XlA8/Io+XUehIIR4Fr8qFOUbKkSwdgB2DLxbIt5Qnh1R3XC9nv2R91mFOw0ZEbE9f6eQflC/VbATuyLYpZNwysmPrVbyUtlLxoI1ju4svYCsU3KZ9CDjqZwAaeNHnyydNy442V7kYEnzv45CfPy09/etB9SwnLremeRkmqe0fKny9wjVkeAHa9r6kj2a2z6lLIfq9BBs8D2FBvjUzXCOHEMh1x7nzS8QhpuUH+vLsttD3RRvQddaH5x+VXyEEnE9iIK3PI5+8b+QDXAOoA7KAd7O63e3u0SyH7vc9XBrARE2y0x8YVZO44A0Uu67KQg04AG/lvg7kG11jW4VJNLttdoJX/tpDOxoXs9zkFGz5iIS5YIFig+C1QyEEngI2r62DSOZ+Q1rnqppD93jcKZj2z4SMW4oIFggWK3wKFHHQKyav4LR8kDBa4eha42n0xgI2rV/eBc7DAVbFAIQedQvK6KsYMTIMF2okFrnZfDGCjnTSUIGawQK4sUMhBp5C8cmWfQCdYoCNa4Gr3xXYPNvACH/0YKt6KiTeI5uIAHXyUDN9TaMvB7zHwA2dtodXWstAJNsL7DDrygXaB16e3te4y2Qh8dL3a9oi2adsk2wPbbZScmhbeJokv8PJAPd57772t4piWKSzkoFNIXpn0DunBAp3ZAle7L+YUbNTX18ulS5fcTuZ8Vyqdph2oOUDnwpnCiVj62ehF56KdUjZ0Qpn4FkA7yEXdpeMI5w+Hj7bIA3Wcrp5tW7DXpAP5NUix18iHNp6NjoUcdArJi7bLJhwwYEBWwC0dL9Yt6q4tB+mka1c++miXKIPy+T7QFnV7jcsvyu6Q22c32iJqfPf1ScgCWkntF1eH9pLvavfFvIANvGxmxowZMnXq1NQP1ydOnJDa2lr3LoK2VhAaTtRAi7RsGr6VKR0PmzfdNTtIZ2/s6WyU6zQMLlHtIxe8WKd6QPTFWV4YJO0sBQZIvBqaMxcE0plok1/UwGt587qQg04heVG/pKGvTpLS8OVn/eh69OXLFEc6ScePXI1fmeTLNj3K7oiP6rvQCTOCvjbPfuMb+2lDX7ls5W9v5a52X8w52Dh27Jj7ciNeT46Pr/GH60WLFsmBAwfcty3wAizfgcZgGwsGYQzQbCj22tLB11313SYdD77PwqlrDvhIYxwbOBsm45nX8om6tuUffvhh13nsYKF5+zoQ9aQc1i7gb/NQB6TBXrgGf9DAOeoHdGhLn218fKyu4KsdpE0HfZ/dEK/pW/mtHXw6wL44rP1wzcOnl0+ebPn79Eeby7S0QbmoA+Rle6H8PtrUV9dvVBxtEBUWctApJK8ofTPFR7XVTOUypdt6zZQ/Kp107PgRlZ/x7RFsEDCgTvTBeI6FNh3XTNPji6aBPLb/6PSOfn61+2JOwcaZM2cc0MBrm/FJ7tLSUvfD65vxkhh8NRSAA+/kx7XvQIOwjYUOgQ3Ml8dHi3EYxNEQ2Vl1w7VxvEbZbDorBwbdqEFH8wdtyKSdH3XUDgfp1NknD9JANyoP07VO1J1laBsrr60D2jJuSD7Uh+UgC+WhzpQFeaxdfDogH2hoGS0/6kVevnppC3/Q1zaDTJSVgx5CLSPlpky4xkHZGA86thzygaeNhw7pQF8zh9b/hRx0CsELdtM2t/VC2+k8sGVUPNuSbpe2jmjRdLxZhrxYJlPIcpQ36mYlirctr8cZmwYebHdRcsVpY7rNkgdu7lAX1EPXC2zCeIS0kaZDeVgfKL9p06ZWN57IgzKkATq2j1g6ul6Z1hnCQvTFdHbMKdjAUglmMAA0sBbXv39/95s0aVIKbCAdyykXLlzwyuVrbNYppGtQPqLIrzsc8qCD2UaJON0h7LWPto2D/JYXOws7Na/ZwUhD6+Wjw3wMQY80GadDHw3yRhoOn22Yx8qnacc5t/YjXc1b2xs0bV3H0cEni7Yl0y0t5MmGPwdTa3vQw6BH/cAXeXQ7w7UtZ+mhvC5D+X06WZsyb7qwkINOHF5LlogMHNjkllfxunecL1rU6K7xMbJ0B2yp65D20DbGubYn88CeOGy7YLquR1tHKJeJN8uQTzo9mMYyWifwQbuyOuk8lDldHtLWedjfkshIWXWo2yz56L7g42PtDnqQTcuneeCcdHTd6Dy+PqLTM9HXeTvaeZy+mE+dcwo2sEcDyybYJIq302HJBD98sZAzG/gE/ZEjR9ynoX2K6UbLdNvAMjUolmPoy4843VmRFw1Rx9lr0ksX+uiy87ET+ToZaEJP3qVy8CBitzyZDn5Rh8+WLMfO6pMX9HLRKa2e4KUHfS030qArf5TPp4Olq+nw3KdXunJJ+NOGKJPpsHl9dvW1D5+dwM/Gs2wcWShrIQedOLxeeknk5psb3A0I9Ln55kYZMKDWzfhEzYBCF9qWbYX66X4blYd5Edp24StDO7MP+/KAlubNMknqxsoCmuSVhLeVBdd6fME1DspI2i3RiQPIzbYZRVPbBgysrtQznb2sL7CC+vqIzoN0PcbrtI5+Hqcv5tMGeQEb+IAPGhK+GogfPimvwQY+jXzu3DmvXrrRMoNtYL48zOsLfQ3Q1+hsZ7DXPto2LqoM4vHDAfnpVG2oZ0XYaXUelMXBjslrF2n+fHay5Xx2ABktryEb+5K8wIO60AYgwnqlfpCXcdTLp4Mvzgrl0wvltH3JKyl/rZfla6+t3j672jxR+kEnDujkY8syPl1YyEEnE689e0R++EOR66+vl+nTK2XmzAvSpUuD9O5dI+vXV0p1dbX71Ho6fZDGOmFd0qHYOvfRsXlIC/E80tmZ+S1vlkG9xT187ZZ0dN8hvSjeSEd+2oH5Gdq276PNvHFC3WYpr9XbymPtTpm03S3vTHl8fUTT0HLq+M5wnqkv5tsGeQEb2KOBpZMJEya438KFC3MKNjI1OJvua4C+Tm07g72OUxk+uux87NC2k8WhSxp0lhxkwC/q8HUslmOHjiNvFP048bShb62VadCNh607nw5x7OfTy5bLlj9tmM721If1xrr3ycU8pAcbcIaLdBDGKavzR50XctDJxOuRR0Q+9CGR972vSf7kTxrcD+d/+IeN8oMfVLubEiytRB2wq3Xyul597cfSsu2C9Yt4Hqwj1iPiM/FmGdYraaULtew6H+KT8KZ8GmxQHtoL9BinaWu+cc+1nUnT6g0eWh5rd9v3fbwz5QFPC8g1HctTp3X080x9Md/65wVsYJ0VMxn8YbBIMrNBh0rl0UDQQRDysA2X8QiRphucrwEiTjd8ltNx6Xhofvrc15g5eIEejqgOg7Jabk0X56SDfOzQpGnz4tpHT9NAHtjB2tvm8dGOG0d7YJOb1o3yg78+cK3r2qdDlP0sHV2XSKMsKN8W/ixrbe9rL9aWWgbKC3k0uGAZbRvy1HEoz7ygG/co5KCTiVdFRb0880y93Hhjjaxde1DWrz8sn/xkjTzySLns3HnU6YfH5X1HVDvQ9eCzt6Vl8/hsSvuzzuPwZhlbZ5a/vkZe225JJwlv0NR2wLXVE3GWtpYlyTlos3+TptU7kzxRNtVyZMoDnpRDl+O5lpNxnSXM1BfzbYe8gA101tGjR7unT/AEypw5c2KDDTYmNlR2fO2AYBTG246JcjavrwEizpa1ncFex6kMdjRNG3QgE0Ie4K+dPPVBPA7fwGD1QJ50uvo6FvkgDQdogoaVV1+7jFn+kZ/VH+RgDz0wsO6RV9tB56EYtiztThujvNXB2tTSSMLfR5/lKTtl0nLYOF5TbuoHGrp94NpnB/DUQIXl04WFHHQy8cKLAF98sV5uuqnG7fPCEutNN9XK00+Xu8e0MUuKPWC+I137ps1ZJ2zvUXS0rdlmWY8owzjWUxzerFtNx8dfx9k2mi1vlIOstAOuIYe+RhztQ70Ql82h7RGlt5XH6kobp7MX5UVZ34Gyvn7CvD4bMK2jh5n6Yr71zwvYwDrrxo0bZf369e63cuVKt3F05syZsm7dOjl69GjkBlEojIYEh4MfBgE2ZF8DQwNmXoS+huZrgL5GZzsDGzbo+nhHVQ47G+WKenQNMjAPQlzrQ9sB6XpAZD4tI/Jo/Wk3dGIe7NDUh7bB00OUxQ5ILKtD8I3r5FhH5Ek61k66rlEGh08Hlrf2YxmkI83qAVrahm3hH6W/rQ8rA2SzfH15qAPrRMtN/ZknqrzOp88LOehk4jVxYqN89rON8hd/0SDdup2X+++vkv/1vxrk05+ukVdfrXCPyQOQ+A7aWvcbtjXdDxCnr2l/tpeodqHtSrosE4c3+Wj5fHroOJZpK2/QhKyaDvREe0KIg7wQp/NpeeKegyZtTLpWb588tl0jD23s4027UwebBzwph03DdSb6vjIdJS5TX8y3njkFG6tWrZIFCxZISUlJqx/ix40b54DG/v375dSpU5GPvuZb4UC/tQUydc7WucMVLRA1oDK9ECFliBp4o2Qo5KCTiddlsFEv//Ef56Rbt0oHPD796Yvyyitnhe/oidIFuhOQIYQzQZu2TgxxNh9p0o4sj3iCcpZBeeuoMvEmXZRNcrAceftuVjLxBj86ZtBhG7F2oF7pHDToZLqxAH3SoPxWb9hPgxrm03bXdHw2o07Ux+YBT8ph01inUWVt/o52nakv5lvfnIINvDsDT5/069ev1W/YsGGyfft22bFjR2pWI2pqNN8KB/qtLZCuc7bOGa6sBTDw2W+j2Dz5vMagqQfvuLwKOehk4sVllH/4hxr3mPyhQ4fckkrfvuVurMCLAsNYEbdm23++fAKCbPtL+7dqswaZ+mK+9cwp2Mi3sFeTPhoq7zSiwihEfTXlzsQ7gI1MFkqfDvvhjq3QBwblTK9Gj5KpkINOJl7YPD5oUIP84z/WOnCBtw5/5jOXpF+/Cvf24crKSolaRonSL8S3bwvkAxRwFgW0O+uRqS/m2y4BbOTbwoF+sECRWaCQg04heRWZmVuJ01FvVlopmcMLLofliuTVuinIlfy5oHO1+2IAG7moxUAjWKAdWaCQg04hebWjKgiiBgsU3AJXuy9mDTbwOvLwCzYIbaD9tYFCDjqF5FXw0TswDBZoRxa42n0xgI0AmgJo7GRtoJCDjuN14oRI+AUbhDZwVdtAIfu9D4MFsNHJHE2YiWh/MxG5rrNCDjoBbASgFYBmcbSBQvb7ADYCsAizGKENSCEHnQA2isPRBIcf6qGQ/b7DgY2HHnroisdRJ0+efIVDHThwoPjic33HmIQe3rAK+Xfu3OnkhXy33HKLe/NqEjo277vvvivXXnttQfSF/Pfdd19KBytLPq9zpSfaRjY6PPbYYwIZrI6wCWjaeNQz+ES1Q9C65557rqh/0AJNS68t14UcdALYCE4uAJ3iaAOF7PcdBmxw4O7Zs6d75S4Vw0uWunTp0mqwxyDetWtXmT9/fk4H7LYM9ijbp08fgfykA/nwlr7du3en4piWJFy7dq17e2Ih9H3yySelV69ebZI3iW46b670rKmpEbzr4eTJk7H1AGBAm4IMWibEo07x1ksdj/NHHnnEAWNfvQB43n777d76By3QjAIplk+c60IOOvkGG+UlJfL0ww/LxQMHrup6uHWoA556SnYtW9ZmmaBb727dEuuXK/5Wr2K6Xj59utx9662CNpBPuVCP937xi14+kCGqfpCm38mEaytnLvK8/tJLrg9Y2va6kP2ePlmH7XLPBp5Zv/POO90r0bWTqKiocK9FRxoGcAy8uXJKcQbxJHmsow5gI9leiqtZr6grvA5bgw20tzvuuMO9QVe3ScRjxoqDjgUbABFM84FN0MJbebt3756zGaRCDjr5BhtPP/qo9MZNx7FjVwzkdrAt1DUcyA1du8qujRvbLNPTTz0lvXv1SqRfLvkXymbZ8Fm+YEHzq8n372+znaP4A8T27t5dli9dKlJR0YoPQMgNXbp468fVQZcu7pXxcLjwWcirAWiu8lysqHB9APSi9EB8Ifu9Bhk8zwvY2LDhiPTrVy7Llx8WfAsFIa7XrTvkrg8cOHDFnR8dNQZfu5xgp8znzp17xWDP8rhTbWxslLKyMnc3yIEcIZctMJ397LPPuuUGxPOu0ToGO73OdLx+XTsQO83NmRfyxt0/aGn+TLvuuuvcdDzBxtixY1POR8tG/TKFdMKDBg1K6eejY2VEHqsHeGEan7Ii1EsEFjCxnrTdGEcalgfrGzZlHoSsE+pr6UAOOHzrvJkfIcrcfPPN3uUO5gMdykuboG0gjvIwHWWi7DFr1iw3M4GvlpI22sttt93mZn82bdp0hbzQETzwwiH8fGADtEATaTNmzEjRJo9swkIOOunARt2RI3Lp8GFpOHo07SCZbgDNxhmno5eLNDhB922WqwU2csg/F/bIF41CgI3Xhw5tBhP4mKV6mgazCRwfLBh0AOXBB+Xpvn1Fqqqay1VXu+unH3vMXecqj5OpvNyBod4PPph2BqyQ/Z4AQ4d5ARszZx6XD36wSUaMOOKQ3ciRR+UDH2iUKVMOyp49e2Tfvn2Rgyadrl5OoAOlY8Hgi1eDo7K187MDb1VVVepjRECWdXV1ji+cP6bB4VxwIB8dQ180kJbjqaeekltvvTU1SwKZMOhjqQbfecHBNwPSOYJmt27dBGVx4DW5mAaHrHDOuFPFtD0/SoQv5GJGBrohz4NoMBcvurLIg7tlyGZ1i7qmrbR+mWQEMyxBoYy2J4ABZonwamwcCHHNPBpswLFff/31AvtxWYJx+AgfDtpCO+84els6lAP2Ypvw2QN2BfBE6EtH3KhRo1otBaFtgC5mE3DQLkOGDHE0AGbdXcoNN7g0XIMO9nBAd4Bc8sI5+MMe+AKyBUdodzhAA3JEgQ3QAW3wIO22hIUcdOKAjZLly2Xc/9/e28XaUZz53goDEzK3uUyUGTESkgMmJ5obboYD4usmEw2RImaQmMjEwDnnZnLgJUG8HDAjQl5OEkwQHIOPjWM+4sMgjCGB4xEx4SsYO0CMjcHGYGyMbfz9DTbGu179iv1fPPvZ1Wv1Wrv38trbT0trV3d11fPxr971/Luqunvu3BG/N55/Ph16771KIpI768svz21Fe33rzDNbd435jvOb32yd47y962PYnWHx+/7n/8xlvvXNb7bqMm1BeX4Mj1/33/7bqGFyL586CkQ2CCGDY52rk47Sf+21o+6c8UU2klr7q/R7vKhn7S7ZBk5MU1jsbDnh4M+Tf9F//s8tTDvp1nnaA1+wTTJlg/y10yYiG4sefngEHqorWyVfMrzvVddDrjd9enrogQfo/FrtKIzpB3I/7kaedr7zTrr4oovSS88/36qDLRyTj76mysjHnZs2fa7zqadG6NR50n7+3+eOzf0ZV7Ixa9a76Y033kizZ6/PZGPBgjVp1apVbdclEDx8p6sAqsBC57t9+/YW4dBF5EdE6JB9XfIIKHTeNgjNmjUr67VD4OxjC+eoJ7JB8FRd7OBjWAoE3H1SR3JI+QougYbgrCBhAzV5+EYZyqouH68jj7tm1euUyl9rI0GNfwoNxfNPAmlAvuShEz9uuummnAfBwQ+CrgKogqcCrHygLGsOwFSEDrk3MMR99dWtNQzCAlKju/Q6fns52IFdtLuuCfnRbVoiG2AFZsiinfFr+vTprWkM2QzWlBFW8+fPb+Hp7VC7VNnbjmwgC9mQVsisl93tcT87nU5kY+ULL6Q//Md/ZDIGIdPv908/nV79/e/TwXffTcdKUyR0/oa0f3zoUL6LzAFw6tT0EuslhjdGjewQ9s733ssd88Ui0kNDuS7BN0/JiOzPmJGvMXvnKvkPGQJNnda8/eHDI8hoOny4svO3gYB99OdgNEzuCXJc41Y/gTT7smaN3Mt3zBdfcMHnawoK+nPQ/MEPEqNA2iDRTPW0JUNMG4AN2Jq7eu1/PNz3/dv/+B8jzj80Z87nHwjcvj3faV/dQTdTYPiYp56GbwDRmbE+88wkrLGd/YvPPz/7CtnI+EyfPuIGrYXFli219FddD2teeSVddOGFac3KlSP8y22KMYxWFKa51ixfnvvONStWjKjXGvFavjw1VUZtwRQPIym+LVrnJyPZmD17W/r2tw+nk05KacqUQ+nss/enKVM+TiedNJSmTj2Y7rxzfQ6oTK+UOkk6405kg3oKfLS57txFOuxQfamTh2zYwEAHTjAhqCiwSgd5CsAiG88+++wI25EnIgHp4HjTpk2tMgrkKoNsBWphgN+M1lhcSrarfFVKHfCD5Nkyzz33XM5nRIYAqjt+Rg14ekXYyUYIDkSn3agKZSEtjGjgMx/Nkk4FYKaFRJ44JyzmzJmTy3bym7YhyHo5yMe+quAtOzqlJbJhrw3ql9oK3WDN+aVLl2Zb/HVhdXdqy05kA9m0K+1n5fayPyhk460//jETDa5NkQzS/fv3J6ZKFz70UNrx5pvp8IYNIzpt24H6zr4V6MydKMGC9nrpmWeynBxcLr748yA2PA+f78YJLCw2HK6786OP8v+kDfYMg+cv7Wr+fufOXIdA+dLwXWUrqHQxjZIDKzIgScOy81z81VePIBsEkxHD88N3zPhHAAMbr78VNM1CyhZRuOmmSmwtzsX9nTvzXb/u1injRwPq6BbZ8H612lJYQ3ggbxCgPXu+8NO0Ge2X23rx4uxXHf2l6wFf0J8/rrlxYyVG/vqjHmt1+F/1a3ZsuzRVxrbLQ/Pnf06WKxZL9/P/XqTWpo2PbCxc+GG69NI96eSTh9JFF32Upk3bkC6+eFs+/u53t6R581bnQLhu3bpip1mXbNhOVsPROMZdKXfOBFHKlDp5AiOdu5VBngKuTxWARTZ8gKOuyvjAJB22DHm+XC9+S7ZN8RcCoECoc1Y+AdyuSYBQ6auI8oPynvxIllLKghX/WGCuqQbOCyuPpY6Fv7VLcm2bEVyRr/IqAynDPuorr5cUubSN6rLvdZXaypINa6/k+LRTGXTiJ7j5uhzjJzohNqXz3eT1s9NpN7Lx4Ny5mWTgMyNx+vHlV8jGv8+fnz549dV0YN26+p09weizzzJh0HC3rjk6ezpnBZeX/vCHltxiYBm+WxTZyEP6F100alhdgfuh++/P8mxQscGg3T5EKAc2u35l587Rd85Hj6bEb3gkRL5lsjFMbkbpZ7puePQmkxozxZRHOwqjFu1stedaRG44uEO48giFRgNq6BbZIFhKtkhLts8QR50nxU9PBgjimWwMt3VeM9HB99L1gPx/u+mmz4nl1q0tu6z+XKY0snGcyAbXcyZ+77xTtLef//eWZGi/cbLBeozHH9+Qp01++cuVebh75sxV+XjOnNdyZ7lixYq2narvdDt11Laj1dQDnRX5pbqlgEIeRKW0aWpAAdQHOOoqSPvAJNtsGfJ8uU5BV3I6pfhbIhuMJAhXpjAgBwylssk/a2Od4IYP3OUdPHgwBwpL8oQVQ9ilTVMxnfxmhAi7PAHQaIJvi074+PMTiWx0In/et6rjfnY6dcgGn5Bn7ZJ+rHHh//f/cEOwbFnay3VaERD9naUPpox65ikDRjY82VBA4i523rzPA5d7ssHKV1BSgPcpMrBzVLCvsN36BFHJgdPpz3erZk0A0yjSm4P6mjVfTNtUkI0cuM36FkYQdHMxVrIhoqXhe9I88rN9e8aiju4W2RjGD1xaeYaAWLyEs8fMk406+tWuuj6kx7a98nxaKtPUqEUdOdae1nU3PMJlz7Hfz//7Up/fONlYu/a99MgjG9Oppw6l229fnZYsWZp+/vO305e/fCzde+8b6eWXl6eVK1fmhaKlzrAU5Oh4+AdTYGGaxC4ytHIItgRVDf/XIRsM7bOg08+JawRACyIVQGWH9NogbacrdJ4Oj0AsQkL+eJINmL3IlmxgKgg7Cd4QDzoEO73hbdQ0hZcjed6HzZs3586S9RWcE0nQFJTqIZe1NVpQC5YiQSpj20xtY9dMUM5fE6rbbdoE2dAoi6aGSjZYn0rnO41sIFvtV6rfTV4/O506ZIObD/7H9OPaoX17IRutaY7hdRd57t/d7ZaCSzdko4pAa31Gq9PvYhol35VefHEedbFBIt9dD5ONHDh5ykE3RcN37F7fqGONNmidx9GjrWA+VrLBlBNrS7ijXvvSSzm1CypbIx1tdLeIRYFs4L/Fw+7jZyeyUUd/6XpAT4lIWP1VZXYOP8CgaTvVadm7cWNqqoxkk1r5Nl/7/SzHgKEAACAASURBVPy/7wvZuOuubem0047kNRtf+9on6fTTD6avf/2T9KUvpfSNb3ycfvaz9XmRaNUTKQpyPApJB8oxT2RYssHoBcGbFyX5TpZgx7SAFnCWOvnSnTJBjaBnZTItQB6BFD11yAYLRpHPS7uoA2GZNm1att+uBRhvssETM5pK0iOWLKrET+b/wVOLNK2NIlxaGGmfhhH50poY64NdtIk+9LDYlXYSWQMPcAEfcOK4E9mgjNpb0zSla4JyvfyaIBv4btf2lOwoXYe2XCeyAWmDEIOrrdfLfj87nTpkgzUaGzZsaP0Y9eqFbORgfOWVo6Y5mCLheqczpuMtBRemA/hf17qHXI6nMS66qLVm4uPhRdQ+AOqJCT0FgR47raHOvl3KYsI8/D88HUFZ+dOaxql4yoHRBKvP62fUxI42IJu1DIyMjJlsIGt4TQxEL9uhKRRGjGroLpENSEwO9rxDpWINQiu4mtEgP7JRR3/pegAjRpXaTUtQpkRIWteJWzjbWm+zZ09qqgw26NfytWLap5//930hG08/vSldeeWudMopQ+mSSzanH/1oXfre9zbnNRuXXfZBevjhlXnNBo/AljpKgtyLL76YOwc6CN5DQZCEwWpEgTIMuRIYKWN/jCxoWgD5CpqU0WhIiWwQMAiAdDiSx3QEeVo0WodsEAxYQ2Jt42kW/tkJKPJZARRdBOc6QVd126UENXx4/PHH88JN5EM8GErWExak3J3JT1IWYHLHRF0tQgRH5tFtOQKe8LVkA5vACj9FUMAeggLhkAxwQb+CZh2/S3Luvffe3LHpmihhAtnq9J6NXsiG/MQnES+NaEGESraMhWwgk3ZBR0l2t3n97HTqkA0eZYdc6Ldr166eyIYCVH7KZHgxpBZe0lZ0xnTMxeDCE1u33JJf4KTgxgvDqJcDMusGzGJQ+xRHfrHY1Venj4fXFvhgr2DQNh3Wb5+k4B0P6BfZUICy71Ow0yq6k/b6GTVBjhawZhJzxRWfy24TzNvaa4KcplKyreAwPIVC/Tq6i2QDEsNiT56YuffeVkDNT+MMP6pch2zU0V+8HoZJFP93loB6TEpkg+uEl4BlzIdftJXtZupai3SbKmPaARLculZNvmzu5/99X8jGF2s2htIdd6zK84l33rk6r9m4//7X07Jly9qSDTpOgpG2oaGhfMzTEwqWlCFYMbfrN1tGnTDBkY3ydGSkWjOgMqSQCvRoY19Ew563OmSHAjDllCc5W7ZsycHCPq1AAMU3NuTx8/pUxuqz9pb2qYMcyJjkk5Jvy+O/3TjGB2+DL2f9ZB8sRRzkt5UhH6TLlseeun57OYcPH87+tcNGWHjfPQ6ySfb7a6PKT3wSHnrxVtVjyrK/yl50Wtysjci0o0H2XC/7/ex0eiEbrMd5+okn0u8XLkwb//SntG/t2lawUcepVAFJHfvH+/dnwssxPx4T5QkPblY0IlEVXFh4SWetuuxDwHMHrs6bd/e8/XYOgiqXH5elzxomG5AOSDfnO73LQn7kFP233NLSf/X06ek6HsfVmo2dO9PObdvy3bZ0Q06YAmVEQWRqlP5Dh0bdXDDVgW/t7tz9iM0IW4UH6fBUCjbZKZRcvobuKrLB4s6dO3YkyKP8zY/98njsgQNfTBu0GdlgGs3fWHnfq64HkShGxqp859potY/F5NChUU9J5ieNuE5UrqkyEOjhUTj/bo+Wrsm4ZoP56yee+CC/1OtXv3ork4u7716bycb8+Svz6nPu6qumUXrpPAepDlMGPEqqKQxs0zs8CEiDZGvY0tvUSwk3SCkjcHqXSalML3mMDCFTU2C9yPB1BoVs/N/HHkt/fPHF1vSJplIeXbAg/f6xx9I7f/xj2rJiRX7Xhu00R+zraQeYH++DIODbmxAIPfmkw09x5EdLla+OXyllhrdMXJiW8YsUrU7KDj/90rLL2iCdkt8pNfqzXGRb+TwGOnyTks2UH6R6p0dJP+fsxjG6qGcfLbX2SVfFezZa/lJH8mWDlaNz0u91y95SXdmgutirgK12tfarbazNnfRLh62D/cMkCtKn0a4RPlMGDG37WL+RZzcvn7INlXlp8eJMcDW6NsrOyUg2fMd2oh1zh8r8vZg4qZ+O6QUThuutzNK+hvR7kR91xk48GLVgmklrS5rAFFnIrBoR6UXHoJCN/evWpScWLEg//elPR/yee+KJ9Nbzz6cNy5enPWvW5FealzrPJvM0HUEqua3FhWYNgs5F+sVagcmMRX7XyVVXtaagBtHXPC32wx9+/v0WiJslPGa/n//3lmNpv/GnUXrp/CZbHYbW7VY1PN6N316mla99Del3IzfKjp1kWAxpAz8NY893u4+sptu1n51O1mU6vKqO8LjnF4bb7ZB9r/b5R3FLNwn2deO96ol640R+htfp/NP3v//5G1oH8FpmTUue6iuNnBh7+/l/r5hk0yAbPT7F0G3QiPLNBvXAs3c8+9npTBiyQafsh9vtkL3ptLsK7BrWt72u329CT6/2Rb3KkYBWO9OGrOWz0zWDhJumpTrY1M//e3+Jc9wz2SgJi7xAIBAYfAT62elMKLLRobNuBZ8o1zlAB0YDh1E//+9LvWCQjRIqkRcITGIE+tnpoCt+gUFcA4NxDRzPbi3IxvFEP3QHAscBgX6SjePgXqgMBAKBAUQgyMYANkqYFAiMJwJBNsYT3ZAdCAQCJQQmNNngpTR+dTcvuPEbL3Up5fty/Tzeyet4/+3f8geR0It9+T3/PLo0xg3ZyAKb/JpifSdijHKrqntfqso1kd/6gJS+D9Gj0F7xvuOOO1ofsLOqacvSNzNkb9X1V3UeWcgcjy3IxnigGjIDgUCgHQITkmyog/aBVF93tJ2+8qo6+3bgjOc5Aom1v9fgV7LRyy6VaTKvn/rU9uMViNvhQhvlbz/oo1LDhcm3bWllYCekr+r6qzovP6vqWR3d7gfZ6BaxKB8IBAJjRWBCkg0IRH5nvev0AQOiYUcIgmyM9RLpXP9EJhsaRfKkQPkaeev2PKhTp4rEdG6V6hJBNqqxiTOBQCAwPgiMC9ngOzx8O2fDhmP5ew+kHH/00efH+mZHySU6WEsWKOMJA2VKd5heHuXU2ZMSFHXHeN9992UZ9q7TBwjf0ev8okWLWtMUkmt1S4d05+8bXH31CP06Jz/kN7J1jpT8upvXq/oQMNlAHjho0521dFp9nfz1+uQLslVXcscDS/ngU+m2vvgywpuybGCEjVwXstn6w3nlk3LM5uWQJ/3I+/Of/5yvM2tLp/NZsJFj6+rcWNIgG2NBL+oGAoFALwiMC9l4/fWU/uqvUvrd747ktyk+9dSn+Xjp0sPpyJEjxQ+oyfhS5+3Jhjpr2+mrvk99XQVIG0ioI5k+EFviozK2LvZihwKC5EuOjimjPPSxbwOw5Ng8ylj93reqYy9bgVIBknqyy8qXDfKljr8lX1TP+2t1qUwdLD0mHssqHNrl46O1RxjJZuFjdVPH2ivfVaekz19/vkyn88huJ9/Lq3McZKMOSlEmEAgEmkRgXMnGY4/tS7t3706LFh3MH2b7wx/2pn379iW+2Fm1+SBAuVKHrGBF4NHPBg/J93UVRHwHTrDx9aVDQdofo8PLa2e/1cl+p0DmbZdPnVIvu+RbKXAi19at46+vw3FJn5flj6lXwtIHd9WzWFK32823U8lmj5E/li26Pko2dGrDTueRba+Tko5u84JsdItYlA8EAoGxItA42Vi0KKWzz07pL/4ipbPOOprOPffT9K1vfZZOOimlv/u7o+nhh7/4nHrJeB8EKNOpQ6aOCIe/6/V1FdBsgFBeKYCRp3wFF/Rp83Up64ODL0NdX64Xv2WDT73sUsAiz5Mr5GCHAnwdf70vJV9lH3bxY6sju2R3O/nSUyf1eJd0WSyQ6Y/9tVXS26lMp/PezpKObvOCbHSLWJQPBAKBsSLQONl45ZVjafr0z9Ipp6T0j/+4P/3rv+5Ol1xyIJ188lD653/el55+ekfau3dv/rhUyfhS59qpQ7ZyCGYKluT7ugpWBBdtyrOExe53EyApO1HIhrcTPGxArUMIqGN9Hm8spU9tojbsNvXX2SCTDXs9d+tnqXyQjRIqkRcIBALjiUDjZOOzzz5Lr7xyJK/RmD9/S1q/fn168MGP8jTKb3/7Yfrwww/z1ErVVIoPAjjvCUM7QHxZf6xgWCIbnQJYneBrA6/slE4r35cbq9/SRepllwIpeVUjG8qv46/XV/LV2qb9OrJLdteVLz1Vqce7pIsyNtD7Y39tlXR1KtPpvLezpKPbvCAb3SIW5QOBQGCsCDRONg4f/iw9//yn6StfSWnu3G1pzZoP0rx5O9Kppw6lhQu3pk2btuaRDRaKljbfoVOGPEYaSNl8MLVy6LztY7G+M1ewIrjYrSTTl60TIEvBQTagQ5vX166e/FbdTqmXXSeQSqatW8df6tk6pWPyesXSBnvkyCZ0jmXzeNfBiDrWHtniryVrl9q+qg07nS/ZZeX3sh9koxfUok4gEAiMBYHGycaCBUPp9NOH8hqNv/7ro+mMM46kv/mbo/n4b//20zR79r68SPTo0aNFu9X5qgNXh27JhsqUAg55Nl9l1dn7oCcjpMfWxQbd5VNOZSSLPMlTvapj7JdP1KO8ncZAptVFGW87eXU2L7sUsGSn1YkNFuc6/mKP16d6woQyY8HS4oRMbLSy62Diy3i8SxhRxpILfyzf29nSqQ07nUd2O/nerzrHQTbqoBRlAoFAoEkEGicbK1YcS9deezT95V+mdPnle9OMGTvSv/zLvnTKKUPp6qv3pCVLtqc9e/ZUrtnAOQU9ggqdvQIDqTYFS8rYny2jsnTWlCFo7dq1K6c28KucgqTk2UBMGZ23OmSHDQjKkxze3YBuq1NBhjLI4+f1qYzVJ1vbpdhiA3QpkKq+sMEOG1i78Vd2yhdbVxh433rFUu8LsXjLF6Ul2Tqn1ONdwogyFhPbrtLv5Ui+UmFT1YbtztfxQ3q6SYNsdINWlA0EAoEmEGicbLBmY9myz9dsPPDA1rRhw4b08MPb8pqN3/1uc9q8eXMmG1XTKE04NWgyxitoDJqfJ6I949m2EBRLGpvCN8hGU0iGnEAgEKiLQONk49ixY2n58qN5gehvfrMjk4tHHtmdycbixdvS9u3b04EDB1LVNEpdwwe1HHfI9m4YO8nzd/aDan/Y1T0C40EKNIpSNSLSvZVf1Aiy8QUWsRcIBAL9QaBxstEfswdbi52aYBqhCaLhZWp6wqYa2h9sdCandWAPqWxqQ9Z4tWeQjaZaKeQEAoFAXQSCbNRFKsoFApMEgSAbk6Qhw41AYAIhEGRjAjVWmBoINIFAkI0mUAwZgUAg0A0CPZON999/P8UvMIhrYOJdA0E2uukio2wgEAg0gUCQjSBNQRpPsGsgyEYTXWfICAQCgW4QCLJxggWaGImYeCMRTbdZkI1uusgoGwgEAk0gEGQjyEaMbJxg10CQjSa6zpARCAQC3SAwocnGNddcM+LtoTwG+uijj44KnjNnzizmN33H2I28119/PWH/22+/ne3F7nPOOSeR342cXsqiA10lrHqR10SdG2+8MS1ZsiT7DiaXXXZZot2akN2EjF7bx/pl7aDtS/7J96q2AaN/+Id/GHWdIAuZVkfVfpCNbrrIKBsIBAJNIDAhyYY65CuvvDJ/m0RA8OrnqVOnjujE6ZzPOuus9Mwzz9TqiKs66Kbzr7/++oT9kot9fEBu7dq1rTydazpFB7oGBRMCK220fPnylu9XXXVVmjdvXuu4aQy6lceL6Hhh3Y4dO2rbVPILveTT9rt37x4l68c//nEm0KW2gSSef/75xesEWcisIinW3yAb6jEiDQQCgX4hMCHJBm9VvPDCC9Pq1avT1q1bWx0231x58MEH8zmNEBDAeKNnqfO2HXC/92+++eZEQJXeE5ls4DttNMhkQ+3UTVryi+vyggsuSC+88MKIa1ejTXpJm79eIRE6VyKl/B8g84orrmiNllXZGmSjX91r6AkEAgEhMC5k47XXPkg//enO9NJLG9N7772XU47/9KcN+Xj9+vWtIOs7RDpVP53A6MSUKVNad22LFy8eFZwk55NPPmndgdoOmo5a0xYM0d92221Zpp168R0+5TTNgXydnz17drZRnb8fvtbIi85DKpBl9evcGWeckacPRDYeeOCBVlCxtsm/OqnXjxxrY2lkQ77JLt8G6FU7qIww1N00MhjiJ58ytNmvf/3rEW0n+xn2R8ett946wl9NLYDZ3XffnXGTPtsesrfUFjqnerJPun2KX3//93/fmsbx5zm216XwxU9skh5rH34on1R+PfXUU3lkYuPGja3/Aew977zzMvn885//PIoc6zrmraL8SmQDG5HJuSeffLIlu+RLkA11f5EGAoFAvxAYF7LBB9e+8pWhNHfuB/kz6fffvymdeuqxtHDh++mdd95J7777bmVnqKBrpxP86ASdKq8At514qVNl6Nt+VfPTTz/NeglkDNsTNNgopw7/lltuaWE/Y8aMdO6557bmxxWkmap56623cjlGWbBDAQ2Zl19+eaIuG9+4YHibMoxmcAfKx+p4FTUf2Tp06FD+MB1+U+aHP/xha2qIMtwFY1vJv1Ke148NYIC/CnjyQ3fPBFtIj/WdfQKgdFPmzDPPTC+++GL2SzKxWXIkl1EnPlA2NDSUpwrwk7ULshcbp0+fnvXRJmCo78lAFilHGyGbu3Xrwz333JPPS5dtCwIxdfBF7UMeZbBf+n3KiBhTJKT+nI79ddnJPvwo+QUOYGunY9hHP9fFq6++OopscH2yIZOppSqygRxkW6xlv02DbGQ4408gEAj0EYFxJRuzZr2b3njjjTR79vpMNhYsWJNWrVrVdl2C79TpJD3ZoFPlg24iHAQYfqW7cV8XeQQKOmUbXGbNmpU7cTstwz4dO+eopwDHVI3qYocNptxVUkdySJnuIZhCNtTpl6ZRKGOnht58881cj7th1euUaoqJuiqLDdh40003jfBDJOGGG27I5/ft2zeijvWdMmBG4EMu/oMDuEuOxUfBFN2M1iBLxAUbIT/PPfdclkX90jQKZMvqQz8kBbIiXbYdudaQY9tHeYyGCY9eUn9dcg21sw8d3i/8B4f58+dX2lK6Xq297cgG5ZANuQUjW8/uB9noYw8bqgKBQCAj0DjZmD17W/r2tw+nk05KacqUQ+nss/enKVM+TiedNJSmTj2Y7rxzfQ6oTK/YDlD7vlMnv9QB624QLwheIhykdsqgVJdAYTt8e6etIIle9glmPkg/++yzI2xHnogEd5Ucb9q0qVVGwV5lkF0iG5Ani0vJduFUlUICdJfO3TxTGcJG+hWowRrfCU6MxGCn5Mp3gvvSpUuLQVKBHDnUk1yPj8qJNDH1ga+aSvBBGVm+jcizmEmXbUewQ67V3wuGwsCm/rrsZB91vV/gCBmy9lkd7HeytxPZQDaEhpEdL1vHQTai9w8EAoF+I9A42Vi48MN06aV70sknD6WLLvooTZu2IV188bZ8/N3vbknz5q3Oox3r1q0rdoa+U6/TAWuYGfC42+SuWcPmpc6bQOGfdCBPQdmnpSCtjpuUuipjA2JVGfJ9uV78tvK1D3mw6wggS/pcuWxUoEYn9UqB09qITAKYx8xj6+XKJggQdkDESsTOB2XZ5PVZzKTLllGe/EKOt1E2dZv69ildQ9Y+5Hu/6tjSqQz+0hb4WvJBOiE2pfPkBdnodzcb+gKBQKBxssF6jMcf35CnTX75y5V5zn3mzFX5eM6c1/Jd8ooVK9p2lr4z7dQB205VUw8aNi/VLQUK8iAqpU1rPUrBDN3UVSD3AUe22TLk+XI+mFGmZLvkVaVM40C2WFPBJtutfu8H5zR6Y+ViIyMeLOgdC9lAJlMmyJB9mkLhnAIk/ko/NlkiQb7FTD7YMspDnuT0gqHq2tS3Tyf7qOv9qmNLpzJ1yIYfIbN+sB9ko/RfHnmBQCAwngg0TjbWrn0vPfLIxnTqqUPp9ttXpyVLlqaf//zt9OUvH0v33vtGevnl5WnlypV5oajvBG0Hbe/MIA6MNiiIME1iV/5bOXTWBDWtDyh13j5QMH1AUPVz3RolqFpYKb3IIxByrKBqh7G1RkFlKGcDJ8c+mJFXsp38dr85c+bk9Rd2SsTrt0G5yne7vkBTKp6QMB1i28XK9TbqSQlGN+wUCuV8UCbPtxF5FjPpmkhkQ9M8tJHHR8ed2rwT2UA22NlpPMlWGmRjPLvUkB0IBAIlBBonG3fdtS2ddtqRvGbja1/7JJ1++sH09a9/kr70pZS+8Y2P089+tj4vEq16IoUgx7w2gYzOkWOeyLBBjdEL7t55AZI6UKVayKgFnKXOuxTICLqQFCuTJx/I27x5c9ajACfSI52WbLBglGNe2sV5CMu0adOy/XZ9gQ2clGuKbDBnD1Z6/NHqF5nyfpTwxH7ru8roqRumqWgD2krEzssVPqQiLNjGlArHOn+ikA1h4EmbcCAtXa/2fCeygWy//sbWZz/IRqkrjLxAIBAYTwQaJxtPP70pXXnlrnTKKUPpkks2px/9aF363vc25zUbl132QXr44ZV5zQaPwPpOkGNIAo9XEpT48Rgjjz9yN6wgTxkeGSV4qpxSRhY0dSB5BDfOazSkRDYIBBAFAqxk8QgneQqMVcHUkg1IC2tIrG08zcLTIPYuXMEbXQTwpsgGuvUIqPzgaRCmiPCNERfvB3jio/Ud+w8ePNjynTIQFx4jRS6PwT7++OO5DgESrL1c3760DXXtFApl9EQP57S4t9RGlqBJl8VUebpOkN0peFMG4tTpPRu+fTrZV+WXRr5E0Chnf53sbUc2kEkbenytfPaDbIxnlxqyA4FAoIRA42TjizUbQ+mOO1blJ0XuvHN1XrNx//2vp2XLlrUlG3SGdsEn72rgmCcsSNVxEtR5L4HfbBmVhXywUX7Xrl051fscVIaUgIsebeyLaNjzVofssARHeZKzZcuWHATsUwgEb3xjQx4/r09lrD5rb9U+vtmNY+yTfPlp5SpP9cAKP6wO2UMZbP/973+f/dITNJJh5dr6DPH7KRTOW7ywU8e+jTgnu6TLllGe1S+bbZ61iX3KgA2pP6dj6gu/OvZRT+XAS9eHppP0ZI7kK+1kL/7KDtVRikxIEORNeaU0yIau8kgDgUCgXwg0TjYIPE888UF+qdevfvVWJhd33702k43581fmlxZxV181jVLqHCdSHus7eNxUT8Ngu97hoUc9J5I/2Kq1KxoZUh6vxvZTIlW+IYPHaHkHBqSgqtxkz8f3uq8V7wYL8KU9kA3JaVc3yEa/utfQEwgEAkKgcbLRrpM7Ec5x56lpG01j+OmYXnBgekHyqlJNQfQiv10dgte2bdvyKIbVzdoA3bG3qy/bKW9HItrVmcznGCUBC70NtQlfkYXMdiM40hNkQ91fpIFAINAvBIJsuDlzdchjSQnAdqsa9u5Gh5dp5Wu/TuDvRqctqykK6SKtq0+21y1v9U7WfbBoknghqy6+QTbsVRz7gUAg0A8EgmyMA9mYrAEy/Bq5mHOi4hFkox9da+gIBAIBi0DPZMMKif1AIBCYOAgE2Zg4bRWWBgKTBYEgG5OlJcOPQKAmAkE2agIVxQKBQKAxBIJsNAZlCAoEJgYCQTYmRjuFlYHAZEIgyMZkas3wJRCogUCQjRogRZFAIBBoFIEJTTZ4K6Z9FJN9vgPiN96oWcr35fp5vHPnzvxWT77IyoZ9vPCK/KY3ffW16kNzveoDV96MKh96lXO86/Xih28/+UD+P/3TP7U+hKd8Uj6Ox7mqNi6dV9s1ef0G2bCtEvuBQCDQDwQmJNlQB+wDHZ013+ogeGhTXpOdtWSPJSXwW/snItkYi/8Tva5vP/lDvr3+lA/BgExWEcp250skRHJ7SYNs9IJa1AkEAoGxIDAhyQadL9+AIPUbHb3t0INspDzyALFpemTDY38iHZfIRhVhJF8jcPbaFF6dzlOuisRIRjdpkI1u0IqygUAg0AQC40I2tm9P6d57U9qw4Vj+jgMpxx999PmxvglScqDUYXvCQBlGMEpkw8q0nTidPR22RkXuu+++LMNOvejuUoHBjjwgV+cXLVqUCY3K+SAuHTp/3XXX5VEMq1/n5If8RrbOkZLf7dZOv5WFPdIlO+x54a4yPlD66YdOenUe7MFWcj3O2IBsnSf1OHBeuHLet4H8wIcqYqoy1o9ONuq8bLO4YYO3Q9cgOvh5DDudl42U83V1rts0yEa3iEX5QCAQGCsC40I2Xn89pb/6q5R+97sj+S2JTz31aT5euvRwOnLkSPEDanKk1Kkq6HGOTUGfDp8OvN3m6ypY2CBhZdpgwb7t4KXX1lWwkG2SLzk69gGR8zbISo7N8/rb+alz0ufllPRb36RffnjckO9tLgXpdn7LNmzxemw7sm8xli2+TJ32Fy7t0pIfnWz0WOjakF8lfeixmPsy7c7Xke/lVR0H2ahCJvIDgUBgvBAYV7Lx2GP70u7du9OiRQfzh9n+8Ie9ad++fenw4cOV/tBZ+w5ZwcZ25Op8CQr6+Xoo8XUV8BQUZUipo5cOzrH5Y/K8vHb2W50+WFHPBlhke9uzER3+lOTIbumvkmttKsnxqsFFpKaO3x4rybN6ZaswVxnfPv5Y5XpJrR91bESHtZnjuniVrlHZ3M4n2UWZsW5BNsaKYNQPBAKBbhFonGwsWpTS2Wen9Bd/kdJZZx1N5577afrWtz5LJ52U0t/93dH08MNffE69ZGy7oMW50ka+CAepgiplfWAtddrKs/WkhzzlKxBaO3xdyioAS4YvQ74v14vfkm9TGziV7/VXBTVrg3wFz6oAZ3V5f9Dt9erYy7N1scGTLmTRjnY6xOqWn72mVlYdG9FjbeYYGe2IRJ0ynWSgk99YtyAbY0Uw6gcCgUC3CDRONl555ViaPv2zuKd8/AAAIABJREFUdMopKf3jP+5P//qvu9MllxxIJ588lP75n/elp5/ekfbu3Zs/GlUy1gY8nfeEQfmllM7YBitftxRMlGcJi91XB68AjI3aVFdlSI8n2Sjpx1byZSNBzfpn923AlG/2vPXdBumSXtWXXh1Tz262LvKtPrtv29XqtrJ62bey6tiIDmszx8iw2JXs6FSm03mvs6SjTl6QjTooRZlAIBBoEoHGycZnn32WXnnlSF6jMX/+lrR+/fr04IMf5WmU3/72w/Thhx/mqZWqqZSxkg1PLvxxKZgoT0GxCuCJQDZs4JQf3r9OQU31bCoZVQG/FAhVR7jqGP12s3Vpf6vDlrP7JT/t+W72raw6NiLb2sxxHUw7lel0Hp3Cshv/fNkgGx6ROA4EAoHxRqBxsnH48Gfp+ec/TV/5Skpz525La9Z8kObN25FOPXUoLVy4NW3atDWPbLBQtLSVgo3udknZfEdv5UAu7HB7HbJRJdMHnjpkAxv9Ha5ssIHC+9Cunvy2flbtU9YHa9kt/aUyyLNBtyRfcmSPLU9eJ789ntJhsRBW0qEyXr7VrTK9plZWHRvRY23mGPs87t4e9HiMbJl256vssvXr7gfZqItUlAsEAoGmEGicbCxYMJROP30or9H4678+ms4440j6m785mo//9m8/TbNn78uLRI8ePVr0QcGGjpdNAY7hdAUglVHwtILIs/kqq7pVnbb02Lq+81cZyUKv5Kle1TH2yyfqUd5OtyDTByJvu/Wzal/6rWx0oV82Sr/V53Vhjw+eHg+OpUd6pUPH1m/lWRxki+RwzHmrW7jbelZ3FRZ1862sujb69pON9trw+tFjMe/mfB35Xl7VcZCNKmQiPxAIBMYLgcbJxooVx9K11x5Nf/mXKV1++d40Y8aO9C//si+dcspQuvrqPWnJku1pz549lWs2cJQOmyDFj6CjQGw7cgUFlVNqywg0BVsC2q5du3KAtIFL5dShS5YPDDpvdcgOBVlkKU9y9F4Jq1PBnTLI4+f1qYzVJ1vbpV6/3kdhbaS+cJGdXg/HOkdqCQD1bZDm2Ov1fuu8xUF2WLIh2Va3r+N1U6e0gaEd6SqVsbLq2qi2wUbhBp4eY6sPPb6N655HR7u6Vk6n/SAbnRCK84FAINA0Ao2TDdZsLFv2+ZqNBx7YmjZs2JAefnhbXrPxu99tTps3b85ko2oapWkHB0FeiaQMgl3jbcOJ5neThMC3DSTGEy5fpu5xkI26SEW5QCAQaAqBxsnGsWPH0vLlR/MC0d/8ZkcmF488sjuTjcWLt6Xt27enAwcOpKpplKYcO15yCAilEYCm7kqPl1+d9J6ofntcmiQFks0oSrsPuKlc3TTIRl2kolwgEAg0hUDjZKMpwyayHAKOnQJogmh4mVa+9ilzPDdvYxN+H09/etHNaE7VV197kadpHU3V9CLD1wmy4RGJ40AgEBhvBIJsjDfCIT8QGDAEgmwMWIOEOYHACYBAkI0ToJHDxUDAIhBkw6IR+4FAINAPBHomG++//36KX2AQ18DEuwaCbPSjaw0dgUAgYBEIshGkKUjjCXYNBNmwXWDsBwKBQD8QCLJxggWaGImYeCMRTbdZkI1+dK2hIxAIBCwCQTaCbMTIxgl2DQTZsF1g7AcCgUA/EJjQZOOaa64Z8Ygpj4A++uijo4LnzJkzi/lN3zF2I+/1119P2P/2229ne7H7nHPOSeR3I2cQy3q8Ob7ssstavh5Pm8EXnEvXSTu7vE8qSz7tqGObks95m2f3S+exa7yxCrLRj641dAQCgYBFYEKSDQI0HfKVV16ZX5Eth3j50dSpU0d08EuWLElnnXVWeuaZZyo7fRsA+rV//fXXZ/ulD/t4rfbatWsHyk7ZVzct4f3JJ58k3iy7devW4+7bjh07Ei+e48VyY/GJuvj6/e9/v+gXJAPyO2/evKKeqvPYNWPGjHTPPfcU69W1uV25IBvqMSINBAKBfiEwIckGLzi68MIL0+rVq0d09Hxz5cEHH8znNEKwfPny/EbPQSMbN998c7rqqqtaAWWykI1Bxbtd8O10ruQThHfatGnpgQceSBAYyRAR1ovWPNnodB45b775ZiYxuoYlu6k0yEa/utfQEwgEAkJgXMjGa699kH76053ppZc2pvfeey+nHP/pTxvy8fr161uds+9AS9MJ3EFOmTKlNfS9ePHiTCAIAr4+d9HcuRIAkKVOn1TTFoyK3HbbbVkm+RpS1xC76vjhbJ2fPXt2HopXOT+M7gMKpAJZVr/qnnHGGfkOWWSD4KVzpLLN+9npGF0lObKt5L9wVj3vFzp9GWtjCW/qcBfvsayyj/LWRurJHi/DY6D2aYeZLyPbwEN6uNbwE/lVPonwvvHGG61rELsvv/zy1ggVb1C1ZKPTefnDCBDXzKxZs1qyda6JNMiGur9IA4FAoF8IjAvZ4INrX/nKUJo794PE1Mb9929Kp556LC1c+H5655130rvvvlvZiSro2ukEf2e5cePG/AVMggPBoqoDZkhaX+ckOHz66ae5LB05Uyt0/myUIwidd9556ZZbbmlhz3D2ueee21pHgU1MdTBV89Zbb+VyyLUBVwGFumy8bprpHsowmkEgYUqBV3vzpdNDhw7lD9PhN2V++MMftqaGKHPBBRe09Ff5afPRT1C2U0yaXlIQLvlPcD3zzDPzyJC12wZ4lXnxxRezb/zhmyjgwbkqvAm46MRO2QeOvNqbzWNIOcqDxwsvvJDL4ANt1m56oc4UidoQvNGDbei56aabsh69HpxRC2yt8gnCiY12akhtC9mFZOOjJRudzqsdKQfpnD59erZB+U2lQTZyU8efQCAQ6CMC40o2Zs16N3HnN3v2+kw2FixYk1atWtV2XUIdskFQ4YNu3DkSKPQrLbD0RIUOmyABqWDaRR04d5EEBx88yNMdpgIVUzWqix2QhhtvvDHLevLJJ0fIQR7TPXycDbIhfaVpFMrYqSGG08l76qmnWvVUvyrVHbeVg61DQ0OtdQol/2+44Ybsx+7du7Mu2U2Axyf0EWDxFZ+ln/bFRkabyCvhbckGspAJWdP0AwEdYnXFFVe0gis2ksc55OIDbTbWAKw2tGSD60jtTgrBwUawLPkECcEOCKXqCQ+l0mPJhs6Rdjr/7LPP5usInGy9JvaDbPSxhw1VgUAgkBFonGzMnr0tffvbh9NJJ6U0ZcqhdPbZ+9OUKR+nk04aSlOnHkx33rk+B1Tu/EodZx2yQT3dxeKF7oxFOuzwfyn4Ecjmz5/f0q/gQTBTAJQO8rjr5VgBgkBgbUeeiASkg+NNmza1yhCQCNIqQ90S2SDoWVxKtlu9pX0IAQTJyvHlvP+M6lCHu2kbPGX3nDlzsi92oacWOApzBe+SzZZsIMv7iX3PPffciADvbaSMx8z7VedYbSh7ZZttL85BoPAFmd4nCAB42WvI65aeXskGbcK6pKVLl7auI6+j1+MgG9H7BwKBQL8RaJxsLFz4Ybr00j3p5JOH0kUXfZSmTduQLr54Wz7+7ne3pHnzVufRjnXr1hU70bpkw3a03P1q426Yu1LNuftAQT0CmQ8C5Clw+lQkQQFEgUo2UFdlqgKiLUM9X64Xv6XfpqXgac+z7/2XX95vHQsrMGU9g/IheZqmEiYlvGUTurVvgzv51LcB3ttIGY8Zed3+5KvslT1WjrfF+yQZwsXW1X6nMp3OS6dGjCS3iTTIhnqLSAOBQKBfCDRONliP8fjjG/K0yS9/uTIPSc+cuSofz5nzWr5TW7FiReVUCh09d410xupY1fEqQCi/lGrqQZ10qW4pkJEHUSltWuuhAOHtoO4gkQ3wazf87v2XX6y/KG2MaIC1plpY18AGyfP4+mPq2YDOfsk+MLUjHt5G5JxoZAOcGOEoXedjyQuyUbrKIy8QCATGE4HGycbate+lRx7ZmE49dSjdfvvqtGTJ0vTzn7+dvvzlY+nee99IL7+8PK1cuTIvFC11mAQd7nDt8DHEgbtpBXmmSezCRSuHYGc76VLw84GM6QLm31lUyZSK5LGPHi1CVVCWHSpnyQbTAT6YMgLAaIsICfV84EQm9XolWbKFKR6Pn84p9f4zykCepotUjkCnF2CBBfj4qRambWzblPC2ZKPKPj/95G3EJo+Z7Owm9W1obZMcXYP4Qp73qQov1SeVHuTbfO13Os81z/XQbjpMsrpNg2yMZ5casgOBQKCEQONk4667tqXTTjuS12x87WufpNNPP5i+/vVP0pe+lNI3vvFx+tnP1udFolVPpBDgCJYEMTpRjnkiwwY0Ri8I3j/+8Y9HdeTcfdvFnz5QILMUyCAcdO5WJk8+kLd58+asRwGiHdlg8STyeWkXugjSPNmA/XaO3wfOpsiGFqzqaQphCGkQafL+4zsLSsFUZaiHD5RFpggZ6wh0t820CnXwTes6SnjbgC77zj///JYcPV7Kwkz0VLWRx4xy3f58G1rbJKsT2cBGSJcnp6pPKj29kg3wBHs/3WR19LofZKPUFUZeIBAIjCcCjZONp5/elK68clc65ZShdMklm9OPfrQufe97m/Oajcsu+yA9/PDKvGaDR2BLnSVPHfBoJQGMH++hIAgxxK4gTxkeGaWzVzmljCxo2gP5eoqB8xoN8cGWcnrCBXIhWQRWgqMWjSqAyA7ZjzwCIccEIqYXrG08zcICURt4RJjQRbBtimygn0drGamRH6Q8QaPpkJL/4AQxEnmgDj7giwjAvn37cgCUXB6Vpa1oG42KlPC2AV32QQglh0dnWfuBLoupxYv8TmTDjsRIjk99G1rbVNaTjZJPPIXD9aEnVlRXqfR4H+qcpx142sWPIqnuWNMgG+PZpYbsQCAQKCHQONn4Ys3GULrjjlW5M77zztV5zcb997+eli1b1pZs0JESdLTpkU3/imkFLZVTagOWOmXIBxtBeNeuXTlV4FUZUvuEC+X1cjCV0XmrQ3ZYgqM82bRly5Y8QmKfYiGA4Rsb8vh5fSpj9cmWTql8lg3yV7bp2MqRPtXxrxhXXZ23bWP9l27VR5f2pU9lkIUcdOuc9HgbqePlqA5pqX3s+VKZkm3g7W2SvdKPjZA2jcBV6fE+qJxsLZ2HwFx66aWtETXVaSoNsqErONJAIBDoFwKNkw3mmJ944oP8Uq9f/eqtTC7uvnttJhvz569Mr776an4dc9U0SlMd6vGSwzSEfQMldugdHryM7HjZFXq7n3Jphxlkg6knvo2iaaV25bs5x1QgoxoQkm7q1S0bZKNf3WvoCQQCASHQONmo2+FN1nLcqdopAqYK/HRML77713trCsKm9v0iveiIOt0REkZjIAVan9MEfkypMX2ll6s1IdPLCLKh7i/SQCAQ6BcCQTZ6WGToO29/rCF3NaKfHvHl6xx7mZJtU8rUkRVluiMV7fCCXDaJO1M4mqppp3cs54Js2P+a2A8EAoF+IBBkYxzIxlgCQdRtjggElmUsg2z0o2sNHYFAIGAR6JlsWCGxHwgEAhMHgSAbE6etwtJAYLIgEGRjsrRk+BEI1EQgyEZNoKJYIBAINIZAkI3GoAxBgcDEQCDIxsRop7AyEJhMCATZmEytGb4EAjUQCLJRA6QoEggEAo0iMCHJhr40ah/71H7Vx8TqoEZdXqg00bY77rgjv4FzLHbzcTXeclr1MbpuZHscOUa2PuDWjaymy3LtgNeJvAXZOJFbP3wPBI4PAhOabHhisHPnzvzq7F4CpgiMl3l8mqW+VuzlWzLYP5atKbIxyDg25eNYcB6EukE2BqEVwoZA4MRCoFGy8cSfUvr/Hm//e2Xt0XTkyJH8LoFeoW4X0Nqda6ev13rtZPbjXJCN+igH2fgcqyAb9a+ZKBkIBALNINAo2fh/Hjiavvnfj7T9zV68P/FBr8OHDxc9IHjyYS9GKbR5IuCPVU4pIxt+2F51NN1CqlEMUptvR0aYArDnVEe6SL1sq5vyHF933XVZjj1XRza2WP3t6iNPm61XGvlQ4JVs7EO29V2ylGrkqIQBZapwtNMoYMXH7hYtWpRHZKSfMhbHks3SrzoWC9lo/aacMPF17TXm7fa6Zf99993XaguV4VzJHunDT3SpjOyRvccjDbJxPFAPnYHAiY1Ao2Tjv9y9JZ129Yfp2z8+MOr3n67bn74+bX36xSPrW19GLUFPx28DAWUUhBTk/LGXQ4duZZTKU0YBo6SDvKoyNmAoUMk26hHwFAh13gfxOrKtHOQqgFlZyLd+SL/1XzbIRhEN2ag6BEQrm/xutyqspUvnrX3oRLfPs8cl36lny3AsPdgtXd5v62Md/Ggri41sKeVJti0j/bLHXj/d4ttE+SAbTaAYMgKBQKAbBBolGw/95t/Tvz/223To8NCo394DR9IvZv6vtHDRk4kPku3du7doJx2zDSAUUiftO20de0FeBp27DUJ1ZCpY+MDAsbWP4KIA4+3gGFs8GagjW2W8j+iyvnj5HivZZOv5OpSRvna+SFa7tKTf4q/zFlfsIXBbX72NHndrM+dEoNrZXypDeV+npNu3IXXsdYA95KltqvAs+dEOz/E4F2RjPFANmYFAINAOgUbJxoIFC9ITTzzR0veTn/wkf6iKDL4fcdddd+Xh836TjZZBw6MVBDb9FOAUBHXsA45kUI5pAFIFFBs4VU4pcnxQqiNb9UmlRzYroHHOy6oKZtYOylgZyCkFYmtD3X2PI/WsvtJ5i6n0WL/a2WbJAnrAyOMtme3kUAZZwtiSixKm1ifJL5EN/LBbyVd7vh/7QTb6gXLoCAQCAYvAuJANPr996623ptNOOy3NmDEj6+sn2fDBQQFOgYQAoDwFA39Mvsr7VIFIJEAyLLDa55wPfnVkU98GP5EDG9AogyzZw7ECrreZY9nhZchW8vmNZfM4yibZXzpPngicdFu/RBJKPpFnbfbYSi9yJaeqvHC0umW/sJN9QTaERKSBQCAQCHRGYFzIxrp169J3vvOd9NWvfvW4kA0fNDm2QQdYfNDzxz7glKAU2SDwVG3I8YGqjmxvj+R7X7wsT7RUz6alQFkKxLZO3f2S3VZf6Tx5dciGJQl17AEbS0a8j/5YMutgan1SPds2ujaQZTcv257r136MbPQL6dATCAQCQmBcyIaEX3jhhT2RDd1hSo6ChjruUsBSWX9OAYXgYDeOCURVMr0c1aW8yINktwuCtrxk1JFdqqcAZokT5Sxe/lg6bXAslZHsdr5IVru05JvVXTpPXjuygT4byKVf+Pu21XlSq1vl5aN8Bg+7cd5iigy1ucpZucqzNkq2dKlMqZ7O9SsNstEvpENPIBAICIGBIxsKRnTKbOq02xEDOaOyvoPn2AYL6UCm9CjPBh7O2aAj+aqDXspb28jjvPRxXvuyU2XayZY9Vhd+oMvKQ76Vg+wqf+Wbgq4lLZJNOpZNdkuXfJWu0nnyOpENYW/tszjLJ3tedYShL6Nj2Yat2A3Gtk2tHmFDnq1HPrqVJ91WTsl3yetnGmSjn2iHrkAgEACBcSUbvGNg2bJlGem6azYobDt8AinHBFgFMHXaCgo2VWCxzaugonJWpg1O7FNGAQMZyFM90pJ8b48nA/bY2tVJtsUB3dhHHUsurG8lX2S7sJN+W48yTbxnQ7I9jtgsTIWVtYe8TmQD2TaAY7PH1fskzGQXqTAVhiWZlOG82prU67I+ST5+y0/J5dXo1K1qB9XtZxpko59oh65AIBAAgcbJxty5c9OKFStG/V577bV0++2356dVPvjgg/xir2iCQGCyIiCyIcIySH4G2Rik1ghbAoETA4HGycb111+f2v2efPLJ9OGHH6b9+/efGAiHlyckAkE2TshmD6cDgUCgAoFGyUaFjsgOBE44BIJsnHBNHg4HAoFAGwSCbLQBJ04FApMRgZhGmYytGj4FAoONQJCNwW6fsC4QaByBIBuNQxoCA4FAoAMCPZON999/P8UvMIhrYOJdA0E2OvSKcToQCAQaRyDIRpCmII0n2DUQZKPxfjQEBgKBQAcEgmycYIEmRiIm3khE020WZKNDrxinA4FAoHEEgmwE2YiRjRPsGgiy0Xg/GgIDgUCgAwITkmwsWbIkTZkypfVWRr2dkXTmzJk9B0/qPvrooz3Xb/oOVH52axP1brzxxr748frrr6drrrkmvf3221kftp5zzjmJ/Kbx6EUeOIBHL3Una50gGx16xTgdCAQCjSMwIcnG8uXL8+uk7SuvQYZ3G/DxN4Jft4GCgHTWWWelZ555puu63eqqW15+dmMTQX/atGnp5ptv7osfvMDtyiuvbOk6cOBAOnbsWNqxY0crr66/TZeD+NCm4Ni07IksL8hG4/1oCAwEAoEOCDRKNub9x65040MH2/6efPHD9M4776T33nuv5wBQFYQJcG+99VYOMN2OBlTJPJ5BpVebrrrqqr6RDUgN+o4nTlW6IWl84yTIxsh1KkE2OvSKcToQCAQaR6BRsvFfZ+1N3/zvR9r+bl+wMa1atSqtXbu2GKBKw/B+OqFdEN6zZ0+65ZZb0hVXXNEa2icYSYadchEhIbX5dmSEqRV7TnUU4Dh/2WWXjdBFGaZ5NHyPPP0ky9cp2YhsgqUd2WjnB1MX5557bsteO53h61kf5YtPS76pDCMo+CB/zjjjjOwvvlu98ptUZXXe5pXs6YS990lysdHX5Zh8bzc2Wd1giJzZs2fnVDZTRueUZ68FYXXbbbeN8lOYDUoaZKPxfjQEBgKBQAcEGiUbl9++Lp129Yfp2z8+MOr3n67bn74+bX36f+99Ld9prl69ukg2CKx8AdSSEU8u/LHvxOfPn59lMMrBOYLSmWeemV588cUWHHwga+rUqfkcQ//2a6R8oZZ6BBCG4TnHRkodBS7KzJs3b9Sdvb+j5u6fAEXKxtdJGQ24/PLLWyRFNj744IO5jKaEqCeyoTJVfjCyc/DgwfzlUb5AqukM1ZNs9DP1USI8FstPPvkkffbZZ2nr1q2j2oo8zulLp4cOHUoQPd9+8p02YRPO+GXzwNni2gl7+WSxgGT+4Ac/yJhiu77eik6OIRpgPmPGjGyL7LG6ue64/mhnrh82rhXshVDZPF0/ug4oM3369Ny+1MOe8847b2DWr6htg2zkZo0/gUAg0EcEGiUb9/3veenfH/ttOnR4aNRv74Ej6Rcz/1ea9+sH0x//+Me0cuXKUQGMztAHK/I8ufDH6kSVPvvssyMIC3epfPp7+/btLZ1vvPFGHjVYvHhxzvMyuYtl/QcBmiCKbFKOyec8eXXJBp8ZV9AmhWwR5PgwHXJuuOGGbOPu3bvzMcThhRdeyEFOZKOOH8jy0yhedkk/9Xr5+WkU336cx/fNmzdn+eimLfjJV+XddNNNuUwd7Gk3Rn3UDtgOSbTkCFvsNArkg7Z78803W7563SIbEAW1u64Vey0oT9cP1wG6aFdkYg8pxGXWrFktfb1g3HSdIBt97GFDVSAQCGQEGiUbc+bMyZ+QF7Y/+clP0gMPPJAPCQR33XVX+vWvfz3uZMMHPHuHzh0zd6D6KZB7svHUU0/l4EFQsZ09xwSspUuX5vy6ZIPgZRdNKsiBGXfcjDSAlQIVOgmkdhqljh/Us2QDGQQ8L9vqt/51u1+HbGDPpk2bWgGYkQV+1ldrcx3sN27cmEkM7WhHRKz9nmxAHhjtIWVkxD7RhB/UFdlg1EWyWF8EYYLEKs9fL1wHECjrE+1Nu4tEqe7xToNsqIeKNBAIBPqFwLiQDTrcW2+9NZ122mmtIet+kg0CuJ2K8YGFO1wN51eRDfJFSHxq75brkg0FMxtoCLDUZ2gee9m35xXkZGMdP6hvA7eCp/dBx16n1V9nvy7ZsLKo4/GwNtfB3k4ZyRdSu44CObat/HoNiABTSpAE2SO8LC7KUzvgS4ls4IP1k/2Sr75Mv4+DbPSrew09gUAgIATGhWysW7cufec730lf/epXjwvZ4E7SjiRoGoHAwsYaDR8s/LECFaTEb0NDQ60hdoKSDzKqi8yqgGMJBnf9yLABjnqMntiRjTp+UM8GbgVK1h2UNkZLxhLsCKbWf3y3RM+fr8LD2iz8OmEPqWXahE2kwa6jkBy1A1NWdg2O1uZY3cLLtoXykCes/PVSug40YiUio7rHOw2yUfpPiLxAIBAYTwTGhWzIYKYbtBivm5ENAqymKeiYmRfnrlWdve/obefN3T8B5bnnnsuBQR2+n0Zg/UM7mZrC0Jy8dPinLQgyBFfIg8owsmLvqAk2lLHrC/APfJiWIWiCE4sLsVdyrN91/aCuDZ4iMn4oH1t46sKOBEhvN6knE7TRWMlGXeytnWC4bdu2PN2hNvNkg3bxUx2McnG9iBCIWPRCNpCDPNklQqlrUfnHOw2yoR4q0kAgEOgXAgNHNhRoIAN0yhxfcMEFbYmBOm/Knn/++XlUg9EL8hXICeycJ0+EBLJBACLPExgtBrV3yrKFhYJaf8E8PnJYZ2Ble7JBGV6ARRmIAy/eYvRFixBZtEiwuueee3IZ6RIhqusH8i3ZoJ4Wo9q1DdhCObtolrrd/saDbNTBHpJkHy/GbhZiQnRYz8GxJxtqKy3KVTuAMWtmOB4L2UAO7Yoc9DeFcbdt0ql8kI1+da+hJxAIBITAuJKNRYsWpWXLlmVddUc2CDQ8zkjHzY/HDXkqgwV6fmRDZWwKEdDwuDrdffv25cCqcnoMFpm640cvwZ8yeiSUKQbkqR4px3bqAVKjRyM5D9nBfoKehu8JyNxRX3vttS1ZjGRYO9FPkIJwSN+99947Yhqljh+QCz3FomBckk1wxXbKCyefQk6EhT+nY5EkbIYANDGygexO2GO7vU7QD3aMJogIQqTAnXO8J8O3FfmMePH4Lu1F3bGQDa6nX/ziF632q4OxcOxnGmRD3V+kgUAg0C8EGicbc+fOTStWrBj1e+2119Ltt9+e363w8ssvVz76SqdLUNDG+giOeYqAlPMET/JLmyUC6sAJqJrbp461LMNaAAAD3klEQVSVaQM++2z28Unk2a0k35aRnXrqARt0979///6WKKtXdnq/Dh8+3LKVMnX9EH52bYmXbX2Ufp/iV6dyVi561VYK+PjpZZBn/ZdfNg9bLK4A57GXnwLV+uvxkuySTM7RXtjMj32rS3noE0byW3maTtuyZYvMGeW36h7vNMhGq4liJxAIBPqEQONkg6Hjdj/uJFmvYN91cLw73/HWL7Ix3npCfvfTQE1hJrLByEhTMsdLTpCNPvWuoSYQCARaCDRKNsarc5zocoNsHD8S0K9rJ8hGq0+JnUAgEAgERiEQZKOHRZHdBjCG6f1UQrcyovxgExamXTQVM+htFSMbo/rByAgEAoFxRiDIRh/IxqAHn7BvsIlM0+0TZGOce9UQHwgEAqMQ6Ils0FnFLzCIa2DiXgOjeoLICAQCgUBgHBHommyMoy0hOhAIBAKBQCAQCAQmIQJBNiZho4ZLgUAgEAgEAoHAICEQZGOQWiNsCQQCgUAgEAgEJiECQTYmYaOGS4FAIBAIBAKBwCAhEGRjkFojbAkEAoFAIBAIBCYhAkE2JmGjhkuBQCAQCAQCgcAgIRBkY5BaI2wJBAKBQCAQCAQmIQJBNiZho4ZLgUAgEAgEAoHAICEQZGOQWiNsCQQCgUAgEAgEJiECQTYmYaOGS4FAIBAIBAKBwCAhEGRjkFojbAkEAoFAIBAIBCYhAkE2JmGjhkuBQCAQCAQCgcAgIRBkY5BaI2wJBAKBQCAQCAQmIQJBNiZho4ZLgUAgEAgEAoHAICEQZGOQWiNsCQQCgUAgEAgEJiECQTYmYaOGS4FAIBAIBAKBwCAhEGRjkFojbAkEAoFAIBAIBCYhAkE2JmGjhkuBQCAQCAQCgcAgIRBkY5BaI2wJBAKBQCAQCAQmIQJBNiZho4ZLgUAgEAgEAoHAICEQZGOQWiNsCQQCgUAgEAgEJiECQTYmYaOGS4FAIBAIBAKBwCAhEGRjkFojbAkEAoFAIBAIBCYhAkE2JmGjhkuBQCAQCAQCgcAgIRBkY5BaI2wJBAKBQCAQCAQmIQJBNiZho4ZLgUAgEAgEAoHAICEQZGOQWiNsCQQCgUAgEAgEJiECQTYmYaOGS4FAIBAIBAKBwCAhEGRjkFojbAkEAoFAIBAIBCYhAkE2JmGjhkuBQCAQCAQCgcAgIRBkY5BaI2wJBAKBQCAQCAQmIQJBNiZho4ZLgUAgEAgEAoHAICEQZGOQWiNsCQQCgUAgEAgEJiECQTYmYaOGS4FAIBAIBAKBwCAhEGRjkFojbAkEAoFAIBAIBCYhAkE2JmGjhkuBQCAQCAQCgcAgIfD/A/Fde3FDM0hNAAAAAElFTkSuQmCC;" vertex="1" parent="kv3tFO3fJcUVmhCT7JTZ-1">
          <mxGeometry x="130" y="30" width="539" height="505" as="geometry" />
        </mxCell>
      </root>
    </mxGraphModel>
  </diagram>
</mxfile>
